<svg xmlns="http://www.w3.org/2000/svg" id="svg4595" width="93.88" height="45"><defs id="defs4581"><style id="style4579">.cls-1{fill:#b54228}</style></defs><g id="g4593" transform="matrix(.27856 0 0 .24482 .311 15.4)" stroke-width="3.829"><g id="g4591" transform="matrix(2.73207 0 0 3.19958 -9.527 -59.586)" stroke-width="1.295"><path class="cls-1" d="M63.313 39.446v-.8a3 3 0 0 1-2.5.9 3 3 0 0 1-2.36-.8 2.45 2.45 0 0 1-.64-1.7c0-1.48 1-2.44 2.94-2.44h2.56v-.86c0-1.24-.63-1.87-2.2-1.87a2.23 2.23 0 0 0-2.13 1l-.85-.78a3.3 3.3 0 0 1 3-1.26c2.28 0 3.4 1 3.4 2.8v5.74zm0-3.9h-2.4c-1.27 0-1.9.5-1.9 1.5s.6 1.44 2 1.44a2.48 2.48 0 0 0 1.9-.57 2 2 0 0 0 .44-1.47zm9.4 3.9v-1a2.75 2.75 0 0 1-2.4 1.13 3 3 0 0 1-2.08-.74 5.08 5.08 0 0 1-1-3.67 5.08 5.08 0 0 1 1-3.6 3 3 0 0 1 2.07-.75 2.73 2.73 0 0 1 2.4 1.1v-4.8h1.2v12.3zm-2.13-7.5c-1.85 0-2.14 1.6-2.14 3.26 0 1.66.3 3.25 2.14 3.25s2.12-1.53 2.12-3.2c0-1.67-.3-3.24-2.18-3.24zm9.4 7.6a4.68 4.68 0 0 1-3.5-1.22l.83-.83a3.48 3.48 0 0 0 2.64 1c1.4 0 2.26-.5 2.26-1.5 0-.74-.43-1.16-1.42-1.24l-1.4-.1c-1.66-.1-2.54-.9-2.54-2.3 0-1.5 1.3-2.43 3.13-2.43a4.8 4.8 0 0 1 3.06.92l-.8.8a3.63 3.63 0 0 0-2.27-.67c-1.24 0-1.9.54-1.9 1.4 0 .86.4 1.16 1.5 1.24l1.35.12c1.5.13 2.5.7 2.5 2.3 0 1.6-1.33 2.56-3.4 2.56z" id="path4585" fill="#b54228"/><path d="M90.249 39.955a2.08 2.08 0 0 1-2.18-2.27v-5.23h-1.07v-1h1.07v-2.6h1.24v2.66h1.87v1h-1.8v5.18c0 .78.36 1.24 1.16 1.24h.66v1.07zm4.32-3.9c0 1.86.88 2.93 2.5 2.93a2.8 2.8 0 0 0 2.23-1l.85.74a3.9 3.9 0 0 1-3.1 1.3c-2.26 0-3.72-1.34-3.72-4.34 0-2.75 1.33-4.35 3.5-4.35s3.48 1.6 3.48 4.1v.58zm4.23-2.36a2.18 2.18 0 0 0-4 0 3.57 3.57 0 0 0-.26 1.42h4.5a3.58 3.58 0 0 0-.24-1.42zm8.97-.6a1.78 1.78 0 0 0-1.47-.63 2.08 2.08 0 0 0-2 2.3v5.2h-1.28v-8.5h1.24v1a2.86 2.86 0 0 1 2.38-1.1 2.62 2.62 0 0 1 2 .8zm7.68 0a1.78 1.78 0 0 0-1.47-.63 2.08 2.08 0 0 0-2 2.3v5.2h-1.28v-8.5h1.24v1a2.86 2.86 0 0 1 2.38-1.1 2.62 2.62 0 0 1 2 .8zm7.6 6.86v-.8a3 3 0 0 1-2.46.92 3 3 0 0 1-2.4-.78 2.45 2.45 0 0 1-.7-1.73c0-1.43 1-2.4 2.94-2.4h2.55v-.91c0-1.24-.6-1.87-2.18-1.87a2.23 2.23 0 0 0-2.14 1l-.86-.78a3.3 3.3 0 0 1 3-1.26c2.28 0 3.4 1 3.4 2.8v5.74zm0-3.9h-2.4c-1.28 0-1.9.5-1.9 1.5s.6 1.44 2 1.44a2.48 2.48 0 0 0 1.9-.57 2 2 0 0 0 .43-1.47z" id="path4587" fill="#0a1013"/><path class="cls-1" d="M58 47.8c-1.1 0-2.6-.1-3.28-1.67C54.18 45 38.12 0 38.12 0h-11S11 45 10.5 46.13c-.67 1.58-2.17 1.66-3.28 1.67h-.6v8.65h2.53c4.9 0 9-2.25 10.8-6.44.82-1.83 2.78-7.7 2.78-7.7h19.7s2 5.87 2.78 7.76c1.8 4.2 5.9 6.45 10.8 6.45h2.47v-8.7zM32.6 33.45h-6.8l6.74-21.5h.12l6.74 21.5z" id="path4589" fill="#b54228"/></g></g></svg>