<svg id="Isolation_Mode" data-name="Isolation Mode" xmlns="http://www.w3.org/2000/svg" viewBox="0 0 213.53 57.43"><defs><style>.cls-2{fill:#c02d61}</style></defs><path d="M169.87 181.73a.83.83 0 0 0-.25-.19.65.65 0 0 0-.31-.08h-1.17v1.67h1.17a.67.67 0 0 0 .3-.07.83.83 0 0 0 .25-.19.87.87 0 0 0 .22-.58.84.84 0 0 0-.08-.29.88.88 0 0 0-.13-.27zm-.5-1.67a.69.69 0 0 0 .24-.15.72.72 0 0 0 .16-.23.73.73 0 0 0 .06-.29.7.7 0 0 0-.06-.28.72.72 0 0 0-.15-.23.74.74 0 0 0-.24-.16.8.8 0 0 0-.3-.06h-.92v1.45h.9a.89.89 0 0 0 .31-.05zm-48.05-.56a1.87 1.87 0 0 0-2.72 0 1.94 1.94 0 0 0-.39.63 2.21 2.21 0 0 0 0 1.55 1.91 1.91 0 0 0 .39.63 1.82 1.82 0 0 0 .6.42 1.86 1.86 0 0 0 .76.15 1.88 1.88 0 0 0 .76-.15 1.82 1.82 0 0 0 .6-.42 1.93 1.93 0 0 0 .39-.63 2.21 2.21 0 0 0 0-1.55 2 2 0 0 0-.39-.63zm-35.14.58l-.19.59-.19.59-.19.55h1.54l-.77-2.29q-.1.26-.2.56zm143.44-1.01a.9.9 0 0 0-.24-.21.82.82 0 0 0-.31-.11h-1.26v1.83h1.23a.8.8 0 0 0 .55-.31.89.89 0 0 0 .15-.27 1 1 0 0 0 0-.31.88.88 0 0 0-.05-.3 1 1 0 0 0-.07-.32zm-67.68.43a1.84 1.84 0 0 0-1.36-.58 1.83 1.83 0 0 0-.76.16 1.86 1.86 0 0 0-.6.42 2 2 0 0 0-.39.63 2.21 2.21 0 0 0 0 1.55 1.93 1.93 0 0 0 .39.63 1.83 1.83 0 0 0 .6.42 2 2 0 0 0 1.52 0 1.83 1.83 0 0 0 .6-.42 1.94 1.94 0 0 0 .39-.63 2.2 2.2 0 0 0 0-1.55 2 2 0 0 0-.39-.63zm38.62 0a1.87 1.87 0 0 0-2.72 0 1.92 1.92 0 0 0-.39.63 2.2 2.2 0 0 0 0 1.55 1.89 1.89 0 0 0 .39.63 1.82 1.82 0 0 0 .6.42 1.86 1.86 0 0 0 .76.15 1.88 1.88 0 0 0 .76-.15 1.81 1.81 0 0 0 .6-.42 1.93 1.93 0 0 0 .39-.63 2.21 2.21 0 0 0 0-1.55 2 2 0 0 0-.39-.63z" transform="translate(-54.46 -127.3)" fill="none"/><path class="cls-2" d="M120.08 162h12.09l-.06-7.23h-12a1.94 1.94 0 0 1-2-1.91V127.3h-7.23v25.56a9.21 9.21 0 0 0 9.2 9.14z" transform="translate(-54.46 -127.3)"/><path class="cls-2" d="M106.35 9.26h7.23v25.45h-7.23zm0-9.26h7.23v6.14h-7.23z"/><path class="cls-2" d="M217.43 137.65a8.14 8.14 0 0 0 1.39-4.34 5.25 5.25 0 0 0-.64-2.72 7 7 0 0 0-6.25-3.3h-15.26v7.29h14.05l-12.9 17-.12.17a7.67 7.67 0 0 0-1.39 4.28 5.53 5.53 0 0 0 .64 2.72 6.82 6.82 0 0 0 6.25 3.25h15.1v-7.29h-13.77zm36.5 10.6H268v-6h-14.07v-5.81a2 2 0 0 1 2-2h12v-7.14h-12a9.13 9.13 0 0 0-9.2 9.14v16.36a9.18 9.18 0 0 0 9.2 9.2H268v-7.29h-12.11a1.94 1.94 0 0 1-2-1.91v-4.55zm-165.11-.19h-6.06a11.47 11.47 0 1 1-11-14.88v-5.88a17.35 17.35 0 1 0 17.06 20.76z" transform="translate(-54.46 -127.3)"/><path fill="#7e022e" d="M27.64 13.55h-10.2v7.21h16.93l-6.73-7.21z"/><path d="M87.25 177.34a.24.24 0 0 0-.08-.1.25.25 0 0 0-.15 0h-1.29a.25.25 0 0 0-.17.07.36.36 0 0 0-.1.13l-2.72 7a.21.21 0 0 0 0 .07.11.11 0 0 0 .06.1.28.28 0 0 0 .14 0h1.46a.26.26 0 0 0 .25-.18l.19-.51.19-.51h2.67l.19.51.19.51a.27.27 0 0 0 .1.14.31.31 0 0 0 .18 0h1.43c.15 0 .22 0 .22-.15a.23.23 0 0 0 0-.07zm-1.65 4.48q.1-.25.19-.55l.19-.59.19-.59.19-.55.77 2.29H85.6zm14.64-4.63h-1.58a.27.27 0 0 0-.27.19l-1.62 4.55-.67-2 .44-1.27.46-1.24a.15.15 0 0 0 0-.11.24.24 0 0 0-.16 0h-1.68a.25.25 0 0 0-.27.19l-1.42 4.56-1.53-4.56a.26.26 0 0 0-.26-.19h-1.61c-.12 0-.18 0-.18.14l1.29 3.37 1.29 3.37.08.18.1.17a.21.21 0 0 0 .21.11h1.23a.21.21 0 0 0 .13 0 .47.47 0 0 0 .1-.11.86.86 0 0 0 .08-.15l.06-.15.33-.89.33-.89.79 2.08a.23.23 0 0 0 .08.11.27.27 0 0 0 .17 0h1.22a.24.24 0 0 0 .17-.07.35.35 0 0 0 .09-.12q.33-.87.69-1.75l.67-1.79.71-1.75q.35-.87.69-1.75a.14.14 0 0 0 0-.11.24.24 0 0 0-.16-.12zm7.03 5.71h-3.36v-1.28h2.5a.2.2 0 0 0 .16-.06.21.21 0 0 0 .05-.14v-1.08a.17.17 0 0 0-.06-.15.26.26 0 0 0-.16 0h-2.5v-1.24h3.24a.21.21 0 0 0 .18-.08.26.26 0 0 0 .06-.16v-1.24a.25.25 0 0 0-.06-.18.22.22 0 0 0-.17-.06h-5a.21.21 0 0 0-.16.06.24.24 0 0 0-.06.17v7a.2.2 0 0 0 .06.16.23.23 0 0 0 .16.05h5.06a.24.24 0 0 0 .17-.07.21.21 0 0 0 .07-.17v-1.26a.2.2 0 0 0-.18-.27zm6.73-2.12a3.32 3.32 0 0 0-.77-.46q-.45-.19-1-.37l-.48-.17a2 2 0 0 1-.35-.17.7.7 0 0 1-.21-.19.46.46 0 0 1 0-.48.48.48 0 0 1 .17-.16.87.87 0 0 1 .26-.09 1.64 1.64 0 0 1 .31 0 1.08 1.08 0 0 1 .32 0l.29.12.26.16.22.18.13.1a.22.22 0 0 0 .13 0 .25.25 0 0 0 .17-.08l.76-.82.1-.12a.23.23 0 0 0 0-.12.27.27 0 0 0-.07-.16 1.32 1.32 0 0 0-.18-.19l-.27-.21-.32-.21a3.25 3.25 0 0 0-.82-.33 3.69 3.69 0 0 0-.87-.1 3.78 3.78 0 0 0-1.1.15 2.54 2.54 0 0 0-.84.42 1.85 1.85 0 0 0-.54.65 1.89 1.89 0 0 0-.19.84 2 2 0 0 0 .15.79 2 2 0 0 0 .45.66 3.26 3.26 0 0 0 .75.54 7.34 7.34 0 0 0 1.05.45l.32.11a2.43 2.43 0 0 1 .35.16 1.24 1.24 0 0 1 .29.22.39.39 0 0 1 .12.28.82.82 0 0 1 0 .26.54.54 0 0 1-.14.22.72.72 0 0 1-.27.15 1.34 1.34 0 0 1-.43.06 1.48 1.48 0 0 1-.53-.09 2.41 2.41 0 0 1-.5-.26 3 3 0 0 1-.3-.23l-.22-.19-.12-.09h-.1a.32.32 0 0 0-.17.07l-.81.92a.28.28 0 0 0-.12.19.33.33 0 0 0 .12.2 3.7 3.7 0 0 0 .55.5 4.32 4.32 0 0 0 .67.4 3.75 3.75 0 0 0 .73.27 3.08 3.08 0 0 0 .77.1 3.68 3.68 0 0 0 1.14-.17 2.89 2.89 0 0 0 .92-.49 2.28 2.28 0 0 0 .62-.76 2.19 2.19 0 0 0 .23-1 2 2 0 0 0-.18-.88 1.89 1.89 0 0 0-.45-.58zm9.26-1.78a3.8 3.8 0 0 0-1.37-1.37 3.91 3.91 0 0 0-.92-.38 3.82 3.82 0 0 0-2 0 3.92 3.92 0 0 0-.91.38 3.71 3.71 0 0 0-.77.6 3.84 3.84 0 0 0-1 1.69 3.9 3.9 0 0 0 0 2 3.74 3.74 0 0 0 .38.91 3.86 3.86 0 0 0 .6.77 3.83 3.83 0 0 0 4.63.6 3.86 3.86 0 0 0 .77-.6 3.76 3.76 0 0 0 .6-.77 3.86 3.86 0 0 0 .38-.91 3.83 3.83 0 0 0 0-2 4 4 0 0 0-.39-.92zm-1.55 2.7a1.93 1.93 0 0 1-.39.63 1.82 1.82 0 0 1-.6.42 1.88 1.88 0 0 1-.76.15 1.86 1.86 0 0 1-.76-.15 1.82 1.82 0 0 1-.6-.42 1.91 1.91 0 0 1-.39-.63 2.21 2.21 0 0 1 0-1.55 1.94 1.94 0 0 1 .39-.63 1.85 1.85 0 0 1 .6-.42 1.83 1.83 0 0 1 .76-.16 1.84 1.84 0 0 1 1.36.58 2 2 0 0 1 .39.63 2.21 2.21 0 0 1 0 1.53zm11.46-4.29a.23.23 0 0 0-.08-.16.24.24 0 0 0-.16-.06h-1.71a.28.28 0 0 0-.16 0 .25.25 0 0 0-.1.14l-1.37 4.54-1.36-4.54a.24.24 0 0 0-.24-.19h-1.73a.22.22 0 0 0-.17.06.27.27 0 0 0-.07.16l-.72 7a.19.19 0 0 0 .22.22h1.41a.21.21 0 0 0 .25-.22l.44-3.86 1.12 3.88a.21.21 0 0 0 .07.12.19.19 0 0 0 .13.07h1.43v-.12l1.13-3.89.5 3.84a.21.21 0 0 0 .24.22h1.42a.18.18 0 0 0 .22-.2q-.18-1.76-.36-3.49t-.35-3.52zm7.94 5.49h-3.36v-1.28h2.5a.2.2 0 0 0 .16-.06.21.21 0 0 0 .05-.14v-1.08a.17.17 0 0 0-.06-.15.26.26 0 0 0-.16 0h-2.5v-1.24H141a.21.21 0 0 0 .18-.08.26.26 0 0 0 .06-.16v-1.24a.25.25 0 0 0-.06-.18.22.22 0 0 0-.17-.06h-5a.21.21 0 0 0-.16.06.24.24 0 0 0-.06.17v7a.2.2 0 0 0 .06.16.23.23 0 0 0 .16.05h5.06a.24.24 0 0 0 .17-.07.21.21 0 0 0 .07-.17v-1.26a.2.2 0 0 0-.2-.27zm13.35-5.49a.23.23 0 0 0-.08-.16.24.24 0 0 0-.16-.06h-1.72a.28.28 0 0 0-.16 0 .25.25 0 0 0-.1.14l-1.37 4.54-1.36-4.54a.24.24 0 0 0-.24-.19h-1.73a.22.22 0 0 0-.17.06.27.27 0 0 0-.07.16l-.72 7a.19.19 0 0 0 .22.22h1.41a.21.21 0 0 0 .25-.22l.44-3.86 1.13 3.88a.21.21 0 0 0 .07.12.19.19 0 0 0 .13.07h1.43v-.12l1.13-3.89.44 3.87a.21.21 0 0 0 .24.22H155a.18.18 0 0 0 .22-.2q-.18-1.76-.36-3.49t-.4-3.55zm9.42 1.59a3.74 3.74 0 0 0-.6-.78 3.82 3.82 0 0 0-.78-.6 3.92 3.92 0 0 0-.92-.38 3.82 3.82 0 0 0-2 0 3.92 3.92 0 0 0-.91.38 3.72 3.72 0 0 0-.77.6 3.89 3.89 0 0 0-.6.78 3.85 3.85 0 0 0-.38.92 3.91 3.91 0 0 0 0 2 3.76 3.76 0 0 0 .38.91 3.9 3.9 0 0 0 .6.77 3.83 3.83 0 0 0 4.63.6 3.89 3.89 0 0 0 .78-.6 3.75 3.75 0 0 0 .6-.77 3.85 3.85 0 0 0 .39-.91 3.86 3.86 0 0 0 0-2 3.93 3.93 0 0 0-.42-.92zm-1.55 2.7a1.94 1.94 0 0 1-.39.63 1.83 1.83 0 0 1-.6.42 2 2 0 0 1-1.52 0 1.83 1.83 0 0 1-.6-.42 1.93 1.93 0 0 1-.39-.63 2.21 2.21 0 0 1 0-1.55 2 2 0 0 1 .39-.63 1.86 1.86 0 0 1 .6-.42 1.94 1.94 0 0 1 1.52 0 1.85 1.85 0 0 1 .6.42 2 2 0 0 1 .39.63 2.2 2.2 0 0 1 0 1.53zm8.96-1.08a1.88 1.88 0 0 0 .33-.58 2 2 0 0 0 .12-.7 2.1 2.1 0 0 0-.17-.84 2.16 2.16 0 0 0-1.15-1.15 2.08 2.08 0 0 0-.83-.17h-3.17a.21.21 0 0 0-.16.06.24.24 0 0 0-.06.17v7a.2.2 0 0 0 .06.16.23.23 0 0 0 .16.05h3.46a2 2 0 0 0 .84-.18 2.25 2.25 0 0 0 .7-.49 2.34 2.34 0 0 0 .47-.71 2.17 2.17 0 0 0 .17-.86 2.26 2.26 0 0 0-.21-1 2.5 2.5 0 0 0-.56-.76zm-3.14-2h.92a.8.8 0 0 1 .3.06.74.74 0 0 1 .24.16.72.72 0 0 1 .15.23.7.7 0 0 1 .06.28.73.73 0 0 1-.06.29.72.72 0 0 1-.16.23.69.69 0 0 1-.24.15.89.89 0 0 1-.31.05h-.9v-1.45zm1.88 3.94a.87.87 0 0 1-.16.27.83.83 0 0 1-.25.19.67.67 0 0 1-.3.07h-1.17v-1.67h1.17a.65.65 0 0 1 .31.08.83.83 0 0 1 .25.19.88.88 0 0 1 .16.27.84.84 0 0 1 .06.3.87.87 0 0 1-.1.35zm5.53-5.37h-1.47a.2.2 0 0 0-.17.06.23.23 0 0 0-.06.16v7a.19.19 0 0 0 .22.22h1.47a.21.21 0 0 0 .25-.22v-7a.19.19 0 0 0-.08-.16.28.28 0 0 0-.16-.06zm7.15 5.66H180v-5.44a.2.2 0 0 0-.07-.16.24.24 0 0 0-.16-.06h-1.48a.21.21 0 0 0-.17.06.22.22 0 0 0-.06.16v7a.19.19 0 0 0 .22.22h4.46a.2.2 0 0 0 .16-.07.25.25 0 0 0 .06-.16v-1.31a.21.21 0 0 0-.06-.17.22.22 0 0 0-.19-.07zm7.23.05h-3.36v-1.28h2.5a.2.2 0 0 0 .16-.06.21.21 0 0 0 .05-.14v-1.08a.17.17 0 0 0-.06-.15.26.26 0 0 0-.16 0h-2.5v-1.24h3.24a.21.21 0 0 0 .17-.08.26.26 0 0 0 .06-.16v-1.24a.25.25 0 0 0-.06-.18.22.22 0 0 0-.17-.06h-5a.21.21 0 0 0-.16.06.24.24 0 0 0-.06.17v7a.2.2 0 0 0 .06.16.23.23 0 0 0 .16.05h5.06a.24.24 0 0 0 .17-.07.21.21 0 0 0 .07-.17v-1.26a.2.2 0 0 0-.17-.27zm12.56-3.9a3.72 3.72 0 0 0-.6-.78 3.79 3.79 0 0 0-.78-.6 3.9 3.9 0 0 0-.92-.38 3.82 3.82 0 0 0-2 0 3.92 3.92 0 0 0-.91.38 3.75 3.75 0 0 0-.77.6 3.85 3.85 0 0 0-.6.78 3.87 3.87 0 0 0-.39 3 3.73 3.73 0 0 0 .39.91 3.86 3.86 0 0 0 .6.77 3.82 3.82 0 0 0 .77.6 3.83 3.83 0 0 0 3.86 0 3.86 3.86 0 0 0 .78-.6 3.72 3.72 0 0 0 .6-.77 3.88 3.88 0 0 0 .39-.91 3.83 3.83 0 0 0 0-2 4 4 0 0 0-.42-1zm-1.55 2.7a1.93 1.93 0 0 1-.39.63 1.81 1.81 0 0 1-.6.42 1.88 1.88 0 0 1-.76.15 1.86 1.86 0 0 1-.76-.15 1.82 1.82 0 0 1-.6-.42 1.89 1.89 0 0 1-.39-.63 2.2 2.2 0 0 1 0-1.55 1.92 1.92 0 0 1 .39-.63 1.87 1.87 0 0 1 2.72 0 2 2 0 0 1 .39.63 2.21 2.21 0 0 1 .05 1.53zm8.92-4.51h-4.79a.18.18 0 0 0-.14.06.24.24 0 0 0-.06.17v7a.21.21 0 0 0 0 .14.2.2 0 0 0 .13.07h1.52a.2.2 0 0 0 .23-.21v-2.29h2.25a.19.19 0 0 0 .16-.08.27.27 0 0 0 .06-.16v-1.2a.2.2 0 0 0-.07-.17.24.24 0 0 0-.16-.05h-2.25v-1.54h3a.21.21 0 0 0 .17-.08.26.26 0 0 0 .06-.16v-1.24a.25.25 0 0 0-.06-.18.22.22 0 0 0-.05-.08zm6.86 0h-4.79a.18.18 0 0 0-.14.06.24.24 0 0 0-.06.17v7a.21.21 0 0 0 0 .14.2.2 0 0 0 .13.07h1.52a.2.2 0 0 0 .23-.21v-2.29h2.25a.19.19 0 0 0 .16-.08.27.27 0 0 0 .06-.16v-1.2a.2.2 0 0 0-.07-.17.24.24 0 0 0-.16-.05h-2.25v-1.54h3a.21.21 0 0 0 .17-.08.26.26 0 0 0 .06-.16v-1.24a.25.25 0 0 0-.06-.18.22.22 0 0 0-.05-.08zm7.14 5.71h-3.36v-1.28H223a.2.2 0 0 0 .16-.06.21.21 0 0 0 .05-.14v-1.08a.17.17 0 0 0-.06-.15.26.26 0 0 0-.16 0h-2.5v-1.24h3.24a.21.21 0 0 0 .17-.08.26.26 0 0 0 .06-.16v-1.24a.25.25 0 0 0-.06-.18.22.22 0 0 0-.17-.06h-5a.21.21 0 0 0-.16.06.24.24 0 0 0-.06.17v7a.2.2 0 0 0 .06.16.23.23 0 0 0 .16.05h5.06a.24.24 0 0 0 .17-.07.21.21 0 0 0 .07-.17v-1.26a.2.2 0 0 0-.16-.27zm8.01 1.22l-1.28-2.42a2.59 2.59 0 0 0 .5-.37 2.47 2.47 0 0 0 .39-.49 2.44 2.44 0 0 0 .26-.58 2.24 2.24 0 0 0 .09-.65 2.33 2.33 0 0 0-.19-.94 2.42 2.42 0 0 0-.53-.77 2.52 2.52 0 0 0-.79-.52 2.43 2.43 0 0 0-1-.19h-3.23a.2.2 0 0 0-.16.06.24.24 0 0 0-.06.17v7a.2.2 0 0 0 .06.16.23.23 0 0 0 .16.05h1.49a.2.2 0 0 0 .23-.21v-2.25h.81l1.21 2.29a.23.23 0 0 0 .09.13.25.25 0 0 0 .15 0h1.71a.21.21 0 0 0 .14 0 .15.15 0 0 0 .05-.12.35.35 0 0 0-.05-.17zm-2.1-4.17a.89.89 0 0 1-.15.27.8.8 0 0 1-.55.31h-1.23v-1.83h1.26a.82.82 0 0 1 .31.11.9.9 0 0 1 .24.21 1 1 0 0 1 .16.27.88.88 0 0 1 .05.3 1 1 0 0 1-.09.41zm8.45.83a3.32 3.32 0 0 0-.77-.46q-.45-.19-1-.37l-.48-.17a2 2 0 0 1-.35-.17.68.68 0 0 1-.21-.19.46.46 0 0 1 0-.48.49.49 0 0 1 .18-.16.87.87 0 0 1 .25-.09 1.65 1.65 0 0 1 .31 0 1.09 1.09 0 0 1 .32 0l.29.12.23.19.22.18.13.1a.22.22 0 0 0 .13 0 .24.24 0 0 0 .17-.08l.76-.82.1-.12a.23.23 0 0 0 0-.12.27.27 0 0 0-.07-.16 1.3 1.3 0 0 0-.18-.19l-.27-.21-.32-.21a3.25 3.25 0 0 0-.82-.33 3.69 3.69 0 0 0-.87-.1 3.78 3.78 0 0 0-1.09.15 2.54 2.54 0 0 0-.84.42 1.85 1.85 0 0 0-.54.65 1.89 1.89 0 0 0-.19.84 2.05 2.05 0 0 0 .15.79 2 2 0 0 0 .45.66 3.26 3.26 0 0 0 .75.54 7.35 7.35 0 0 0 1 .45l.32.11a2.43 2.43 0 0 1 .35.16 1.24 1.24 0 0 1 .29.22.39.39 0 0 1 .12.28.82.82 0 0 1 0 .26.54.54 0 0 1-.14.22.73.73 0 0 1-.27.15 1.35 1.35 0 0 1-.43.06 1.48 1.48 0 0 1-.53-.09 2.4 2.4 0 0 1-.5-.26l-.3-.23-.22-.19-.12-.09h-.09a.32.32 0 0 0-.17.07l-.87.83a.28.28 0 0 0-.12.19.33.33 0 0 0 .12.2 3.68 3.68 0 0 0 .55.5 4.32 4.32 0 0 0 .67.4 3.74 3.74 0 0 0 .73.27 3.08 3.08 0 0 0 .77.1 3.69 3.69 0 0 0 1.14-.17 2.9 2.9 0 0 0 .92-.49 2.29 2.29 0 0 0 .62-.76 2.2 2.2 0 0 0 .22-1 2 2 0 0 0-.18-.88 1.89 1.89 0 0 0-.32-.52z" transform="translate(-54.46 -127.3)" fill="#5d5558"/></svg>