<svg xmlns="http://www.w3.org/2000/svg" width="159" height="40"><g fill="#ff2a2a"><path d="M17.072 24.904h-3.016l-1.442-11.507-3.179 11.507H7.647L4.468 13.397 3.025 24.904H.009L2.172 9.222H5.92l2.621 9.508 2.834-9.508h3.534l2.163 15.682zm12.748-6.093c0 2.079-.493 3.669-1.478 4.772-.986 1.106-2.399 1.658-4.241 1.658-1.815 0-3.222-.569-4.221-1.703-.998-1.134-1.498-2.709-1.498-4.727V9.222h3.159V19.35c0 1.008.219 1.774.655 2.295.438.521 1.072.781 1.905.781.867 0 1.51-.254 1.931-.76.418-.509.629-1.282.629-2.316V9.222h3.16v9.589zm15.692 6.093h-2.997l-7.303-10.583v10.583h-2.996V9.222h2.996l7.303 10.544V9.222h2.997v15.682zm14.058-7.821c0 2.479-.739 4.401-2.214 5.769-1.477 1.369-3.542 2.052-6.196 2.052h-3.373V9.222h3.128c2.791 0 4.929.672 6.419 2.017 1.491 1.344 2.236 3.292 2.236 5.844zm-3.19-.019c0-1.62-.419-2.88-1.258-3.785-.84-.903-2.016-1.356-3.524-1.356h-.752v10.28h.752c1.503 0 2.676-.45 3.519-1.347.842-.896 1.263-2.161 1.263-3.792zm19.665 0c0 2.335-.739 4.282-2.22 5.841-1.48 1.557-3.313 2.336-5.5 2.336-2.186 0-4.02-.779-5.5-2.336-1.479-1.56-2.219-3.506-2.219-5.841 0-2.337.74-4.284 2.219-5.841 1.48-1.557 3.313-2.336 5.5-2.336 2.188 0 4.02.779 5.5 2.336 1.481 1.557 2.22 3.504 2.22 5.841zm-3.169 0c0-1.518-.421-2.756-1.265-3.718-.843-.962-1.938-1.442-3.287-1.442-1.354 0-2.452.48-3.295 1.442-.843.961-1.264 2.2-1.264 3.718 0 1.516.42 2.755 1.264 3.718.844.96 1.941 1.441 3.295 1.441 1.349 0 2.443-.48 3.287-1.441.844-.963 1.265-2.202 1.265-3.718zm6.505 7.84v-12.01h1.822v1.685a4.23 4.23 0 0 1 1.505-1.419c.625-.358 1.336-.538 2.135-.538.891 0 1.62.185 2.188.554.57.37.973.887 1.206 1.55.949-1.402 2.185-2.104 3.71-2.104 1.19 0 2.106.33 2.749.99.64.66.96 1.676.96 3.048v8.245h-2.024V17.34c0-.816-.065-1.401-.197-1.759s-.372-.647-.718-.866c-.348-.218-.754-.327-1.223-.327-.843 0-1.545.28-2.103.842-.559.563-.839 1.46-.839 2.697v6.978h-2.034V17.1c0-.905-.166-1.583-.498-2.035-.331-.453-.875-.678-1.629-.678-.572 0-1.103.151-1.589.453-.486.3-.838.742-1.059 1.323-.218.581-.328 1.417-.328 2.51v6.232h-2.034zm27.519-3.868l2.103.26c-.331 1.231-.946 2.184-1.845 2.861-.897.681-2.042 1.018-3.438 1.018-1.755 0-3.148-.54-4.179-1.621-1.029-1.081-1.545-2.6-1.545-4.554 0-2.021.523-3.589 1.562-4.704 1.04-1.116 2.392-1.675 4.048-1.675 1.607 0 2.92.547 3.938 1.64 1.018 1.094 1.527 2.632 1.527 4.615 0 .12-.004.3-.012.542h-8.958c.074 1.321.449 2.33 1.119 3.032.672.701 1.509 1.05 2.51 1.05.747 0 1.386-.194 1.911-.586.531-.391.949-1.017 1.259-1.878zm-6.687-3.292h6.71c-.093-1.009-.35-1.767-.771-2.272-.647-.785-1.489-1.176-2.523-1.176-.934 0-1.721.312-2.357.938-.638.626-.99 1.463-1.059 2.51zm19.139 7.16V23.39c-.762 1.188-1.881 1.785-3.36 1.785a4.728 4.728 0 0 1-2.641-.789c-.802-.528-1.424-1.267-1.864-2.212-.442-.946-.662-2.035-.662-3.264 0-1.199.199-2.286.6-3.262.397-.977.997-1.726 1.797-2.246.8-.52 1.693-.78 2.682-.78.723 0 1.368.153 1.934.458a4.071 4.071 0 0 1 1.38 1.193V8.324h2.025v16.581h-1.891zm-6.437-5.994c0 1.538.324 2.689.974 3.449.649.762 1.414 1.142 2.297 1.142.889 0 1.645-.362 2.266-1.091.623-.727.934-1.837.934-3.331 0-1.643-.315-2.85-.949-3.62-.634-.768-1.412-1.152-2.341-1.152-.906 0-1.661.37-2.27 1.108-.607.74-.911 1.904-.911 3.495zm11.538 5.994v-12.01h2.035v12.011h-2.035zm12.975-1.481c-.755.642-1.482 1.094-2.18 1.358a6.305 6.305 0 0 1-2.245.394c-1.321 0-2.333-.321-3.044-.965-.706-.645-1.062-1.469-1.062-2.472 0-.589.133-1.125.4-1.611a3.337 3.337 0 0 1 1.052-1.171 5.029 5.029 0 0 1 1.466-.668c.4-.105 1.003-.208 1.81-.304 1.645-.197 2.854-.431 3.63-.703.008-.278.011-.456.011-.531 0-.83-.19-1.414-.574-1.753-.522-.459-1.296-.69-2.319-.69-.957 0-1.666.168-2.121.503-.456.335-.793.929-1.011 1.782l-1.991-.271c.181-.853.478-1.541.894-2.064.413-.524 1.013-.928 1.797-1.21.784-.283 1.693-.424 2.728-.424 1.023 0 1.857.121 2.499.362.641.242 1.112.545 1.413.91.301.366.512.828.632 1.385.067.348.104.974.104 1.878v2.714c0 1.891.043 3.089.131 3.59.085.501.256.982.513 1.442h-2.125a4.166 4.166 0 0 1-.408-1.481zm-.173-4.546c-.737.3-1.848.558-3.324.769-.837.12-1.43.255-1.775.406a1.791 1.791 0 0 0-.804.662 1.749 1.749 0 0 0-.281.968c0 .543.204.995.613 1.355.412.364 1.014.544 1.806.544.784 0 1.482-.172 2.093-.513a3.175 3.175 0 0 0 1.345-1.41c.22-.458.328-1.138.328-2.036v-.745z"/><circle cx="125.646" cy="8.57" r="1.132"/><circle cx="131.711" cy="3.634" r="1.513"/><circle cx="140.209" cy="2.25" r="2.055"/><circle cx="149.926" cy="6.265" r="2.568"/><circle cx="155.653" cy="17.243" r="3.083"/><circle cx="151.488" cy="29.933" r="3.596"/><circle cx="138.021" cy="35.793" r="4.11"/></g><path d="M22.396 24.998a4.922 4.922 0 0 1-2.24-1.276c-.676-.67-1.115-1.437-1.442-2.516-.219-.723-.224-.854-.26-6.335l-.035-5.597h3.06l.03 5.597.028 5.596.228.493c.482 1.047 1.152 1.47 2.337 1.474 1.263.004 1.957-.44 2.388-1.53.156-.395.176-.975.203-6.033l.031-5.597h3.059l-.034 5.597c-.032 5.4-.041 5.623-.25 6.367-.559 1.999-1.865 3.334-3.68 3.762-.805.19-2.716.189-3.423-.002zm43.966-.048c-2.606-.675-4.688-2.807-5.438-5.567-.309-1.138-.309-3.498 0-4.636.595-2.191 2.12-4.106 4.007-5.035 2.007-.987 4.75-1.006 6.713-.046 1.614.79 3.035 2.325 3.728 4.03.816 2.01.816 4.729 0 6.737-.684 1.684-2.126 3.247-3.706 4.02-1.449.709-3.68.917-5.304.497zm2.817-2.766c.888-.164 1.599-.546 2.263-1.216 1.016-1.027 1.429-2.154 1.429-3.903 0-1.703-.389-2.81-1.35-3.85-.655-.707-1.461-1.128-2.472-1.29-2.524-.407-4.73 1.258-5.207 3.928-.172.966-.172 1.458 0 2.424.186 1.038.62 1.927 1.283 2.622.648.68 1.307 1.06 2.149 1.243.776.169 1.17.178 1.905.042z" opacity=".01" fill="#d5ed36" stroke-width=".099"/><path d="M66.362 24.95c-2.606-.675-4.69-2.809-5.437-5.567-.31-1.147-.312-3.505-.002-4.636.602-2.198 2.121-4.107 4.009-5.035 2.011-.99 4.744-1.009 6.712-.046 1.6.782 3.009 2.297 3.721 4.001.82 1.962.823 4.757.007 6.766-.684 1.684-2.126 3.247-3.706 4.02-1.448.709-3.68.917-5.304.497zm2.194-2.728a1.405 1.405 0 0 0-.444 0c-.122.024-.022.043.222.043s.344-.02.222-.043zm-.888-.094a.38.38 0 0 0-.246 0c-.068.027-.013.05.123.05s.191-.023.123-.05zm1.578 0a.38.38 0 0 0-.246 0c-.068.027-.013.05.123.05s.191-.023.123-.05zm2.638-1.611c0-.055-.02-.099-.043-.099-.024 0-.071.044-.105.099-.033.054-.014.098.044.098.057 0 .104-.044.104-.098zm-7.92-1.991c-.032-.079-.056-.056-.06.06-.005.103.019.162.052.129.032-.033.036-.118.007-.19zm-.101-.598c-.028-.068-.05-.012-.05.123 0 .136.022.191.05.123a.38.38 0 0 0 0-.246zm-.094-1.134c-.022-.15-.04-.027-.04.27 0 .3.018.421.04.272.023-.15.023-.393 0-.542zm9.068-.74c-.027-.068-.05-.012-.05.123 0 .136.023.191.05.124a.38.38 0 0 0 0-.247zm-8.974-.099c-.028-.067-.05-.012-.05.124 0 .135.022.19.05.123a.38.38 0 0 0 0-.247zm8.878-.388c-.032-.079-.055-.055-.06.06-.004.104.02.162.052.13.033-.034.036-.119.008-.19zm-8.778-.099c-.031-.078-.055-.055-.06.06-.004.104.02.162.053.13.032-.033.036-.118.007-.19zm7.034-2.743c0-.054-.047-.098-.105-.098-.057 0-.077.044-.043.098.033.055.08.1.104.1.024 0 .044-.045.044-.1zm-3.38-.75c-.033-.032-.118-.036-.19-.007-.078.031-.054.055.06.06.104.004.163-.02.13-.052zm1.63-.005a.38.38 0 0 0-.247 0c-.068.027-.013.05.123.05s.191-.023.123-.05zm-.691-.103a1.405 1.405 0 0 0-.444 0c-.122.023-.022.043.222.043s.344-.02.222-.043z" opacity=".01" fill="#d5ed36" stroke-width=".099"/><path d="M67.348 22.085c-1.534-.3-2.786-1.545-3.316-3.298-.246-.813-.246-2.631 0-3.444.569-1.882 1.841-3.06 3.599-3.333 2.377-.368 4.476 1.118 5.046 3.572.162.698.16 2.276-.003 2.965-.61 2.576-2.8 4.031-5.326 3.538z" opacity=".01" fill="#d5ed36" stroke-width=".099"/><path d="M66.362 24.95c-2.605-.675-4.683-2.802-5.439-5.567-.311-1.14-.311-3.497 0-4.636.773-2.827 2.984-5.033 5.634-5.619 1.05-.232 2.697-.212 3.7.044 2.265.578 4.172 2.257 5.108 4.495.82 1.962.823 4.757.007 6.766-.684 1.684-2.126 3.247-3.706 4.02-1.449.709-3.68.917-5.304.497zm2.817-2.766c.888-.164 1.599-.546 2.263-1.216 1.016-1.027 1.429-2.154 1.429-3.903 0-1.704-.389-2.81-1.352-3.851-.65-.703-1.45-1.118-2.476-1.288-2.51-.414-4.725 1.258-5.2 3.927-.173.966-.173 1.458 0 2.424.185 1.038.62 1.927 1.282 2.622.648.68 1.307 1.06 2.149 1.243.776.169 1.17.178 1.905.042zM79.38 18.89v-5.967h1.775V14.6l.616-.62c1.047-1.052 2.346-1.483 3.778-1.255 1.192.19 1.902.627 2.381 1.465.144.252.274.473.288.493.014.019.299-.258.634-.616 1.035-1.107 2.332-1.568 3.78-1.344 1.756.273 2.683 1.249 2.92 3.075.052.398.096 2.599.097 4.89l.003 4.167h-1.961l-.03-4.463c-.03-4.333-.037-4.476-.244-4.924-.377-.815-1.366-1.243-2.462-1.065-.985.16-1.707.712-2.127 1.625-.224.487-.228.551-.257 4.66l-.03 4.167H86.59l-.03-4.413-.03-4.414-.259-.551c-.302-.645-.678-.946-1.334-1.069-.816-.152-1.942.144-2.537.668-.314.276-.648.876-.82 1.47-.136.473-.17 1.21-.204 4.438l-.04 3.871H79.38z" opacity=".01" fill="#d5ed36" stroke-width=".099"/><path d="M79.38 18.89v-5.967h1.775V14.6l.616-.625c1.032-1.047 2.34-1.48 3.778-1.25 1.192.19 1.902.627 2.381 1.465.144.252.274.473.288.493.014.019.299-.258.634-.616 1.035-1.107 2.332-1.568 3.78-1.344 1.756.273 2.683 1.249 2.92 3.075.052.398.096 2.599.097 4.89l.003 4.167h-1.961l-.03-4.463c-.03-4.333-.037-4.476-.244-4.924-.377-.815-1.366-1.243-2.462-1.065-.985.16-1.707.712-2.127 1.625-.224.487-.228.551-.257 4.66l-.03 4.167H86.59l-.03-4.413-.03-4.414-.259-.551c-.302-.645-.678-.946-1.334-1.069-.816-.152-1.942.144-2.537.668-.314.276-.648.876-.82 1.47-.136.473-.17 1.21-.204 4.438l-.04 3.871H79.38z" opacity=".01" fill="#d5ed36" stroke-width=".099"/><path d="M.115 24.454l1.071-7.794 1.017-7.386h1.845c1.672 0 1.85.016 1.895.172.226.77 2.527 9.198 2.527 9.255 0 .326.327-.684 1.533-4.725l1.388-4.653 1.735-.027 1.736-.027.06.372c.033.205.503 3.612 1.045 7.572.542 3.96 1.008 7.3 1.036 7.421l.05.222h-2.936l-.05-.271a539.97 539.97 0 0 1-.726-5.72c-.372-2.997-.698-5.45-.726-5.449-.028 0-.761 2.574-1.63 5.72l-1.577 5.72h-1.72l-.149-.518c-.081-.284-.771-2.78-1.533-5.547-1.3-4.72-1.55-5.568-1.576-5.326-.005.054-.332 2.628-.725 5.72l-.715 5.622-1.464.027-1.465.028z" opacity=".01" fill="#00f" stroke-width=".099"/><path d="M.942 18.736c.456-3.305.936-6.767 1.068-7.693l.238-1.683h3.634l1.25 4.586c.687 2.522 1.295 4.667 1.35 4.767.057.1.735-1.941 1.507-4.536l1.404-4.719 1.709-.057 1.709-.056.112.648c.062.357.51 3.578.995 7.158.485 3.58.925 6.753.978 7.051l.095.543h-2.88l-.643-5.277c-.7-5.75-.774-6.186-.994-5.752-.078.153-.8 2.701-1.604 5.662l-1.463 5.383-.873-.057-.873-.058-1.249-4.536c-1.685-6.126-1.846-6.665-1.953-6.558-.075.075-1.455 10.515-1.46 11.045-.002.081-.651.148-1.444.148H.114zm20.849 5.999c-1.284-.508-2.5-1.839-2.947-3.224-.259-.804-.342-2.131-.413-6.58l-.09-5.571h3.197v5.69c0 5.597.007 5.703.45 6.362.962 1.434 3.266 1.434 4.228 0 .443-.66.45-.765.45-6.361V9.36h3.2l-.087 5.67c-.08 5.226-.121 5.757-.514 6.764-.457 1.172-1.471 2.29-2.599 2.865-1.075.549-3.582.588-4.875.076zm10.595-7.683V9.36l1.43.006 1.43.007 3.255 4.736c1.79 2.605 3.451 4.976 3.691 5.27l.437.533.007-5.276.007-5.276h2.762v15.385h-2.891L38.88 19.48l-3.634-5.266-.052 5.266-.053 5.265h-2.755zm15.583-.022V9.318l2.91.086c2.406.072 3.104.163 4.043.53 1.765.687 2.963 1.75 3.73 3.31.64 1.298.658 1.405.658 3.805 0 2.248-.046 2.568-.513 3.564-.677 1.443-1.503 2.355-2.747 3.032-1.575.857-2.784 1.096-5.566 1.098l-2.515.003zm6.155 4.606c1.671-.891 2.46-2.666 2.283-5.136-.205-2.857-1.9-4.562-4.543-4.572l-1.134-.004v5.095c0 2.803.058 5.154.13 5.225.263.263 2.364-.128 3.264-.608zm12.048 3.23c-2.054-.673-3.834-2.255-4.759-4.229-.48-1.025-.525-1.327-.525-3.589 0-2.386.022-2.513.64-3.768.77-1.566 2.182-2.951 3.755-3.686.972-.453 1.387-.526 3.002-.528 1.695-.002 1.996.057 3.156.613 2.414 1.159 3.973 3.282 4.39 5.979.578 3.732-1.182 7.312-4.328 8.8-1.385.655-3.974.853-5.331.408zm4.278-3.08c2.546-1.306 3.312-5.354 1.52-8.036-.842-1.258-1.971-1.826-3.635-1.826-1.599 0-2.344.322-3.328 1.44-.946 1.075-1.259 2.004-1.259 3.736 0 2.626 1.192 4.42 3.335 5.014 1.07.298 2.4.169 3.367-.327z" fill="#00f" stroke="#004e9a" stroke-width=".02" stroke-opacity=".718"/></svg>