<svg xmlns="http://www.w3.org/2000/svg" xmlns:xlink="http://www.w3.org/1999/xlink" id="Ebene_1" viewBox="0 0 300 80"><style id="style4485">.st1,.st2{clip-path:url(#SVGID_4_);fill:#30ace3}.st2{fill:#fff}</style><g id="logo" stroke="#30ace3" stroke-opacity="0"><g id="g4553"><defs id="defs4488"><path id="SVGID_1_" d="M5 6h256.4v70H5z"/></defs><clipPath id="SVGID_2_"><use xlink:href="#SVGID_1_" id="use4490" overflow="visible"/></clipPath><g clip-path="url(#SVGID_2_)" id="g4551"><defs id="defs4494"><path id="SVGID_3_" d="M5 6h256.4v70H5z"/></defs><clipPath id="SVGID_4_"><use xlink:href="#SVGID_3_" id="use4496" overflow="visible"/></clipPath><path class="st1" d="M68.7 72.6v3.1h-1.6V67H70c.6 0 1.1.1 1.5.2.4.1.8.3 1.1.6.3.2.5.5.6.9.1.3.2.7.2 1.1 0 .4-.1.8-.2 1.2-.1.3-.3.6-.6.9-.3.3-.6.4-1 .6-.4.1-.9.2-1.5.2h-1.4zm0-1.3H70c.3 0 .6 0 .8-.1.2-.1.4-.2.5-.3.1-.1.3-.3.3-.5.1-.2.1-.4.1-.7 0-.2 0-.4-.1-.6-.1-.2-.2-.3-.3-.5-.1-.1-.3-.2-.5-.3-.2-.1-.5-.1-.8-.1h-1.2v3.1z" clip-path="url(#SVGID_4_)" id="path4499"/><path class="st1" d="M80.5 75.7h-1.2c-.1 0-.3 0-.3-.1-.1-.1-.2-.2-.2-.3l-.8-1.8h-3.6l-.6 1.8c0 .1-.1.2-.2.3-.1.1-.2.1-.3.1H72l3.4-8.7H77l3.5 8.7zm-5.6-3.3h2.8l-1.1-2.9c0-.1-.1-.3-.2-.5s-.1-.4-.2-.6c-.1.2-.1.4-.2.6-.1.2-.1.3-.2.5l-.9 2.9z" clip-path="url(#SVGID_4_)" id="path4501"/><path class="st1" d="M82.2 72.3v3.4h-1.6V67h2.6c.6 0 1.1.1 1.5.2.4.1.8.3 1 .5.3.2.5.5.6.8.1.3.2.6.2 1 0 .3 0 .6-.1.8-.1.3-.2.5-.4.7l-.6.6c-.2.2-.5.3-.8.4.2.1.4.3.5.5l2.2 3.2h-1.5c-.1 0-.3 0-.4-.1-.1-.1-.2-.1-.2-.2l-1.8-2.8c-.1-.1-.1-.2-.2-.2s-.2-.1-.4-.1h-.6zm0-1.2h1c.3 0 .6 0 .8-.1l.6-.3c.1-.1.3-.3.3-.5.1-.2.1-.4.1-.6 0-.4-.1-.8-.4-1-.3-.2-.7-.4-1.3-.4h-1v2.9z" clip-path="url(#SVGID_4_)" id="path4503"/><path class="st1" clip-path="url(#SVGID_4_)" id="polygon4505" d="M93.9 67v1.3h-2.6v7.4h-1.7v-7.4H87V67z"/><path class="st1" d="M103.9 71.3c0 .6-.1 1.2-.3 1.8-.2.5-.5 1-.9 1.4-.4.4-.8.7-1.4.9-.5.2-1.1.3-1.8.3s-1.3-.1-1.8-.3c-.5-.2-1-.5-1.4-.9s-.7-.9-.9-1.4c-.2-.5-.3-1.1-.3-1.8 0-.6.1-1.2.3-1.8.2-.5.5-1 .9-1.4.4-.4.8-.7 1.4-.9.5-.2 1.1-.3 1.8-.3s1.3.1 1.8.3c.5.2 1 .5 1.4.9.4.4.7.9.9 1.4.2.6.3 1.2.3 1.8m-1.6 0c0-.5-.1-.9-.2-1.3s-.3-.7-.5-1c-.2-.3-.5-.5-.9-.6-.3-.1-.7-.2-1.1-.2-.4 0-.8.1-1.1.2-.3.1-.6.3-.9.6-.2.3-.4.6-.5 1-.1.4-.2.8-.2 1.3s.1.9.2 1.3.3.7.5 1c.2.3.5.5.9.6.3.1.7.2 1.1.2.4 0 .8-.1 1.1-.2.3-.1.6-.3.9-.6.2-.3.4-.6.5-1 .1-.4.2-.8.2-1.3" clip-path="url(#SVGID_4_)" id="path4507"/><path class="st1" clip-path="url(#SVGID_4_)" id="polygon4509" d="M109.9 67v1.3H106v2.5h3.3v1.3H106v3.6h-1.6V67z"/><path class="st2" d="M87.9 27.1c-.3.4-.5.6-.7.8-.3.2-.6.3-1 .3s-.7-.1-1.2-.4c-.5-.3-.9-.5-1.5-.8-.5-.4-1.2-.5-1.8-.8-.7-.3-1.5-.4-2.4-.4-1.5 0-2.6.4-3.4 1-.7.6-1.1 1.5-1.1 2.6 0 .7.2 1.3.6 1.7.5.5 1 .8 1.7 1.2.7.4 1.5.6 2.5.9.9.3 1.9.5 2.8.9 1 .4 1.9.7 2.8 1.2.9.5 1.7 1.1 2.5 1.7.7.7 1.3 1.5 1.7 2.6.5 1.1.6 2.3.6 3.7 0 1.6-.3 3.1-.8 4.6-.5 1.5-1.4 2.6-2.5 3.6s-2.4 1.8-3.9 2.5c-1.5.6-3.3.9-5.3.9-1.1 0-2.2-.1-3.3-.4-1.1-.2-2.2-.5-3.3-.9-1.1-.4-2-.9-3-1.5-.9-.5-1.7-1.2-2.4-1.8l2.4-3.7c.2-.3.5-.5.7-.7.3-.2.6-.3 1-.3.5 0 1 .2 1.5.5s1 .6 1.6 1c.6.4 1.3.7 2.1 1 .8.3 1.7.5 2.8.5 1.5 0 2.6-.4 3.4-1 .8-.6 1.2-1.6 1.2-3.1 0-.8-.2-1.5-.6-2-.5-.5-1-.9-1.7-1.3s-1.5-.6-2.5-.9-1.9-.5-2.8-.8c-1-.3-1.9-.7-2.8-1.2-.9-.5-1.7-1.1-2.5-1.8s-1.3-1.6-1.7-2.7c-.5-1.1-.6-2.5-.6-4.1 0-1.3.3-2.6.8-3.8.5-1.3 1.3-2.4 2.3-3.3 1-1 2.3-1.7 3.7-2.4 1.5-.5 3.2-.9 5.1-.9 1.1 0 2.1.1 3.1.3 1 .2 2 .5 2.9.7.9.4 1.7.7 2.6 1.2.8.5 1.5 1 2.1 1.5l-1.7 4.1z" clip-path="url(#SVGID_4_)" id="path4511"/><path class="st2" d="M110.1 49c1.1 0 2.1-.1 3-.3.8-.2 1.6-.5 2.5-.7v-5.4h-3.5c-.5 0-.9-.1-1.2-.4-.3-.3-.5-.6-.5-1v-4.5h12.4v14.7c-.9.6-1.8 1.2-2.8 1.6-1 .5-2 .8-3.1 1.2-1.1.3-2.3.5-3.5.6-1.2.1-2.6.2-4 .2-2.6 0-4.9-.5-7.1-1.4-2.2-.9-4-2.2-5.6-3.7-1.5-1.5-2.8-3.5-3.7-5.6-.9-2.2-1.4-4.6-1.4-7.1s.5-5 1.3-7.2 2.1-4 3.7-5.6c1.6-1.5 3.6-2.8 5.8-3.6 2.3-.9 4.8-1.3 7.7-1.3 1.5 0 2.8.1 4.1.4 1.3.3 2.5.5 3.6 1s2.1.9 2.9 1.5c.9.5 1.7 1.2 2.4 1.8l-2.4 3.6c-.2.4-.5.6-.8.8-.3.2-.6.3-1 .3-.5 0-1-.2-1.5-.5-.6-.4-1.3-.7-1.8-1-.5-.3-1.2-.5-1.7-.6-.5-.2-1.2-.3-1.8-.4-.6-.1-1.4-.1-2.2-.1-1.5 0-2.9.3-4.1.8-1.2.5-2.3 1.3-3.1 2.3-.8 1-1.5 2.1-2 3.5s-.7 2.9-.7 4.6c0 1.8.3 3.5.7 4.9.5 1.5 1.2 2.6 2.1 3.6.9 1 2 1.7 3.2 2.3 1.4.4 2.7.7 4.1.7" clip-path="url(#SVGID_4_)" id="path4513"/><path class="st2" d="M146.2 40.8c.3.6.5 1.4.8 2 .3-.7.5-1.4.8-2 .3-.6.6-1.3.9-1.9l8.9-17.6c.2-.3.4-.5.5-.7.2-.2.4-.3.5-.4.2-.1.5-.1.7-.1h7.1v34.7h-7.1V34.9c0-1 .1-2 .2-3.2l-9.2 17.9c-.3.5-.6 1-1.2 1.3-.5.3-1 .5-1.6.5h-1.1c-.6 0-1.2-.2-1.6-.5-.5-.3-.9-.7-1.2-1.3l-9.3-17.9c.1.5.1 1.1.2 1.6 0 .5.1 1.1.1 1.5v20h-7.1V20.1h7.1c.3 0 .5 0 .7.1.2.1.4.2.5.4.2.2.4.4.5.7l8.9 17.7c.5.5.7 1.1 1 1.8" clip-path="url(#SVGID_4_)" id="path4515"/><path class="st1" d="M177 41.9v12.9h-4.7V20.1h10.3c2.2 0 4.1.3 5.7.7 1.6.5 3 1.2 4.1 2.1 1.1.9 1.8 2 2.4 3.5.5 1.3.8 2.7.8 4.5 0 1.5-.3 3.1-.8 4.5s-1.4 2.5-2.5 3.5c-1.1.9-2.4 1.7-4.1 2.3-1.5.5-3.5.8-5.6.8H177zm0-3.7h5.6c1.4 0 2.5-.2 3.6-.5 1-.4 1.8-.8 2.6-1.5.7-.6 1.2-1.4 1.5-2.3.4-.9.5-1.8.5-3 0-2.2-.6-4-2-5.2-1.4-1.2-3.5-1.8-6.2-1.8H177v14.3z" clip-path="url(#SVGID_4_)" id="path4517"/><path class="st1" d="M204.9 40.4v14.5h-4.7V20.1h9.8c2.2 0 4.1.2 5.7.6 1.5.5 3 1.1 4 1.9 1 .8 1.8 1.8 2.3 3.1.5 1.2.7 2.5.7 4 0 1.2-.2 2.4-.5 3.5-.4 1.1-.9 2-1.6 2.8-.7.8-1.6 1.5-2.6 2.1-1 .5-2.2 1-3.6 1.4.5.4 1.1.8 1.5 1.5L226 54.7h-4.2c-.8 0-1.5-.4-1.8-1l-9.2-12.3c-.3-.4-.5-.6-.9-.8-.4-.2-.8-.3-1.5-.3l-3.5.1zm0-3.4h4.9c1.4 0 2.6-.2 3.6-.5 1-.4 1.9-.8 2.6-1.4.7-.6 1.2-1.3 1.5-2.1.4-.8.5-1.7.5-2.7 0-2-.6-3.6-2-4.7-1.4-1-3.5-1.5-6.1-1.5h-5.2l.2 12.9z" clip-path="url(#SVGID_4_)" id="path4519"/><path class="st1" d="M261.4 37.5c0 2.6-.4 5-1.2 7.1-.8 2.1-1.9 4.1-3.6 5.6-1.5 1.5-3.4 2.7-5.5 3.6-2.1.8-4.5 1.3-7 1.3s-4.9-.5-7-1.3c-2.1-.8-3.9-2-5.4-3.6-1.5-1.5-2.6-3.5-3.6-5.6-.8-2.2-1.2-4.6-1.2-7.1 0-2.6.4-5 1.2-7.1.8-2.2 1.9-4.1 3.6-5.6 1.5-1.5 3.4-2.7 5.4-3.7 2.1-.8 4.5-1.3 7-1.3 2.6 0 4.9.5 7 1.3 2.1.8 3.9 2.1 5.5 3.7 1.5 1.5 2.6 3.5 3.6 5.6.8 2.1 1.2 4.5 1.2 7.1m-4.8 0c0-2.1-.3-4.1-.8-5.7-.5-1.6-1.4-3.2-2.5-4.4-1.1-1.2-2.4-2-3.9-2.6-1.5-.6-3.3-.9-5.1-.9-1.8 0-3.6.3-5.1.9-1.5.6-2.7 1.5-3.9 2.6-1.1 1.2-1.9 2.6-2.5 4.4-.5 1.6-.8 3.6-.8 5.7s.3 4.1.8 5.7c.5 1.6 1.4 3.2 2.5 4.3 1.1 1.2 2.4 2 3.9 2.6 1.5.6 3.3.9 5.1.9 1.8 0 3.6-.3 5.1-.9 1.5-.6 2.7-1.5 3.9-2.6 1.2-1.2 1.8-2.6 2.5-4.3.4-1.6.8-3.6.8-5.7" clip-path="url(#SVGID_4_)" id="path4521"/><path class="st2" d="M57.8 57.8c.5-4.3 5.1-12.3 6.6-14.8.1-.2-.1-.4-.3-.3C56 48.4 50.5 58 50.5 58c-5.9 1.2-12.2 2.9-14.7.8-3.3-3-2.1-9-.2-12.2.4-.5.9-1.4 1.4-1.9l.5-.6c4.6 1.2 8.7 7.6 9.7 9.4.1.2.4.1.4-.1 1.2-8.2-3.1-15.4-4.1-16.8 8-12.1 8.6-21.5 8.1-29-.1-1.1-1.5-1.7-2.7-1.5C32 8.8 24.3 21.9 22.6 25.3c-3.8.1-11.5 1.2-17.6 7.7-.1.1 0 .3.2.3 1.8-.1 8.7-.4 12.1 3.4-.1.5-.6 3.1-.8 4.2-2.9 14.5.4 24.4 13.7 26.2 5.3.7 14.9-1.8 21.3-5.9 4.5 3.9 9.2 5.4 11 5.6.2 0 .3-.2.1-.3-4.5-2.2-4.9-7.7-4.8-8.7M32.2 23.9c.1-.9 0-1.6 0-2 0-.2-.1-.4-.3-.1-.5.5-1.1 1.6-2.4 2.7-.9.2-1.7.5-2.6 1-.5.2 1.6-2.5 2.5-3.2.1.4.2.8.3 1 .1.1.1.2.3 0 .4-.5.5-1.5 1.8-2.9.3-.2.5-.4.8-.5.1.5.3 1.1.4 1.4.1.1.1.2.3 0 .4-.6.5-1.8 2.2-3.3 0 0 .5 2 .6 2.5.1.2.2.3.4 0 .5-.9.9-2.4 2.8-4.3-.4 1.3-.3 3.1-.2 3.7 0 .2.1.4.3.1.5-.9 3.2-3.6 3.7-3.5-.4 2.6-1.2 3.7-1.6 4.7-.1.2 0 .3.2.2.5-.2 1.8-.6 2.8-1.4v.1c-.9 2-1.8 3.1-2.5 3.9-.1.2-.1.3.1.3.4 0 1.3-.1 2-.4-.6 1.8-1.5 2.6-2 3.2-.1.1-.1.2.1.2.3 0 .9-.1 1.4-.2 0 .1-1.4 2-1.6 2.6-.1.1-.1.2.1.2s.5-.1.9-.1c-.4 1.4-1.9 4.4-1.9 3.8 0-1.5-.4-2.2-.6-3.4.4-.6.6-1.2 1-1.6.1-.2 0-.3-.2-.2-.3.1-.6.3-1.2.5.4-1.4 1.1-2.1 1.4-2.8.1-.2 0-.3-.2-.2-.5.1-1.5.5-2.4 1.1.4-1.5 1.1-2.2 1.5-2.9.1-.2 0-.3-.2-.2-.8.2-2.4.9-3.3 1.4.2-1.2.2-2.7.1-3.3 0-.2-.1-.4-.3-.1-.5.5-1 1.5-2.1 2.6.1-1.1.1-2.2 0-2.7 0-.2-.1-.4-.3-.1-.6.4-.9 1.2-2.1 2.2" clip-path="url(#SVGID_4_)" id="path4523"/><path class="st2" clip-path="url(#SVGID_4_)" id="polygon4525" d="M113.8 67h3v8.7h4.1V67h2.9v-3.5h-10z"/><path class="st2" d="M140.4 63.5l-4.6 11.7-2.8-4.5c.7-.3 1.2-.7 1.6-1.3.4-.6.5-1.2.5-2s-.1-1.4-.4-1.9c-.3-.5-.7-.9-1.1-1.2-.5-.3-1-.5-1.6-.6-.6-.1-1.2-.2-1.8-.2H125v12.1h4v-4.3h.1l2.3 4.3h8.6l.6-1.8h3.8l.6 1.8h4.4l-4.7-12.1h-4.3zm-9.5 4.7c-.1.1-.2.2-.4.3-.1.1-.3.1-.5.1h-1.2v-1.9h1.4c.1 0 .3.1.4.1l.3.3c.1.1.1.3.1.5.1.3 0 .4-.1.6m10.6 2.6l1-3 1 3h-2z" clip-path="url(#SVGID_4_)" id="path4527"/><path class="st2" clip-path="url(#SVGID_4_)" id="polygon4529" d="M150.1 75.7h4v-4.1h3.6v-3.4H154V67h4.2v-3.5h-8.1z"/><path class="st2" clip-path="url(#SVGID_4_)" id="polygon4531" d="M159.8 75.7h4v-4.1h3.7v-3.4h-3.7V67h4.2v-3.5h-8.2z"/><path class="st2" clip-path="url(#SVGID_4_)" id="rect4533" fill-opacity=".99" d="M169.6 63.5h4.1v12.1h-4.1z"/><path class="st2" d="M180.3 67.7c.2-.2.5-.4.8-.5.3-.1.6-.2 1-.2s.8.1 1.1.2.6.4.9.7l2.5-3c-.6-.5-1.3-.9-2.1-1.2-.8-.3-1.7-.5-2.7-.5-.9 0-1.8.2-2.6.5s-1.5.7-2.1 1.3c-.6.6-1.1 1.2-1.4 2-.3.8-.5 1.7-.5 2.6 0 1 .2 1.8.5 2.6s.8 1.5 1.4 2c.6.6 1.3 1 2.1 1.3.8.3 1.7.5 2.6.5 1 0 1.9-.2 2.7-.5.8-.3 1.5-.8 2-1.3l-2.5-3c-.2.3-.5.5-.8.7-.3.2-.7.3-1.2.3-.3 0-.6-.1-.9-.2-.3-.1-.6-.3-.8-.5-.2-.2-.4-.5-.5-.8-.1-.3-.2-.7-.2-1.1 0-.4.1-.8.2-1.1.1-.3.3-.6.5-.8" clip-path="url(#SVGID_4_)" id="path4535"/><path class="st2" d="M196.2 67.1c0-.6-.1-1.2-.3-1.6-.2-.4-.5-.8-.9-1.1-.4-.3-.9-.5-1.4-.6-.6-.1-1.2-.2-1.9-.2h-4v12.1h2.2v-5h1.7c.6 0 1.2-.1 1.8-.2.6-.1 1.1-.3 1.5-.6.4-.3.8-.6 1-1.1.2-.5.3-1.1.3-1.7m-2.3.8c-.1.2-.3.4-.6.5-.3.1-.5.2-.9.3-.3.1-.7.1-1 .1h-1.5v-3.5h1.6c.3 0 .7 0 1 .1.3 0 .6.1.8.2.2.1.4.3.6.5.1.2.2.5.2.9s-.1.7-.2.9" clip-path="url(#SVGID_4_)" id="path4537" fill-opacity=".995"/><path class="st2" d="M200.8 63.5l-5.3 12.1h2.4l1.1-2.8h5.3l1.1 2.8h2.5l-5.2-12.1h-1.9zm-1 7.5l1.9-4.9 1.9 4.9h-3.8z" clip-path="url(#SVGID_4_)" id="path4539"/><path class="st2" d="M216.8 69.2c.5-.6.7-1.3.7-2.1 0-.6-.1-1.2-.4-1.6-.3-.4-.6-.8-1-1.1-.4-.3-.9-.5-1.4-.6-.5-.1-1.1-.2-1.7-.2h-4.2v12.1h2.2v-5.1h1.6l2.8 5.1h2.6l-3.2-5.4c.9-.2 1.5-.6 2-1.1m-3.1-.5c-.3 0-.6.1-.9.1H211v-3.4h2c.3 0 .6 0 .8.1.3 0 .6.1.8.3.2.1.4.3.6.5.1.2.2.5.2.8 0 .4-.1.7-.2.9-.2.2-.4.4-.6.5-.3.1-.5.2-.9.2" clip-path="url(#SVGID_4_)" id="path4541" fill-opacity=".99"/><path class="st2" clip-path="url(#SVGID_4_)" id="polygon4543" d="M218 65.4h3.7v10.3h2.2V65.4h3.7v-1.9H218z"/><path class="st2" clip-path="url(#SVGID_4_)" id="polygon4545" d="M237.4 72.6h-.1l-5.6-9.1h-2.9v12.2h2.2v-9.4l5.8 9.4h2.7V63.5h-2.1z"/><path class="st2" clip-path="url(#SVGID_4_)" id="polygon4547" fill-opacity=".965" d="M244.2 70.3h5.5v-1.8h-5.5v-3.1h5.8v-1.9h-8v12.2h8.4v-2h-6.2z"/><path class="st2" d="M258.2 70.3c.9-.2 1.5-.6 2-1.1.5-.6.7-1.3.7-2.1 0-.6-.1-1.2-.4-1.6-.3-.4-.6-.8-1-1.1-.4-.3-.9-.5-1.4-.6-.5-.1-1.1-.2-1.7-.2h-4.2v12.1h2.2v-5.1h1.6l2.8 5.1h2.6l-3.2-5.4zm-1.1-1.6c-.3 0-.6.1-.9.1h-1.8v-3.4h2c.3 0 .6 0 .8.1.3 0 .6.1.8.3.2.1.4.3.6.5.1.2.2.5.2.8 0 .4-.1.7-.2.9-.2.2-.4.4-.6.5-.3.1-.5.2-.9.2" clip-path="url(#SVGID_4_)" id="path4549" fill-opacity=".975"/></g></g></g></svg>