<svg xmlns="http://www.w3.org/2000/svg" height="71.67" width="24.162"><path d="M13.918.65l9.585 9.586a2.265 2.265 0 0 1 0 3.195l-.8.8a2.266 2.266 0 0 1-3.194 0l-7.315-7.314-7.315 7.315a2.266 2.266 0 0 1-3.194 0l-.8-.801a2.265 2.265 0 0 1 0-3.195L10.472.65a2.24 2.24 0 0 1 1.723-.647 2.247 2.247 0 0 1 1.723.647zm-3.674 70.369L.66 61.434a2.265 2.265 0 0 1 0-3.195l.8-.801a2.266 2.266 0 0 1 3.194 0l7.315 7.315 7.315-7.315a2.266 2.266 0 0 1 3.194 0l.8.8a2.265 2.265 0 0 1 0 3.196l-9.587 9.585a2.24 2.24 0 0 1-1.723.647 2.247 2.247 0 0 1-1.723-.647z" fill="#515151"/></svg>