<?xml version="1.0" encoding="UTF-8" standalone="no"?>
<svg
   xmlns:dc="http://purl.org/dc/elements/1.1/"
   xmlns:cc="http://creativecommons.org/ns#"
   xmlns:rdf="http://www.w3.org/1999/02/22-rdf-syntax-ns#"
   xmlns:svg="http://www.w3.org/2000/svg"
   xmlns="http://www.w3.org/2000/svg"
   xmlns:sodipodi="http://sodipodi.sourceforge.net/DTD/sodipodi-0.dtd"
   xmlns:inkscape="http://www.inkscape.org/namespaces/inkscape"
   enable-background="new 0 0 32 32"
   height="71.669525"
   id="Layer_1"
   version="1.1"
   viewBox="0 0 24.162313 71.669524"
   width="24.162313"
   xml:space="preserve"
   sodipodi:docname="up_down.svg"
   inkscape:version="0.92.1 r15371"><metadata
     id="metadata9"><rdf:RDF><cc:Work
         rdf:about=""><dc:format>image/svg+xml</dc:format><dc:type
           rdf:resource="http://purl.org/dc/dcmitype/StillImage" /><dc:title></dc:title></cc:Work></rdf:RDF></metadata><defs
     id="defs7" /><sodipodi:namedview
     pagecolor="#ffffff"
     bordercolor="#666666"
     borderopacity="1"
     objecttolerance="10"
     gridtolerance="10"
     guidetolerance="10"
     inkscape:pageopacity="0"
     inkscape:pageshadow="2"
     inkscape:window-width="1920"
     inkscape:window-height="1016"
     id="namedview5"
     showgrid="false"
     inkscape:zoom="7.375"
     inkscape:cx="-33.048699"
     inkscape:cy="14.089191"
     inkscape:window-x="-8"
     inkscape:window-y="-8"
     inkscape:window-maximized="1"
     inkscape:current-layer="Layer_1"
     fit-margin-top="0"
     fit-margin-left="0"
     fit-margin-right="0"
     fit-margin-bottom="0" /><path
     d="m 13.918064,0.65074383 9.585,9.58499917 c 0.879,0.879 0.879,2.317 0,3.195 l -0.8,0.801 c -0.877,0.878 -2.316,0.878 -3.194,0 l -7.315,-7.3149991 -7.3150005,7.3149991 c -0.878,0.878 -2.317,0.878 -3.194,0 l -0.80000005,-0.801 c -0.87900004,-0.878 -0.87900004,-2.316 0,-3.195 L 10.472064,0.65074383 c 0.471,-0.472 1.103,-0.682 1.723,-0.647 0.617,-0.035 1.25,0.175 1.723,0.647 z"
     id="path2"
     inkscape:connector-curvature="0"
     style="fill:#515151" /><path
     inkscape:connector-curvature="0"
     style="fill:#515151"
     d="M 10.24425,71.018783 0.65925001,61.433782 c -0.87900002,-0.879 -0.87900002,-2.317 0,-3.195 l 0.79999999,-0.801 c 0.877,-0.878 2.316,-0.878 3.194,0 l 7.315,7.315001 7.315001,-7.315001 c 0.878,-0.878 2.317,-0.878 3.194,0 l 0.8,0.801 c 0.879,0.878 0.879,2.316 0,3.195 l -9.587001,9.585001 c -0.471,0.472 -1.103,0.682 -1.723,0.647 -0.617,0.035 -1.25,-0.175 -1.723,-0.647 z"
     id="path2-4" /></svg>