<svg width="106" height="23" viewBox="0 0 106 23" xmlns="http://www.w3.org/2000/svg"><title>logo</title><g fill="none" fill-rule="evenodd"><path d="M97.983 9.022c-1.54 0-2.985.624-4.074 1.757a5.984 5.984 0 0 0-1.716 4.206 5.978 5.978 0 0 0 1.69 4.214c1.09 1.148 2.537 1.781 4.083 1.785h.017c1.485 0 2.896-.59 3.975-1.662 0-.002.002-.002.003-.004a5.962 5.962 0 0 0 1.812-4.299 5.968 5.968 0 0 0-1.786-4.31C100.909 9.624 99.494 9.026 98 9.022h-.017zm6.535 13.822h-.003a.97.97 0 0 1-.97-.975l.005-1.623a7.413 7.413 0 0 1-5.59 2.55c-4.15-.013-7.517-3.52-7.505-7.817.013-4.29 3.389-7.77 7.53-7.77h.021c2.03.005 3.932.836 5.354 2.337a.923.923 0 0 0 .222.175l.003-.962a.973.973 0 0 1 .972-.969h.003a.97.97 0 0 1 .971.975l-.04 13.11a.974.974 0 0 1-.973.97zM83.813 4.666h-.003a.918.918 0 0 1-.645-1.575.915.915 0 0 1 .648-.268h.002c.246 0 .477.097.65.271.175.176.27.407.27.653a.915.915 0 0 1-.272.65.915.915 0 0 1-.65.27m-.051 17.558h-.003a.97.97 0 0 1-.968-.978l.037-13.107a.96.96 0 0 1 .287-.687.965.965 0 0 1 .685-.283h.003a.97.97 0 0 1 .97.976l-.039 13.107a.975.975 0 0 1-.972.972M41.631 4.54h-.003a.915.915 0 0 1-.65-.271.917.917 0 0 1-.27-.654.923.923 0 0 1 .924-.917h.002a.92.92 0 0 1-.003 1.843M41.579 22.1h-.003a.974.974 0 0 1-.968-.977l.038-13.108a.974.974 0 0 1 .972-.97h.002a.968.968 0 0 1 .967.976l-.038 13.108a.974.974 0 0 1-.97.97m-7.381-.018h-.003a.93.93 0 0 1-.683-.285.925.925 0 0 1-.28-.686l.004-1.468c.003-.998-.152-1.878-.46-2.613-.313-.741-.736-1.359-1.256-1.836a5.074 5.074 0 0 0-1.797-1.065 6.43 6.43 0 0 0-2.058-.348 6.154 6.154 0 0 0-2.075.335 5.14 5.14 0 0 0-1.792 1.055c-.524.475-.95 1.09-1.265 1.829-.313.737-.473 1.615-.476 2.609l-.004 1.469a.922.922 0 0 1-.29.685.904.904 0 0 1-.675.28h-.003a.925.925 0 0 1-.686-.285.926.926 0 0 1-.279-.687L20.18.964a.92.92 0 0 1 .285-.685.923.923 0 0 1 .682-.279h.002a.92.92 0 0 1 .682.285c.19.19.282.414.282.684l-.034 11.384c0 .226.08.433.237.6.16.174.368.26.618.262a.97.97 0 0 0 .45-.162c.66-.391 1.427-.717 2.286-.97.297-.066.547-.236.75-.5l2.923-4.208c.19-.27.46-.41.803-.399a.9.9 0 0 1 .69.293c.187.205.277.418.276.652a.939.939 0 0 1-.194.566l-1.586 2.324a.988.988 0 0 0-.169.51c0 .427.223.712.63.804a7.981 7.981 0 0 1 2.06.914 6.672 6.672 0 0 1 1.722 1.544c.488.613.881 1.352 1.169 2.198.286.845.43 1.809.427 2.866l-.005 1.469a.915.915 0 0 1-.29.687.917.917 0 0 1-.678.278m41.606.124H75.8a.915.915 0 0 1-.687-.29.912.912 0 0 1-.279-.68l.019-6.315c.004-.996-.157-1.877-.476-2.617-.317-.736-.743-1.353-1.267-1.832a5.096 5.096 0 0 0-1.782-1.066 6.309 6.309 0 0 0-2.046-.348h-.018a6.42 6.42 0 0 0-2.042.335 5.07 5.07 0 0 0-1.805 1.056c-.527.474-.951 1.088-1.263 1.825-.316.738-.477 1.618-.48 2.614l-.019 6.313a.93.93 0 0 1-.282.683.924.924 0 0 1-.683.283h-.003a.925.925 0 0 1-.681-.283.927.927 0 0 1-.282-.688l.02-6.313c.002-.995-.16-1.876-.478-2.618-.323-.74-.75-1.357-1.268-1.833A5.077 5.077 0 0 0 58.2 9.366a6.446 6.446 0 0 0-2.06-.348h-.018a6.33 6.33 0 0 0-2.03.335c-.667.23-1.27.584-1.79 1.055-.524.477-.954 1.091-1.277 1.826-.323.74-.489 1.62-.492 2.614l-.018 6.313a.92.92 0 0 1-.286.686.927.927 0 0 1-.681.28h-.003a.92.92 0 0 1-.684-.288.92.92 0 0 1-.279-.682l.02-6.315c.003-1.32.23-2.48.672-3.447.442-.968 1.023-1.782 1.723-2.418a7.014 7.014 0 0 1 2.41-1.428 8.298 8.298 0 0 1 2.717-.465h.023a8.264 8.264 0 0 1 3.631.866 6.5 6.5 0 0 1 1.89 1.41c.04.025.077.058.107.098.12.158.52.573.931.575h.002c.184 0 .417-.08.676-.233.238-.301.47-.554.708-.77a7.108 7.108 0 0 1 1.56-1.064 8.036 8.036 0 0 1 3.635-.843 8.314 8.314 0 0 1 2.737.482c.893.317 1.7.802 2.4 1.44.697.64 1.271 1.457 1.71 2.43.436.975.655 2.136.651 3.45l-.018 6.314c0 .27-.093.493-.283.684a.922.922 0 0 1-.681.282" fill="#4A4A4A"/><path d="M11.017 11.967c0 .002-.003.004-.004.005l.007-.003-.003-.002zm-1.91 9.948h-.004a1.752 1.752 0 0 1-1.247-.522 1.757 1.757 0 0 1 .106-2.582.25.25 0 0 1 .054-.052c.469-.347.471-.567.477-1.154v-.083c.005-.443 0-2.312-.005-3.567l-.003-1.159c0-.108-.014-.135-.014-.135a.833.833 0 0 0-.115-.072 2.27 2.27 0 0 1-.948-.79.126.126 0 0 0-.031-.037c-.19.085-.92.439-1.315.802-.248.23-.345.508-.422.732-.04.113-.074.212-.125.291h-.001a.204.204 0 0 1-.013.019 1.467 1.467 0 0 1-1.288.756H4.21a1.473 1.473 0 0 1-1.048-.437 1.474 1.474 0 0 1-.432-1.051 1.47 1.47 0 0 1 .439-1.05 1.47 1.47 0 0 1 1.045-.43c.213-.011.41.044.605.132.02.006.04.015.058.026l.042.027c.04.018.08.039.119.064.11.05.255.09.356.022a36.576 36.576 0 0 0 1.478-1.095.49.49 0 0 0 .147-.227l.009-.099a.245.245 0 0 1 .02-.125 2.2 2.2 0 0 1 .198-.608.436.436 0 0 1 .028-.059c.087-.154.005-.319-.293-.727-.272-.374-2.479-2.912-3.373-3.88-.306-.33-.765-.35-1.009-.331a1.22 1.22 0 0 1-.152.018h-.023v.003l-.045.002c-.04.002-.078.005-.117.005a2.27 2.27 0 0 1 .005-4.54h.007a2.255 2.255 0 0 1 2.25 2.066.4.4 0 0 1 .006.112v.006a.902.902 0 0 1 .005.093c0 .14-.016.29-.046.442-.018.305-.065 1.149.193 1.406l3.562 4.056a.57.57 0 0 0 .407.152 2.237 2.237 0 0 1 .994-.058.275.275 0 0 1 .077.016c.078.014.142.03.206.047.066.007.12-.008.147-.04a60.757 60.757 0 0 0 1.545-1.93c.31-.413.382-.509.169-1.173a.602.602 0 0 1-.033-.246v-.009a.818.818 0 0 1-.01-.117 1.652 1.652 0 0 1 1.648-1.646h.005c.44.001.852.174 1.162.487.31.312.481.727.48 1.168-.002.79-.56 1.46-1.335 1.61a.251.251 0 0 1-.082.013 1.155 1.155 0 0 1-.31.015c-.156.018-.303.076-.373.157-.233.272-1.2 1.712-1.516 2.185l-.094.14c-.179.263-.142.333-.103.408a2.263 2.263 0 0 1 .31 1.313l-.003.038c-.007.056-.011.16.042.219l.073.08c.092.1.37.408.464.462.088.05.223.057.298.032.15-.056.314-.088.476-.088h.004a1.339 1.339 0 0 1 1.336 1.345 1.34 1.34 0 0 1-1.34 1.336h-.004a1.34 1.34 0 0 1-1.333-1.382.263.263 0 0 1 .003-.08s.035-.228-.09-.32a4.133 4.133 0 0 0-.474-.316c-.24.275-.544.49-.887.625l-.016.008c-.12.053-.2.107-.218.367-.02.319-.154 4.738-.145 5.099.006.157.26.469.443.632a1.774 1.774 0 0 1 .707 1.42 1.752 1.752 0 0 1-.521 1.247 1.75 1.75 0 0 1-1.244.515z" fill="#F39200"/></g></svg>