<?xml version="1.0" encoding="UTF-8" standalone="no"?>
<svg
   xmlns:dc="http://purl.org/dc/elements/1.1/"
   xmlns:cc="http://creativecommons.org/ns#"
   xmlns:rdf="http://www.w3.org/1999/02/22-rdf-syntax-ns#"
   xmlns:svg="http://www.w3.org/2000/svg"
   xmlns="http://www.w3.org/2000/svg"
   xmlns:sodipodi="http://sodipodi.sourceforge.net/DTD/sodipodi-0.dtd"
   xmlns:inkscape="http://www.inkscape.org/namespaces/inkscape"
   viewBox="0 0 93.88 45.000013"
   version="1.1"
   id="svg4595"
   sodipodi:docname="10.svg"
   inkscape:version="0.92.1 r15371"
   width="93.879997"
   height="45.000011">
  <metadata
     id="metadata4599">
    <rdf:RDF>
      <cc:Work
         rdf:about="">
        <dc:format>image/svg+xml</dc:format>
        <dc:type
           rdf:resource="http://purl.org/dc/dcmitype/StillImage" />
        <dc:title>Adsterra Network</dc:title>
      </cc:Work>
    </rdf:RDF>
  </metadata>
  <sodipodi:namedview
     pagecolor="#ffffff"
     bordercolor="#666666"
     borderopacity="1"
     objecttolerance="10"
     gridtolerance="10"
     guidetolerance="10"
     inkscape:pageopacity="0"
     inkscape:pageshadow="2"
     inkscape:window-width="1920"
     inkscape:window-height="1016"
     id="namedview4597"
     showgrid="false"
     inkscape:zoom="5.5525588"
     inkscape:cx="42.311804"
     inkscape:cy="7.4214776"
     inkscape:window-x="-8"
     inkscape:window-y="-8"
     inkscape:window-maximized="1"
     inkscape:current-layer="g4593" />
  <defs
     id="defs4581">
    <style
       id="style4579">.cls-1{fill:#b54228;}.cls-2{fill:#0a1013;}</style>
  </defs>
  <title
     id="title4583">Adsterra Network</title>
  <g
     id="g4593"
     transform="matrix(0.27856231,0,0,0.24482225,0.31119889,15.400569)"
     style="stroke-width:3.829247">
    <g
       id="g4591"
       style="stroke-width:1.29515135"
       transform="matrix(2.7320727,0,0,3.1995837,-9.5267503,-59.585552)">
      <path
         class="cls-1"
         d="m 63.313134,39.446357 v -0.8 a 3,3 0 0 1 -2.5,0.9 3,3 0 0 1 -2.36,-0.8 2.45,2.45 0 0 1 -0.64,-1.7 c 0,-1.48 1,-2.44 2.94,-2.44 h 2.56 v -0.86 c 0,-1.24 -0.63,-1.87 -2.2,-1.87 a 2.23,2.23 0 0 0 -2.13,1 l -0.85,-0.78 a 3.3,3.3 0 0 1 3,-1.26 c 2.28,0 3.4,1 3.4,2.8 v 5.74 z m 0,-3.9 h -2.4 c -1.27,0 -1.9,0.5 -1.9,1.5 0,1 0.6,1.44 2,1.44 a 2.48,2.48 0 0 0 1.9,-0.57 2,2 0 0 0 0.44,-1.47 z m 9.4,3.9 v -1 a 2.75,2.75 0 0 1 -2.4,1.13 3,3 0 0 1 -2.08,-0.74 5.08,5.08 0 0 1 -1,-3.67 5.08,5.08 0 0 1 1,-3.6 3,3 0 0 1 2.07,-0.75 2.73,2.73 0 0 1 2.4,1.1 v -4.8 h 1.2 v 12.3 z m -2.13,-7.5 c -1.85,0 -2.14,1.6 -2.14,3.26 0,1.66 0.3,3.25 2.14,3.25 1.84,0 2.12,-1.53 2.12,-3.2 0,-1.67 -0.3,-3.24 -2.18,-3.24 z m 9.4,7.6 a 4.68,4.68 0 0 1 -3.5,-1.22 l 0.83,-0.83 a 3.48,3.48 0 0 0 2.64,1 c 1.4,0 2.26,-0.5 2.26,-1.5 0,-0.74 -0.43,-1.16 -1.42,-1.24 l -1.4,-0.1 c -1.66,-0.1 -2.54,-0.9 -2.54,-2.3 0,-1.5 1.3,-2.43 3.13,-2.43 a 4.8,4.8 0 0 1 3.06,0.92 l -0.8,0.8 a 3.63,3.63 0 0 0 -2.27,-0.67 c -1.24,0 -1.9,0.54 -1.9,1.4 0,0.86 0.4,1.16 1.5,1.24 l 1.35,0.12 c 1.5,0.13 2.5,0.7 2.5,2.3 0,1.6 -1.33,2.56 -3.4,2.56 z"
         id="path4585"
         inkscape:connector-curvature="0"
         style="fill:#b54228;stroke-width:1.29515135"
         inkscape:transform-center-x="0.91283899"
         inkscape:transform-center-y="-1.2171186" />
      <path
         class="cls-2"
         d="m 90.248769,39.954916 a 2.08,2.08 0 0 1 -2.18,-2.27 v -5.23 h -1.07 v -1 h 1.07 v -2.6 h 1.24 v 2.66 h 1.87 v 1 h -1.8 v 5.18 c 0,0.78 0.36,1.24 1.16,1.24 h 0.66 v 1.07 z m 4.32,-3.9 c 0,1.86 0.88,2.93 2.5,2.93 a 2.8,2.8 0 0 0 2.23,-1 l 0.850001,0.74 a 3.9,3.9 0 0 1 -3.100001,1.3 c -2.26,0 -3.72,-1.34 -3.72,-4.34 0,-2.75 1.33,-4.35 3.5,-4.35 2.17,0 3.480001,1.6 3.480001,4.1 v 0.58 z m 4.23,-2.36 a 2.18,2.18 0 0 0 -4,0 3.57,3.57 0 0 0 -0.26,1.42 h 4.5 a 3.58,3.58 0 0 0 -0.24,-1.42 z m 8.970001,-0.6 a 1.78,1.78 0 0 0 -1.47,-0.63 2.08,2.08 0 0 0 -2,2.3 v 5.2 h -1.28 v -8.5 h 1.24 v 1 a 2.86,2.86 0 0 1 2.38,-1.1 2.62,2.62 0 0 1 2,0.8 z m 7.68,0 a 1.78,1.78 0 0 0 -1.47,-0.63 2.08,2.08 0 0 0 -2,2.3 v 5.2 h -1.28 v -8.5 h 1.24 v 1 a 2.86,2.86 0 0 1 2.38,-1.1 2.62,2.62 0 0 1 2,0.8 z m 7.6,6.86 v -0.8 a 3,3 0 0 1 -2.46,0.92 3,3 0 0 1 -2.4,-0.78 2.45,2.45 0 0 1 -0.7,-1.73 c 0,-1.43 1,-2.4 2.94,-2.4 h 2.55 v -0.91 c 0,-1.24 -0.6,-1.87 -2.18,-1.87 a 2.23,2.23 0 0 0 -2.14,1 l -0.86,-0.78 a 3.3,3.3 0 0 1 3,-1.26 c 2.28,0 3.4,1 3.4,2.8 v 5.74 z m 0,-3.9 h -2.4 c -1.28,0 -1.9,0.5 -1.9,1.5 0,1 0.6,1.44 2,1.44 a 2.48,2.48 0 0 0 1.9,-0.57 2,2 0 0 0 0.43,-1.47 z"
         id="path4587"
         inkscape:connector-curvature="0"
         style="fill:#0a1013;stroke-width:1.29515135" />
      <path
         class="cls-1"
         d="m 58,47.8 c -1.1,0 -2.6,-0.1 -3.28,-1.67 C 54.18,45 38.12,0 38.12,0 h -11 C 27.12,0 11,45 10.5,46.13 9.83,47.71 8.33,47.79 7.22,47.8 h -0.6 v 8.65 h 2.53 c 4.9,0 9,-2.25 10.8,-6.44 0.82,-1.83 2.78,-7.7 2.78,-7.7 h 19.7 c 0,0 2,5.87 2.78,7.76 1.8,4.2 5.9,6.45 10.8,6.45 h 2.47 v -8.7 z M 32.6,33.45 h -6.8 l 6.74,-21.5 h 0.12 l 6.74,21.5 z"
         id="path4589"
         inkscape:connector-curvature="0"
         style="fill:#b54228;stroke-width:1.29515135" />
    </g>
  </g>
</svg>
