<svg id="Layer_1" data-name="Layer 1" xmlns="http://www.w3.org/2000/svg" viewBox="0 0 6925.75 1228.48"><defs><style>.cls-1{fill:#333;}.cls-2{fill:#5f154b;}.cls-3{fill:#821c5f;}.cls-4{fill:#9c1f6c;}</style></defs><title>adcash_logo_FC_H</title><path class="cls-1" d="M2508.85,1296.11c-46.66,9.65-123.87,22.52-209.14,22.52-138.35,0-368.4-4.82-368.4-265.44,0-215.58,119-223.46,278.32-249.2l304.05-49.88V678.5c0-51.48-1.61-93.3-57.91-114.22-30.57-12.87-75.62-19.3-146.4-19.3-123.87,0-231.66,30.56-297.62,46.65-3.22,0-6.44,1.61-9.66,1.61-6.43,0-12.87-3.22-16.08-12.87L1971.52,508v-3.22c0-12.87,11.26-17.7,16.09-19.3,51.48-19.3,189.83-49.87,336.23-49.87,114.23,0,188.22,16.09,234.88,41.83,82,43.44,83.66,119,83.66,194.66v458.33C2642.37,1243,2619.84,1268.76,2508.85,1296.11Zm6.43-440.64-296,49.87c-77.22,14.48-156,14.32-156,141.4,0,160.88,131.92,172.14,238.09,172.14,70.79,0,146.4-9.65,214-32.18V855.47Z" transform="translate(-91.31 -91.31)"/><path class="cls-1" d="M3364.31,1287.21c-51.48,12.87-119,32.18-246.14,32.18-312.11,0-384.5-141.57-384.5-444,0-308.88,85.26-439.78,374.84-439.78,111,0,191.44,17.7,246.14,32.18l-16.09-93.31V133.14c0-12.87,8-17.7,20.92-19.3l86.87-22.52h4.82c11.27,0,14.48,11.26,14.48,20.91v1047.9C3465.66,1219.64,3465.66,1264.69,3364.31,1287.21Zm-25.75-721.31s-101.35-29-217.17-29c-177,0-255.79,53.68-255.79,340,0,305.67,93.3,341.06,257.4,341.06,119,0,215.57-30.57,215.57-30.57V565.89Z" transform="translate(-91.31 -91.31)"/><path class="cls-1" d="M4258.42,1249.18c0,12.86-6.44,21.18-19.3,27.61-38.63,20.91-157.68,41.83-276.73,41.83-318.54,0-405.42-146.4-405.42-439.19,0-294.41,86.88-443.85,405.42-443.85,119.05,0,238.11,22.52,276.73,41.83,12.86,6.44,19.3,14.48,19.3,27.35v8l-20.91,99.74c-3.23,14.47-14.48,19.3-24.14,19.3-3.22,0-8-1.61-9.65-1.61-37-9.65-107.79-25.74-183.41-25.74-165.71,0-214,73.83-214,273.32,0,201.1,48.27,273.49,214,273.49,75.61,0,146.4-16.09,183.41-25.75,1.61,0,6.44-1.61,9.65-1.61,9.66,0,20.91,4.84,24.14,20.91l20.91,96.26v8Z" transform="translate(-91.31 -91.31)"/><path class="cls-1" d="M4970.71,1297.05c-59.52,14.48-135.14,22.52-228.44,22.52-186.62,0-392.55-24.13-392.55-275.1,0-205.92,132.48-230.83,249.91-248.53l279.93-45V707.47c0-43.44-4.83-70.78-38.62-86.87-22.52-11.27-61.13-16.09-114.21-16.09-104.57,0-226.83,33.78-270.28,43.44-3.22,1.61-8,3.21-11.27,3.21-9.65,0-16.09-4.82-17.7-14.47l-24.13-111c-1.61-3.22-1.61-4.83-1.61-8,0-14.48,11.27-20.92,19.3-24.13,35.39-14.48,186.62-57.92,358.76-57.92,112.61,0,191.44,16.09,244.53,46.66,80.44,43.44,103,117.44,103,207.53l-0.55,440C5126.76,1252,5081.71,1272.91,4970.71,1297.05ZM4881.17,898.9L4709,926.26c-61.14,9.65-114.78,18.47-114.78,115,0,112.61,90.09,122.26,154.44,122.26,59.53,0,111-11.27,131.92-17.7Z" transform="translate(-91.31 -91.31)"/><path class="cls-1" d="M5533.94,1319c-140,0-268.67-33.79-297.63-46.66-6.43-3.21-17.7-6.43-17.7-24.13v-9.66l20.91-103c1.62-14.48,8-19.3,17.7-19.3,3.23,0,4.84,0,8,1.61,20.91,4.82,136.74,37,236.49,37,72.39,0,135.14-22.52,135.14-91.7,0-78.83-49.87-83.66-133.53-99.74-106.18-19.3-274.11-37.21-274.11-262.44,0-236.49,207.53-265.44,349.09-265.44,128.71,0,230.06,27.35,262.22,37,12.87,3.22,17.7,14.48,17.7,24.13v4.83L5839,607.72c-1.61,11.26-11.25,16.09-22.52,16.09-1.61,0-3.22-1.61-4.82-1.61-16.09-1.61-112.62-22.52-196.27-22.52-62.73,0-138.35,12.87-138.35,83.66,0,83.66,77.23,86.88,159.26,101.36,120.67,20.91,248.38,51.69,248.38,257.61C5884.64,1253,5730.2,1319,5533.94,1319Z" transform="translate(-91.31 -91.31)"/><path class="cls-1" d="M6719.19,1319.79H6522.92c-16.09,0-25.73-9.66-25.73-24.14V707.47c0-70.78-24.14-106.18-101.35-106.18-82,0-172.14,19.31-172.14,19.31v675.06c0,14.48-9.66,24.14-25.75,24.14H6001.69c-16.09,0-25.74-9.66-25.74-24.14V160.49c0-22.52,6.44-35.39,29-38.61l183.4-30.57h8c16.09,0,27.35,8,27.35,27.35v251L6206,469.37c75.61-17.7,170.53-33.78,251-33.78,180.19,0,288,51.48,288,230.05v630C6744.93,1310.14,6735.28,1319.79,6719.19,1319.79Z" transform="translate(-91.31 -91.31)"/><path class="cls-1" d="M6991.61,239.48q-25.45,25.45-61.49,25.45t-61.49-25.45q-25.25-25.65-25.19-61.49,0-36,25.19-61.23,25.45-25.45,61.49-25.45t61.49,25.45Q7017.06,142,7017.06,178T6991.61,239.48Zm-13-109.76q-20-20-48.53-20t-48.53,20q-19.83,19.83-19.8,48.27t19.8,48.53q20,20,48.53,20.06t48.53-20.06q20-20,20-48.53T6978.66,129.72Zm-32.29,61.49,20.72,32.49c1,1.91.59,2.83-1.18,2.83h-16a3.53,3.53,0,0,1-3.09-1.84l-20.45-32h-14.67v31.76a1.83,1.83,0,0,1-2.1,2.1h-13.15a1.87,1.87,0,0,1-2.17-2.1V134.91q0-2.37,2.17-2.37h43.08a29.3,29.3,0,0,1,21.24,8.94c5.92,6,8.94,13,8.94,21C6969.71,177.86,6961.89,187.46,6946.37,191.21Zm0.85-39.13a17.32,17.32,0,0,0-11.25-3.75h-24.27v28.74h24.07c4.67,0,8.55-1.32,11.51-4s4.47-6.18,4.47-10.59A12.86,12.86,0,0,0,6947.22,152.08Z" transform="translate(-91.31 -91.31)"/><path class="cls-2" d="M1698.92,91.35H1307.44c-27.6,0-50,22-50,49.23V1269.36a50,50,0,0,0,50,50h391.48a50,50,0,0,0,50-50V140.58C1748.88,113.39,1726.51,91.35,1698.92,91.35Z" transform="translate(-91.31 -91.31)"/><path class="cls-3" d="M1116.18,271.15H724.06a50.11,50.11,0,0,0-5.71.36c-0.51.06-1,.15-1.51,0.23-1.41.21-2.8,0.45-4.17,0.77l-1.37.36c-1.5.4-3,.85-4.44,1.39l-0.66.24c-1,.38-1.74,1.08-2.68,1.51a50,50,0,0,0-7.35,4.15c-0.78.54-1.72,0.83-2.46,1.41a49.91,49.91,0,0,0-3.69,3.67c-0.57.55-1.08,1.14-1.63,1.71-0.94,1-1.93,1.88-2.78,2.93-0.54.66-1.27,1.14-1.78,1.83v0a49.39,49.39,0,0,0-9.78,29.4v428l0.63-.11v520.34a50,50,0,0,0,50,50h391.48a50,50,0,0,0,49.95-50V321.14A50,50,0,0,0,1116.18,271.15Z" transform="translate(-91.31 -91.31)"/><path class="cls-4" d="M532.79,434.1H141.29a50,50,0,0,0-50,50v785.28a50,50,0,0,0,50,50h391.5a50,50,0,0,0,50-50V484.07A50,50,0,0,0,532.79,434.1Z" transform="translate(-91.31 -91.31)"/></svg>