<?xml version="1.0" encoding="UTF-8" standalone="no"?>
<!-- Generator: Adobe Illustrator 15.1.0, SVG Export Plug-In . SVG Version: 6.00 Build 0)  -->

<svg
   xmlns:dc="http://purl.org/dc/elements/1.1/"
   xmlns:cc="http://creativecommons.org/ns#"
   xmlns:rdf="http://www.w3.org/1999/02/22-rdf-syntax-ns#"
   xmlns:svg="http://www.w3.org/2000/svg"
   xmlns="http://www.w3.org/2000/svg"
   xmlns:sodipodi="http://sodipodi.sourceforge.net/DTD/sodipodi-0.dtd"
   xmlns:inkscape="http://www.inkscape.org/namespaces/inkscape"
   version="1.1"
   id="Layer_1"
   x="0px"
   y="0px"
   width="159px"
   height="40px"
   viewBox="0 0 159 40"
   enable-background="new 0 0 159 40"
   xml:space="preserve"
   sodipodi:docname="7.svg"
   inkscape:version="0.92.1 r15371"><metadata
     id="metadata5154"><rdf:RDF><cc:Work
         rdf:about=""><dc:format>image/svg+xml</dc:format><dc:type
           rdf:resource="http://purl.org/dc/dcmitype/StillImage" /></cc:Work></rdf:RDF></metadata><defs
     id="defs5152" /><sodipodi:namedview
     pagecolor="#ffffff"
     bordercolor="#666666"
     borderopacity="1"
     objecttolerance="10"
     gridtolerance="10"
     guidetolerance="10"
     inkscape:pageopacity="0"
     inkscape:pageshadow="2"
     inkscape:window-width="1920"
     inkscape:window-height="1016"
     id="namedview5150"
     showgrid="false"
     inkscape:zoom="5.0698222"
     inkscape:cx="68.442791"
     inkscape:cy="18.60839"
     inkscape:window-x="-8"
     inkscape:window-y="-8"
     inkscape:window-maximized="1"
     inkscape:current-layer="Layer_1" /><g
     id="g5147"
     style="fill:#ff2a2a;fill-opacity:1"><g
       id="g5121"
       style="fill:#ff2a2a;fill-opacity:1"><g
         id="g5119"
         style="fill:#ff2a2a;fill-opacity:1"><path
           fill="#FFFFFF"
           d="M17.072,24.904h-3.016l-1.442-11.507L9.435,24.904H7.647L4.468,13.397L3.025,24.904H0.009L2.172,9.222     h3.748l2.621,9.508l2.834-9.508h3.534L17.072,24.904z"
           id="path5109"
           style="fill:#ff2a2a;fill-opacity:1" /><path
           fill="#FFFFFF"
           d="M29.82,18.811c0,2.079-0.493,3.669-1.478,4.772c-0.986,1.106-2.399,1.658-4.241,1.658     c-1.815,0-3.222-0.569-4.221-1.703c-0.998-1.134-1.498-2.709-1.498-4.727V9.222h3.159V19.35c0,1.008,0.219,1.774,0.655,2.295     c0.438,0.521,1.072,0.781,1.905,0.781c0.867,0,1.51-0.254,1.931-0.76c0.418-0.509,0.629-1.282,0.629-2.316V9.222h3.16V18.811z"
           id="path5111"
           style="fill:#ff2a2a;fill-opacity:1" /><path
           fill="#FFFFFF"
           d="M45.512,24.904h-2.997l-7.303-10.583v10.583h-2.996V9.222h2.996l7.303,10.544V9.222h2.997V24.904z"
           id="path5113"
           style="fill:#ff2a2a;fill-opacity:1" /><path
           fill="#FFFFFF"
           d="M59.57,17.083c0,2.479-0.739,4.401-2.214,5.769c-1.477,1.369-3.542,2.052-6.196,2.052h-3.373V9.222h3.128     c2.791,0,4.929,0.672,6.419,2.017C58.825,12.583,59.57,14.531,59.57,17.083z M56.38,17.064c0-1.62-0.419-2.88-1.258-3.785     c-0.84-0.903-2.016-1.356-3.524-1.356h-0.752v10.28h0.752c1.503,0,2.676-0.45,3.519-1.347     C55.959,19.96,56.38,18.695,56.38,17.064z"
           id="path5115"
           style="fill:#ff2a2a;fill-opacity:1" /><path
           fill="#FFFFFF"
           d="M76.045,17.064c0,2.335-0.739,4.282-2.22,5.841c-1.48,1.557-3.313,2.336-5.5,2.336     c-2.186,0-4.02-0.779-5.5-2.336c-1.479-1.56-2.219-3.506-2.219-5.841c0-2.337,0.74-4.284,2.219-5.841     c1.48-1.557,3.313-2.336,5.5-2.336c2.188,0,4.02,0.779,5.5,2.336C75.306,12.78,76.045,14.727,76.045,17.064z M72.876,17.064     c0-1.518-0.421-2.756-1.265-3.718c-0.843-0.962-1.938-1.442-3.287-1.442c-1.354,0-2.452,0.48-3.295,1.442     c-0.843,0.961-1.264,2.2-1.264,3.718c0,1.516,0.42,2.755,1.264,3.718c0.844,0.96,1.941,1.441,3.295,1.441     c1.349,0,2.443-0.48,3.287-1.441C72.455,19.819,72.876,18.58,72.876,17.064z"
           id="path5117"
           style="fill:#ff2a2a;fill-opacity:1" /></g></g><path
       fill="#FFFFFF"
       d="M79.381,24.904V12.894h1.822v1.685c0.375-0.588,0.875-1.061,1.505-1.419   c0.625-0.358,1.336-0.538,2.135-0.538c0.891,0,1.62,0.185,2.188,0.554c0.57,0.37,0.973,0.887,1.206,1.55   c0.949-1.402,2.185-2.104,3.71-2.104c1.19,0,2.106,0.33,2.749,0.99c0.64,0.66,0.96,1.676,0.96,3.048v8.245h-2.024v-7.565   c0-0.816-0.065-1.401-0.197-1.759s-0.372-0.647-0.718-0.866c-0.348-0.218-0.754-0.327-1.223-0.327c-0.843,0-1.545,0.28-2.103,0.842   c-0.559,0.563-0.839,1.46-0.839,2.697v6.978h-2.034V17.1c0-0.905-0.166-1.583-0.498-2.035c-0.331-0.453-0.875-0.678-1.629-0.678   c-0.572,0-1.103,0.151-1.589,0.453c-0.486,0.3-0.838,0.742-1.059,1.323c-0.218,0.581-0.328,1.417-0.328,2.51v6.232H79.381z"
       id="path5123"
       style="fill:#ff2a2a;fill-opacity:1" /><path
       fill="#FFFFFF"
       d="M106.9,21.036l2.103,0.26c-0.331,1.231-0.946,2.184-1.845,2.861c-0.897,0.681-2.042,1.018-3.438,1.018   c-1.755,0-3.148-0.54-4.179-1.621c-1.029-1.081-1.545-2.6-1.545-4.554c0-2.021,0.523-3.589,1.562-4.704   c1.04-1.116,2.392-1.675,4.048-1.675c1.607,0,2.92,0.547,3.938,1.64c1.018,1.094,1.527,2.632,1.527,4.615   c0,0.12-0.004,0.3-0.012,0.542h-8.958c0.074,1.321,0.449,2.33,1.119,3.032c0.672,0.701,1.509,1.05,2.51,1.05   c0.747,0,1.386-0.194,1.911-0.586C106.172,22.523,106.59,21.897,106.9,21.036z M100.213,17.744h6.71   c-0.093-1.009-0.35-1.767-0.771-2.272c-0.647-0.785-1.489-1.176-2.523-1.176c-0.934,0-1.721,0.312-2.357,0.938   C100.634,15.86,100.282,16.697,100.213,17.744z"
       id="path5125"
       style="fill:#ff2a2a;fill-opacity:1" /><path
       fill="#FFFFFF"
       d="M119.352,24.904V23.39c-0.762,1.188-1.881,1.785-3.36,1.785c-0.956,0-1.837-0.263-2.641-0.789   c-0.802-0.528-1.424-1.267-1.864-2.212c-0.442-0.946-0.662-2.035-0.662-3.264c0-1.199,0.199-2.286,0.6-3.262   c0.397-0.977,0.997-1.726,1.797-2.246c0.8-0.52,1.693-0.78,2.682-0.78c0.723,0,1.368,0.153,1.934,0.458   c0.565,0.306,1.024,0.703,1.38,1.193V8.324h2.025v16.581H119.352z M112.915,18.91c0,1.538,0.324,2.689,0.974,3.449   c0.649,0.762,1.414,1.142,2.297,1.142c0.889,0,1.645-0.362,2.266-1.091c0.623-0.727,0.934-1.837,0.934-3.331   c0-1.643-0.315-2.85-0.949-3.62c-0.634-0.768-1.412-1.152-2.341-1.152c-0.906,0-1.661,0.37-2.27,1.108   C113.219,16.155,112.915,17.319,112.915,18.91z"
       id="path5127"
       style="fill:#ff2a2a;fill-opacity:1" /><path
       fill="#FFFFFF"
       d="M124.453,24.904V12.894h2.035v12.011H124.453z"
       id="path5129"
       style="fill:#ff2a2a;fill-opacity:1" /><path
       fill="#FFFFFF"
       d="M137.428,23.423c-0.755,0.642-1.482,1.094-2.18,1.358c-0.697,0.263-1.445,0.394-2.245,0.394   c-1.321,0-2.333-0.321-3.044-0.965c-0.706-0.645-1.062-1.469-1.062-2.472c0-0.589,0.133-1.125,0.4-1.611   c0.269-0.487,0.619-0.877,1.052-1.171c0.435-0.294,0.923-0.515,1.466-0.668c0.4-0.105,1.003-0.208,1.81-0.304   c1.645-0.197,2.854-0.431,3.63-0.703c0.008-0.278,0.011-0.456,0.011-0.531c0-0.83-0.19-1.414-0.574-1.753   c-0.522-0.459-1.296-0.69-2.319-0.69c-0.957,0-1.666,0.168-2.121,0.503c-0.456,0.335-0.793,0.929-1.011,1.782l-1.991-0.271   c0.181-0.853,0.478-1.541,0.894-2.064c0.413-0.524,1.013-0.928,1.797-1.21c0.784-0.283,1.693-0.424,2.728-0.424   c1.023,0,1.857,0.121,2.499,0.362c0.641,0.242,1.112,0.545,1.413,0.91c0.301,0.366,0.512,0.828,0.632,1.385   c0.067,0.348,0.104,0.974,0.104,1.878v2.714c0,1.891,0.043,3.089,0.131,3.59c0.085,0.501,0.256,0.982,0.513,1.442h-2.125   C137.622,24.481,137.484,23.988,137.428,23.423z M137.255,18.877c-0.737,0.3-1.848,0.558-3.324,0.769   c-0.837,0.12-1.43,0.255-1.775,0.406c-0.347,0.151-0.615,0.374-0.804,0.662c-0.188,0.292-0.281,0.614-0.281,0.968   c0,0.543,0.204,0.995,0.613,1.355c0.412,0.364,1.014,0.544,1.806,0.544c0.784,0,1.482-0.172,2.093-0.513   c0.612-0.345,1.058-0.814,1.345-1.41c0.22-0.458,0.328-1.138,0.328-2.036V18.877z"
       id="path5131"
       style="fill:#ff2a2a;fill-opacity:1" /><circle
       fill="#FFFFFF"
       cx="125.646"
       cy="8.57"
       r="1.132"
       id="circle5133"
       style="fill:#ff2a2a;fill-opacity:1" /><circle
       fill="#FFFFFF"
       cx="131.711"
       cy="3.634"
       r="1.513"
       id="circle5135"
       style="fill:#ff2a2a;fill-opacity:1" /><circle
       fill="#FFFFFF"
       cx="140.209"
       cy="2.25"
       r="2.055"
       id="circle5137"
       style="fill:#ff2a2a;fill-opacity:1" /><circle
       fill="#FFFFFF"
       cx="149.926"
       cy="6.265"
       r="2.568"
       id="circle5139"
       style="fill:#ff2a2a;fill-opacity:1" /><circle
       fill="#FFFFFF"
       cx="155.653"
       cy="17.243"
       r="3.083"
       id="circle5141"
       style="fill:#ff2a2a;fill-opacity:1" /><circle
       fill="#FFFFFF"
       cx="151.488"
       cy="29.933"
       r="3.596"
       id="circle5143"
       style="fill:#ff2a2a;fill-opacity:1" /><circle
       fill="#FFFFFF"
       cx="138.021"
       cy="35.793"
       r="4.11"
       id="circle5145"
       style="fill:#ff2a2a;fill-opacity:1" /></g><path
     style="opacity:0.01000001;fill:#d5ed36;fill-opacity:1;stroke-width:0.09862279"
     d="M 22.396036,24.998445 C 21.519067,24.762396 20.781737,24.342237 20.155909,23.721932 19.480496,23.052481 19.04069,22.285016 18.714321,21.206349 18.495358,20.482664 18.489992,20.351626 18.454875,14.870537 l -0.03586,-5.5968431 h 1.530009 1.53001 l 0.0292,5.5968431 0.02921,5.596843 0.227189,0.493114 c 0.482337,1.046915 1.152059,1.469074 2.337003,1.47313 1.263054,0.0043 1.957008,-0.440042 2.388132,-1.529214 0.156344,-0.394981 0.175946,-0.975533 0.203729,-6.033873 l 0.03074,-5.5968431 h 1.529342 1.529341 l -0.03368,5.5968431 c -0.0325,5.401131 -0.04123,5.623791 -0.249373,6.367477 -0.55947,1.998917 -1.866128,3.334175 -3.681509,3.762091 -0.804577,0.189652 -2.714997,0.188725 -3.422322,-0.0017 z"
     id="path5699"
     inkscape:connector-curvature="0" /><path
     style="opacity:0.01000001;fill:#d5ed36;fill-opacity:1;stroke-width:0.09862279"
     d="m 66.361502,24.94961 c -2.605142,-0.674441 -4.68762,-2.806704 -5.437096,-5.56708 -0.308964,-1.137937 -0.308964,-3.497335 0,-4.635271 0.595014,-2.191482 2.118781,-4.106295 4.007066,-5.035406 2.006101,-0.987081 4.749459,-1.0059327 6.71229,-0.046125 1.614252,0.789355 3.034872,2.325379 3.727758,4.030582 0.81624,2.008777 0.81624,4.728391 0,6.737169 -0.683926,1.683153 -2.125362,3.246765 -3.705585,4.019666 -1.448476,0.708463 -3.679121,0.91724 -5.304433,0.496465 z m 2.817292,-2.765529 c 0.888004,-0.163614 1.598824,-0.545743 2.26288,-1.216504 1.016256,-1.026513 1.428932,-2.15361 1.428932,-3.902683 0,-1.703168 -0.388397,-2.810629 -1.349964,-3.849236 -0.655098,-0.707585 -1.461006,-1.128687 -2.471669,-1.291496 -2.523862,-0.406571 -4.730453,1.258576 -5.206498,3.92895 -0.172185,0.965876 -0.172185,1.457689 0,2.423564 0.185138,1.03853 0.620111,1.92772 1.282925,2.622612 0.647808,0.679159 1.306192,1.060084 2.148477,1.243056 0.776192,0.168616 1.169516,0.177233 1.904917,0.04174 z"
     id="path5701"
     inkscape:connector-curvature="0" /><path
     style="opacity:0.01000001;fill:#d5ed36;fill-opacity:1;stroke-width:0.09862279"
     d="m 66.361502,24.94961 c -2.60532,-0.674488 -4.689192,-2.808354 -5.436646,-5.56708 -0.310764,-1.146979 -0.31196,-3.504976 -0.0023,-4.635271 0.602074,-2.197991 2.12183,-4.106861 4.008966,-5.035406 2.011665,-0.989819 4.744014,-1.008595 6.71229,-0.046125 1.599929,0.782351 3.00886,2.297397 3.721481,4.001768 0.820308,1.961927 0.822901,4.756262 0.0063,6.765983 -0.683926,1.683153 -2.125362,3.246765 -3.705585,4.019666 -1.448481,0.708463 -3.679126,0.91724 -5.304438,0.496465 z m 2.194357,-2.727309 c -0.122046,-0.02351 -0.321757,-0.02351 -0.443802,0 -0.122046,0.02351 -0.02219,0.04274 0.221901,0.04274 0.244091,0 0.343947,-0.01923 0.221901,-0.04274 z m -0.887605,-0.09434 c -0.0678,-0.02736 -0.178754,-0.02736 -0.246557,0 -0.0678,0.02736 -0.01233,0.04974 0.123279,0.04974 0.135606,0 0.191081,-0.02239 0.123278,-0.04974 z m 1.577965,0 c -0.0678,-0.02736 -0.178754,-0.02736 -0.246557,0 -0.0678,0.02736 -0.01233,0.04974 0.123278,0.04974 0.135606,0 0.191082,-0.02239 0.123279,-0.04974 z m 2.638159,-1.611271 c 0,-0.05424 -0.01957,-0.09862 -0.04349,-0.09862 -0.02392,0 -0.07092,0.04438 -0.104444,0.09862 -0.03352,0.05424 -0.01395,0.09862 0.04349,0.09862 0.05744,0 0.104443,-0.04438 0.104444,-0.09862 z m -7.921075,-1.990948 c -0.03148,-0.07867 -0.05485,-0.05531 -0.05959,0.05959 -0.0043,0.103964 0.01903,0.162214 0.0518,0.129443 0.03277,-0.03277 0.03627,-0.117834 0.0078,-0.189028 z m -0.100677,-0.5979 c -0.02736,-0.0678 -0.04974,-0.01233 -0.04974,0.123278 0,0.135606 0.02238,0.191082 0.04974,0.123279 0.02736,-0.0678 0.02736,-0.178754 0,-0.246557 z m -0.0933,-1.134163 c -0.0226,-0.149166 -0.04109,-0.02712 -0.04109,0.271213 0,0.298334 0.01849,0.42038 0.04109,0.271213 0.0226,-0.149167 0.0226,-0.393259 0,-0.542426 z m 9.067973,-0.73967 c -0.02736,-0.0678 -0.04974,-0.01233 -0.04974,0.123278 0,0.135606 0.02238,0.191082 0.04974,0.123279 0.02736,-0.0678 0.02736,-0.178754 0,-0.246557 z m -8.974673,-0.09862 c -0.02736,-0.0678 -0.04974,-0.01233 -0.04974,0.123278 0,0.135607 0.02238,0.191082 0.04974,0.123279 0.02736,-0.0678 0.02736,-0.178754 0,-0.246557 z m 8.878105,-0.388327 c -0.03148,-0.07868 -0.05485,-0.05531 -0.05958,0.05958 -0.0043,0.103965 0.01903,0.162214 0.0518,0.129443 0.03277,-0.03277 0.03628,-0.117834 0.0078,-0.189027 z m -8.777428,-0.09862 c -0.03148,-0.07868 -0.05485,-0.05531 -0.05959,0.05958 -0.0043,0.103965 0.01903,0.162214 0.0518,0.129443 0.03277,-0.03277 0.03627,-0.117834 0.0078,-0.189027 z m 7.03347,-2.742947 c 0,-0.05424 -0.047,-0.09862 -0.104443,-0.09862 -0.05744,0 -0.07702,0.04438 -0.04349,0.09862 0.03352,0.05424 0.08052,0.09862 0.104443,0.09862 0.02392,0 0.04349,-0.04438 0.04349,-0.09862 z m -3.379885,-0.749944 c -0.03277,-0.03277 -0.117834,-0.03627 -0.189027,-0.0078 -0.07867,0.03148 -0.0553,0.05485 0.05959,0.05959 0.103964,0.0043 0.162213,-0.01903 0.129442,-0.0518 z m 1.629331,-0.0057 c -0.0678,-0.02736 -0.178754,-0.02736 -0.246557,0 -0.0678,0.02736 -0.01233,0.04974 0.123278,0.04974 0.135606,0 0.191082,-0.02238 0.123279,-0.04974 z m -0.69036,-0.102908 c -0.122046,-0.02351 -0.321757,-0.02351 -0.443802,0 -0.122046,0.02351 -0.02219,0.04274 0.221901,0.04274 0.244091,0 0.343947,-0.01923 0.221901,-0.04274 z"
     id="path5703"
     inkscape:connector-curvature="0" /><path
     style="opacity:0.01000001;fill:#d5ed36;fill-opacity:1;stroke-width:0.09862279"
     d="m 67.34773,22.084996 c -1.533494,-0.299482 -2.78603,-1.545295 -3.316214,-3.298415 -0.245674,-0.812351 -0.245674,-2.631022 0,-3.443373 0.569319,-1.882525 1.841907,-3.060876 3.599468,-3.332921 2.377001,-0.367925 4.476089,1.118117 5.045808,3.572165 0.161954,0.697613 0.160632,2.275934 -0.0025,2.964884 -0.609838,2.575767 -2.800833,4.030922 -5.326578,3.53766 z"
     id="path5705"
     inkscape:connector-curvature="0" /><path
     style="opacity:0.01000001;fill:#d5ed36;fill-opacity:1;stroke-width:0.09862279"
     d="m 66.361502,24.94961 c -2.604569,-0.674293 -4.682527,-2.80136 -5.43855,-5.56708 -0.311407,-1.139206 -0.311407,-3.496066 0,-4.635271 0.772888,-2.827418 2.984175,-5.032857 5.633841,-5.6189424 1.049295,-0.2320959 2.696836,-0.2126681 3.700309,0.043634 2.264469,0.5783794 4.172375,2.2574794 5.108141,4.4955454 0.820308,1.961927 0.822901,4.756262 0.0063,6.765983 -0.683926,1.683153 -2.125362,3.246765 -3.705585,4.019666 -1.448481,0.708463 -3.679126,0.91724 -5.304438,0.496465 z m 2.817292,-2.765529 c 0.888004,-0.163614 1.598824,-0.545743 2.26288,-1.216504 1.016256,-1.026513 1.428932,-2.15361 1.428932,-3.902683 0,-1.704134 -0.388332,-2.810559 -1.351634,-3.85104 -0.650592,-0.702717 -1.449419,-1.118247 -2.475519,-1.287704 -2.51006,-0.414527 -4.725182,1.257985 -5.200978,3.926962 -0.172185,0.965876 -0.172185,1.457689 0,2.423564 0.185138,1.03853 0.620111,1.92772 1.282925,2.622612 0.647808,0.679159 1.306192,1.060084 2.148477,1.243056 0.776192,0.168616 1.169516,0.177233 1.904917,0.04174 z"
     id="path5707"
     inkscape:connector-curvature="0" /><path
     style="opacity:0.01000001;fill:#d5ed36;fill-opacity:1;stroke-width:0.09862279"
     d="m 79.37971,18.889416 v -5.966679 h 0.887605 0.887605 v 0.839133 0.839133 l 0.616393,-0.61942 c 1.047117,-1.052259 2.34605,-1.483939 3.777238,-1.255306 1.192938,0.190573 1.902042,0.626571 2.381516,1.464295 0.144196,0.251935 0.273676,0.473765 0.287734,0.492956 0.01406,0.01919 0.299241,-0.257674 0.633741,-0.615256 1.035793,-1.107266 2.332825,-1.568375 3.780016,-1.343835 1.756827,0.272581 2.683756,1.248198 2.92085,3.074272 0.05169,0.398068 0.09534,2.598826 0.09702,4.890573 l 0.003,4.166812 h -0.98071 -0.980711 l -0.03017,-4.462681 c -0.0293,-4.332922 -0.03637,-4.476094 -0.243359,-4.923972 -0.377029,-0.815816 -1.366006,-1.243727 -2.46215,-1.065324 -0.98522,0.160348 -1.707061,0.711783 -2.127474,1.625238 -0.22381,0.486284 -0.227363,0.550824 -0.256563,4.659927 l -0.02961,4.166812 h -0.975705 -0.975705 l -0.03023,-4.413369 -0.03023,-4.41337 -0.258556,-0.551353 c -0.302474,-0.645005 -0.678692,-0.94647 -1.333927,-1.068881 -0.81606,-0.152457 -1.941834,0.14395 -2.53781,0.668185 -0.313268,0.275558 -0.647486,0.875271 -0.81915,1.469862 -0.136491,0.472763 -0.170396,1.210612 -0.203934,4.437982 l -0.04023,3.870944 H 80.357985 79.37971 Z"
     id="path5709"
     inkscape:connector-curvature="0" /><path
     style="opacity:0.01000001;fill:#d5ed36;fill-opacity:1;stroke-width:0.09862279"
     d="m 79.37971,18.889416 v -5.966679 h 0.887605 0.887605 v 0.839133 0.839133 l 0.616393,-0.625156 c 1.031696,-1.046364 2.339996,-1.479171 3.777238,-1.24957 1.192938,0.190573 1.902042,0.626571 2.381516,1.464295 0.144196,0.251935 0.273676,0.473765 0.287734,0.492956 0.01406,0.01919 0.299241,-0.257674 0.633741,-0.615256 1.035793,-1.107266 2.332825,-1.568375 3.780016,-1.343835 1.756827,0.272581 2.683756,1.248198 2.92085,3.074272 0.05169,0.398068 0.09534,2.598826 0.09702,4.890573 l 0.003,4.166812 h -0.98071 -0.980711 l -0.03017,-4.462681 c -0.0293,-4.332922 -0.03637,-4.476094 -0.243359,-4.923972 -0.377029,-0.815816 -1.366006,-1.243727 -2.46215,-1.065324 -0.98522,0.160348 -1.707061,0.711783 -2.127474,1.625238 -0.22381,0.486284 -0.227363,0.550824 -0.256563,4.659927 l -0.02961,4.166812 h -0.975705 -0.975705 l -0.03023,-4.413369 -0.03023,-4.41337 -0.258556,-0.551353 c -0.302474,-0.645005 -0.678692,-0.94647 -1.333927,-1.068881 -0.81606,-0.152457 -1.941834,0.14395 -2.53781,0.668185 -0.313268,0.275558 -0.647486,0.875271 -0.81915,1.469862 -0.136491,0.472763 -0.170396,1.210612 -0.203934,4.437982 l -0.04023,3.870944 H 80.357985 79.37971 Z"
     id="path5711"
     inkscape:connector-curvature="0" /><path
     style="opacity:0.01000001;fill:#0000ff;fill-opacity:1;stroke-width:0.09862279"
     d="M 0.11491101,24.454287 C 0.14495277,24.230309 0.62709688,20.723048 1.1863424,16.660374 L 2.2031523,9.2736939 h 1.8446444 c 1.6717764,0 1.849387,0.016174 1.8952524,0.1725899 0.2254555,0.7688772 2.5268764,9.1978912 2.5268764,9.2547502 0,0.32566 0.3274442,-0.683704 1.5327495,-4.724782 l 1.387892,-4.6532467 1.735873,-0.026895 1.735872,-0.026894 0.05955,0.3720742 c 0.03275,0.2046409 0.503082,3.6118325 1.045175,7.5715375 0.542093,3.959705 1.008395,7.299319 1.036226,7.421365 l 0.0506,0.221901 h -1.46889 -1.468893 l -0.05061,-0.271212 c -0.02783,-0.149167 -0.354456,-2.723222 -0.725826,-5.720122 -0.371371,-2.9969 -0.698093,-5.448832 -0.726049,-5.448737 -0.02796,9.4e-5 -0.760852,2.574149 -1.628658,5.720121 l -1.5778314,5.71995 H 8.5467814 7.6864533 L 7.5381754,24.338325 C 7.4566225,24.053551 6.7667964,21.557162 6.0052283,18.790793 4.7057393,14.070444 4.454887,13.222694 4.4293564,13.465162 c -0.00571,0.05424 -0.3321446,2.628298 -0.7254071,5.720122 l -0.7150226,5.621499 -1.4643185,0.02737 -1.46431858,0.02737 z"
     id="path5713"
     inkscape:connector-curvature="0" /><path
     style="opacity:1;fill:#0000ff;fill-opacity:1;stroke:#004e9a;stroke-width:0.01952731;stroke-miterlimit:4;stroke-dasharray:none;stroke-opacity:0.71764706"
     d="M 0.94207356,18.735637 C 1.3977341,15.430605 1.8780806,11.968945 2.0095101,11.043059 L 2.2484731,9.3596303 H 4.0653214 5.8821697 L 7.1315049,13.94559 c 0.6871343,2.522278 1.2952223,4.66779 1.3513069,4.767805 0.056084,0.100015 0.7337723,-1.941477 1.505973,-4.536648 l 1.4040012,-4.718494 1.708979,-0.05684 1.708978,-0.05684 0.112175,0.6485765 c 0.0617,0.3567175 0.509281,3.5776735 0.994631,7.1576815 0.485351,3.580006 0.925494,6.753195 0.978095,7.051528 l 0.09564,0.542426 H 15.55076 14.110236 l -0.641798,-5.27632 c -0.699557,-5.751154 -0.774857,-6.18655 -0.99483,-5.752251 -0.07764,0.153278 -0.79934,2.701097 -1.603787,5.661822 L 9.4071904,24.761173 8.5338947,24.703668 7.660599,24.646162 6.4122161,20.109514 c -1.6854689,-6.125027 -1.8462679,-6.66475 -1.9536343,-6.557383 -0.074611,0.07461 -1.4550753,10.51487 -1.4603891,11.04472 -8.158e-4,0.08136 -0.6501832,0.147934 -1.4430381,0.147934 H 0.11359993 Z"
     id="path5723"
     inkscape:connector-curvature="0" /><path
     style="opacity:1;fill:#0000ff;fill-opacity:1;stroke:#004e9a;stroke-width:0.01952731;stroke-miterlimit:4;stroke-dasharray:none;stroke-opacity:0.71764706"
     d="M 21.791243,24.735057 C 20.50691,24.226653 19.291181,22.896415 18.844477,21.510736 18.585401,20.707082 18.501931,19.379987 18.430685,14.931818 l -0.08925,-5.5721877 h 1.598179 1.598178 v 5.6909527 c 0,5.596389 0.0075,5.702089 0.449706,6.36117 0.962396,1.434304 3.266577,1.434304 4.228974,0 0.442233,-0.659081 0.449705,-0.764781 0.449705,-6.36117 V 9.3596303 h 1.599785 1.599785 l -0.08717,5.6708107 c -0.08032,5.225335 -0.120671,5.756663 -0.513665,6.763702 -0.457398,1.172071 -1.47096,2.289471 -2.598738,2.864973 -1.074743,0.548438 -3.58262,0.587506 -4.874935,0.07594 z"
     id="path5725"
     inkscape:connector-curvature="0" /><path
     style="opacity:1;fill:#0000ff;fill-opacity:1;stroke:#004e9a;stroke-width:0.01952731;stroke-miterlimit:4;stroke-dasharray:none;stroke-opacity:0.71764706"
     d="M 32.3863,17.052208 V 9.3596303 l 1.43003,0.00682 1.430031,0.00682 3.254552,4.7356937 c 1.790003,2.604631 3.451071,4.975904 3.691261,5.269496 l 0.436709,0.533804 0.0071,-5.27632 0.0071,-5.2763191 h 1.380719 1.380719 v 7.6925781 7.692577 h -1.445103 -1.445102 l -3.633971,-5.265194 -3.633971,-5.265194 -0.05253,5.265194 -0.05253,5.265194 H 33.763797 32.3863 Z"
     id="path5727"
     inkscape:connector-curvature="0" /><path
     style="opacity:1;fill:#0000ff;fill-opacity:1;stroke:#004e9a;stroke-width:0.01952731;stroke-miterlimit:4;stroke-dasharray:none;stroke-opacity:0.71764706"
     d="M 47.968701,17.030709 V 9.3166335 l 2.909372,0.08661 c 2.407332,0.071665 3.105153,0.1629378 4.043945,0.5289381 1.764551,0.6879334 2.963355,1.7516804 3.730718,3.3104164 0.639151,1.298299 0.657585,1.40498 0.657585,3.805462 0,2.248115 -0.04604,2.567866 -0.513058,3.563569 -0.677089,1.443568 -1.503111,2.355255 -2.747675,3.032632 -1.5746,0.857005 -2.783856,1.095593 -5.566006,1.098183 l -2.514881,0.0023 z m 6.155733,4.605013 c 1.670718,-0.89072 2.459839,-2.666133 2.282578,-5.135488 -0.20507,-2.856753 -1.899346,-4.561983 -4.542711,-4.572079 l -1.134162,-0.0043 v 5.09551 c 0,2.802531 0.05831,5.153823 0.129581,5.225093 0.262996,0.262996 2.364677,-0.128861 3.264714,-0.608704 z"
     id="path5729"
     inkscape:connector-curvature="0" /><path
     style="opacity:1;fill:#0000ff;fill-opacity:1;stroke:#004e9a;stroke-width:0.01952731;stroke-miterlimit:4;stroke-dasharray:none;stroke-opacity:0.71764706"
     d="M 66.171713,24.865866 C 64.11787,24.192501 62.338457,22.611265 61.413039,20.637175 60.932406,19.611894 60.888286,19.31013 60.888286,17.04806 c 0,-2.386379 0.02157,-2.513539 0.639328,-3.768377 0.770625,-1.565363 2.182466,-2.950728 3.755685,-3.685257 0.971964,-0.4538059 1.386873,-0.5268755 3.001696,-0.5286292 1.694803,-0.00184 1.996327,0.056757 3.155929,0.6133232 2.414257,1.158752 3.973431,3.281741 4.390876,5.978662 0.577644,3.7319 -1.183286,7.311812 -4.328526,8.799749 -1.385016,0.655217 -3.973793,0.853487 -5.331561,0.408335 z m 4.278354,-3.079355 c 2.546165,-1.30611 3.311788,-5.354721 1.519706,-8.036201 -0.841285,-1.258809 -1.970833,-1.826487 -3.634285,-1.826487 -1.599053,0 -2.344189,0.322524 -3.328421,1.440671 -0.945668,1.074335 -1.25872,2.003283 -1.25872,3.73511 0,2.626742 1.192062,4.419631 3.334229,5.014754 1.071158,0.297583 2.400569,0.168156 3.367491,-0.327847 z"
     id="path5731"
     inkscape:connector-curvature="0" /></svg>