<?xml version="1.0" encoding="UTF-8" standalone="no"?>
<svg
   xmlns:dc="http://purl.org/dc/elements/1.1/"
   xmlns:cc="http://creativecommons.org/ns#"
   xmlns:rdf="http://www.w3.org/1999/02/22-rdf-syntax-ns#"
   xmlns:svg="http://www.w3.org/2000/svg"
   xmlns="http://www.w3.org/2000/svg"
   xmlns:sodipodi="http://sodipodi.sourceforge.net/DTD/sodipodi-0.dtd"
   xmlns:inkscape="http://www.inkscape.org/namespaces/inkscape"
   width="370.343"
   height="148.378"
   viewBox="0 0 370.343 148.378"
   version="1.1"
   id="svg4511"
   sodipodi:docname="clickdealer.svg"
   inkscape:version="0.92.1 r15371">
  <metadata
     id="metadata4517">
    <rdf:RDF>
      <cc:Work
         rdf:about="">
        <dc:format>image/svg+xml</dc:format>
        <dc:type
           rdf:resource="http://purl.org/dc/dcmitype/StillImage" />
      </cc:Work>
    </rdf:RDF>
  </metadata>
  <defs
     id="defs4515" />
  <sodipodi:namedview
     pagecolor="#ffffff"
     bordercolor="#666666"
     borderopacity="1"
     objecttolerance="10"
     gridtolerance="10"
     guidetolerance="10"
     inkscape:pageopacity="0"
     inkscape:pageshadow="2"
     inkscape:window-width="1920"
     inkscape:window-height="1016"
     id="namedview4513"
     showgrid="false"
     inkscape:zoom="1.9454938"
     inkscape:cx="112.60995"
     inkscape:cy="95.226227"
     inkscape:window-x="-8"
     inkscape:window-y="-8"
     inkscape:window-maximized="1"
     inkscape:current-layer="svg4511" />
  <path
     d="M0 0l9.871 92 25.348-25.575 35.395-6.631-70.614-59.794zm16.567 31.249l24.228 20.522-12.095 2.365-8.736 8.684-3.397-31.571z"
     fill="#1C4175"
     id="path4485" />
  <path
     fill="#183F6D"
     d="M70.613 59.794l-29.818-8.023-24.228-20.522-16.567-31.249z"
     id="path4487" />
  <path
     fill="#094C8F"
     d="M70.613 59.794l-35.394 6.631-6.519-12.289 12.095-2.365zM9.871 92l10.093-29.18-3.397-31.571-16.567-31.249z"
     id="path4489" />
  <path
     fill="#183F6D"
     d="M9.871 92l25.348-25.575-6.519-12.289-8.736 8.684z"
     id="path4491" />
  <path
     d="M102.77 33.036c-.256-1.338-1.026-2.466-2.316-3.389-1.289-.925-2.856-1.386-4.703-1.386-2.863 0-5.042.83-6.539 2.481-1.499 1.658-2.242 3.678-2.242 6.065 0 1.115.156 2.189.476 3.221.317 1.038.813 1.952 1.481 2.745.667.797 1.511 1.426 2.529 1.889 1.019.46 2.212.69 3.578.69 2.39 0 4.108-.43 5.157-1.289 1.054-.858 1.96-2.292 2.723-4.295h6.876c-.35 2.418-1.155 4.378-2.413 5.873s-2.656 2.577-4.201 3.246c-1.543.669-2.935 1.089-4.177 1.265s-2.324.262-3.248.262c-2.703 0-5.067-.365-7.086-1.098-2.022-.732-3.662-1.735-4.92-3.009-1.258-1.271-2.182-2.72-2.767-4.345-.593-1.621-.887-3.342-.887-5.156 0-4.138 1.401-7.439 4.201-9.908 2.801-2.466 6.62-3.699 11.458-3.699 1.178 0 2.46.128 3.847.382 1.384.254 2.791.73 4.223 1.432 1.434.7 2.684 1.711 3.75 3.032 1.064 1.321 1.757 2.982 2.074 4.989h-6.874zM114.084 14.799h6.587v34.659h-6.587zM126.402 14.799h6.585v5.345h-6.585v-5.345zm0 9.356h6.585v25.303h-6.585v-25.303zM160.109 33.036c-.257-1.338-1.029-2.466-2.317-3.389-1.288-.925-2.855-1.386-4.702-1.386-2.863 0-5.043.83-6.54 2.481-1.496 1.658-2.244 3.678-2.244 6.065 0 1.115.157 2.189.477 3.221.319 1.038.813 1.952 1.479 2.745.671.797 1.51 1.426 2.532 1.889 1.02.46 2.212.69 3.583.69 2.384 0 4.104-.43 5.153-1.289s1.957-2.292 2.72-4.295h6.878c-.35 2.418-1.156 4.378-2.414 5.873-1.256 1.495-2.657 2.577-4.199 3.246-1.545.669-2.935 1.089-4.177 1.265-1.243.176-2.325.262-3.248.262-2.703 0-5.069-.365-7.088-1.098-2.024-.732-3.663-1.735-4.921-3.009-1.256-1.271-2.179-2.72-2.768-4.345-.589-1.621-.884-3.342-.884-5.156 0-4.138 1.401-7.439 4.2-9.908 2.803-2.466 6.62-3.699 11.46-3.699 1.176 0 2.458.128 3.844.382 1.384.254 2.791.73 4.225 1.432 1.432.7 2.679 1.711 3.747 3.032 1.066 1.321 1.761 2.982 2.078 4.989h-6.874zM171.232 14.799h6.589v19.477l11.698-10.121h9.309l-11.699 9.55 12.702 15.753h-8.883l-8.974-11.554-4.153 3.391v8.163h-6.589z"
     id="path4493" />
  <path
     d="M230.434 49.458h-6.589v-3.485h-.096c-.128.417-.463.875-1.004 1.384-.541.512-1.248.994-2.123 1.457-.878.462-1.882.845-3.01 1.147-1.127.302-2.314.455-3.553.455-2.327 0-4.362-.384-6.115-1.148-1.751-.763-3.198-1.797-4.342-3.103-1.146-1.304-1.999-2.753-2.556-4.343-.556-1.59-.837-3.23-.837-4.917 0-1.655.281-3.28.837-4.871.557-1.59 1.401-3.032 2.531-4.32 1.13-1.292 2.577-2.317 4.345-3.082 1.767-.765 3.81-1.147 6.137-1.147 2.099 0 4.01.352 5.729 1.052 1.715.701 3.035 1.781 3.961 3.248h.096v-12.986h6.589v34.659zm-22.871-9.38c.319 1.001.818 1.902 1.507 2.695.681.799 1.573 1.426 2.672 1.889 1.096.46 2.392.69 3.889.69 1.496 0 2.787-.229 3.867-.69 1.083-.463 1.965-1.09 2.652-1.889.681-.793 1.186-1.694 1.503-2.695.319-1.006.478-2.061.478-3.173 0-1.116-.158-2.166-.478-3.154-.317-.984-.822-1.869-1.503-2.649-.688-.78-1.578-1.399-2.672-1.862-1.102-.46-2.384-.692-3.848-.692-1.497 0-2.793.231-3.889.692-1.099.463-1.991 1.082-2.672 1.862-.688.78-1.188 1.671-1.507 2.672-.317 1.006-.476 2.047-.476 3.131.002 1.112.16 2.167.477 3.173"
     fill="#094C8F"
     id="path4495" />
  <path
     d="M241.846 38.48c.03.795.205 1.598.52 2.407.319.814.808 1.577 1.459 2.294.652.717 1.535 1.305 2.651 1.766 1.11.46 2.434.692 3.961.692 2.037 0 3.618-.312 4.752-.931 1.13-.62 2.059-1.518 2.791-2.695h7.162c-.479.923-1.043 1.839-1.695 2.745-.653.906-1.535 1.79-2.649 2.649-1.116.858-2.523 1.575-4.227 2.145-1.705.575-3.684.862-5.942.862-2.736 0-5.118-.365-7.137-1.098-2.024-.732-3.652-1.726-4.897-2.984-1.242-1.258-2.152-2.68-2.742-4.274-.589-1.591-.884-3.261-.884-5.012 0-2.07.363-3.965 1.098-5.681.731-1.719 1.775-3.185 3.125-4.393 1.354-1.21 2.971-2.141 4.846-2.791 1.878-.653 3.937-.979 6.161-.979 2.705 0 5.053.38 7.044 1.145 1.986.763 3.602 1.814 4.845 3.148 1.24 1.338 2.154 2.856 2.746 4.561.585 1.703.884 3.525.884 5.467v.956h-23.872zm16.992-4.204c-.189-1.208-.579-2.244-1.172-3.103-.587-.86-1.292-1.544-2.122-2.051-.829-.51-1.684-.875-2.577-1.101-.895-.222-1.781-.334-2.674-.334-.828 0-1.671.113-2.529.334-.86.226-1.697.583-2.51 1.077-.809.493-1.518 1.166-2.122 2.026-.605.86-1.036 1.91-1.286 3.152h16.992zM297.413 43.679c0 .608.146.998.432 1.174.285.174.624.262 1.004.262.313 0 .7-.015 1.142-.049.449-.029.779-.062 1.005-.094v4.63l-.715.141c-.731.161-1.382.271-1.937.338-.558.062-1.23.094-2.029.094-.981 0-1.807-.113-2.455-.333-.653-.224-1.156-.512-1.506-.86-.35-.352-.587-.684-.717-1.003-.125-.317-.224-.667-.287-1.049-.413.413-.912.803-1.501 1.17-.59.367-1.354.732-2.29 1.097-.942.367-2.099.661-3.465.885-1.369.22-2.912.333-4.632.333-3.276 0-5.817-.702-7.614-2.101-1.795-1.399-2.699-3.341-2.699-5.825 0-1.623.371-2.949 1.1-3.985.73-1.036 1.667-1.824 2.797-2.363 1.125-.543 2.257-.917 3.389-1.124 1.128-.207 2.474-.373 4.035-.501h.044c2.675-.252 4.638-.468 5.897-.642 1.26-.176 2.222-.367 2.889-.574.669-.206 1.114-.462 1.336-.764.222-.302.333-.708.333-1.218 0-1.336-.643-2.277-1.931-2.818-1.289-.541-3.036-.813-5.23-.813-4.358 0-6.666 1.403-6.92 4.202h-6.445c.445-3.181 1.789-5.425 4.031-6.73 2.244-1.306 5.357-1.956 9.334-1.956 3.12 0 5.62.268 7.495.809 1.879.541 3.256 1.233 4.133 2.078.874.845 1.422 1.711 1.646 2.604.221.887.333 1.892.333 3.005v11.98zm-6.587-6.824c-.889.382-1.876.66-2.961.835-1.08.174-2.977.422-5.682.74-2.386.287-4.011.717-4.867 1.289-.861.573-1.288 1.417-1.288 2.531 0 .795.157 1.457.475 1.98.318.525.739.933 1.269 1.219.524.285 1.086.486 1.69.597.605.111 1.225.168 1.865.168.984 0 2.021-.112 3.099-.334 1.084-.224 2.11-.59 3.082-1.099.973-.508 1.764-1.225 2.387-2.148.622-.921.932-2.038.932-3.341v-2.437zM304.05 14.799h6.588v34.659h-6.588zM322.242 38.48c.029.795.205 1.598.524 2.407.317.814.803 1.577 1.454 2.294.656.717 1.537 1.305 2.649 1.766 1.116.46 2.436.692 3.963.692 2.038 0 3.621-.312 4.752-.931 1.13-.62 2.061-1.518 2.795-2.695h7.159c-.477.923-1.042 1.839-1.69 2.745-.655.906-1.542 1.79-2.654 2.649-1.111.858-2.523 1.575-4.225 2.145-1.702.575-3.684.862-5.945.862-2.737 0-5.115-.365-7.134-1.098-2.024-.732-3.653-1.726-4.896-2.984-1.243-1.258-2.158-2.68-2.743-4.274-.593-1.591-.888-3.261-.888-5.012 0-2.07.367-3.965 1.102-5.681.73-1.719 1.772-3.185 3.125-4.393 1.354-1.21 2.965-2.141 4.847-2.791 1.881-.653 3.93-.979 6.16-.979 2.703 0 5.055.38 7.043 1.145 1.985.763 3.603 1.814 4.842 3.148 1.242 1.338 2.154 2.856 2.747 4.561.587 1.703.883 3.525.883 5.467v.956h-23.87zm16.996-4.204c-.191-1.208-.581-2.244-1.172-3.103-.589-.86-1.296-1.544-2.124-2.051-.825-.51-1.688-.875-2.578-1.101-.891-.222-1.784-.334-2.675-.334-.823 0-1.672.113-2.526.334-.862.226-1.696.583-2.507 1.077-.815.493-1.523 1.166-2.123 2.026-.608.86-1.038 1.91-1.291 3.152h16.996zM350.648 24.155h6.583v4.918h.1c1.052-1.688 2.323-3.038 3.817-4.059 1.497-1.017 3.408-1.529 5.733-1.529.793 0 1.67.081 2.624.241v6.492c-.795-.254-1.516-.421-2.148-.501-.637-.08-1.324-.119-2.055-.119-.926 0-1.845.126-2.767.382-.923.252-1.791.685-2.604 1.287-.811.606-1.464 1.401-1.957 2.388-.493.988-.744 2.181-.744 3.582v12.221h-6.583v-25.303z"
     fill="#094C8F"
     id="path4497" />
  <path
     d="M145.315 72.972c-.016.061-.136.218-.355.47-.155.188-.369.354-.625.497-.264.146-.614.256-1.052.338-.438.08-1.007.123-1.723.123-.945 0-1.756-.052-2.427-.146-.668-.098-1.216-.247-1.639-.449-.425-.201-.732-.459-.931-.772-.193-.313-.295-.688-.295-1.124 0-.455.054-.841.159-1.156.106-.315.266-.581.474-.797.207-.214.455-.382.748-.5.294-.123.629-.212 1.003-.275.373-.063.782-.103 1.229-.119.441-.015.917-.023 1.418-.023.717 0 1.317.029 1.801.09.479.06.874.136 1.18.228s.539.191.692.294c.16.105.272.201.342.291 0-.585-.027-1.086-.076-1.499-.052-.415-.131-.761-.239-1.038-.118-.277-.262-.499-.441-.662-.176-.166-.394-.291-.652-.375-.262-.084-.563-.136-.909-.161-.345-.025-.736-.036-1.186-.036-.69 0-1.262.017-1.721.054-.451.032-.816.099-1.082.199-.268.099-.453.237-.563.413-.111.176-.166.401-.166.685h-1.505c0-.474.084-.877.254-1.208.167-.329.451-.597.848-.807.396-.205.915-.354 1.556-.447.646-.096 1.439-.142 2.38-.142.925 0 1.703.076 2.342.226.641.153 1.154.42 1.55.803.393.38.679.895.854 1.541.176.65.264 1.464.264 2.455v4.271h-1.506v-1.242zm-3.503.173c.665 0 1.222-.031 1.669-.094.449-.063.807-.155 1.078-.281.275-.122.466-.277.585-.462.114-.186.172-.401.172-.65s-.069-.459-.203-.631c-.136-.176-.354-.315-.663-.422-.312-.109-.725-.189-1.238-.235-.515-.05-1.146-.075-1.904-.075-.749 0-1.359.014-1.819.037-.467.027-.822.086-1.074.18-.251.094-.417.229-.507.409-.084.183-.13.426-.13.738 0 .308.046.562.138.755.092.193.278.342.56.453.285.107.69.18 1.222.222.532.036 1.236.056 2.114.056z"
     id="path4499" />
  <path
     d="M165.924 65.92c0-.629-.068-1.126-.208-1.489-.138-.371-.359-.646-.677-.833-.31-.189-.725-.31-1.239-.363-.508-.05-1.143-.077-1.897-.077h-4.036c-.669 0-1.232.019-1.691.058-.459.038-.833.118-1.136.239-.296.121-.527.292-.691.518-.159.226-.279.523-.35.896-.077.371-.119.828-.129 1.371-.009.539-.013 1.189-.013 1.942 0 .753.004 1.401.017 1.942.014.543.054.998.132 1.371.073.373.188.669.347.895.16.228.392.399.688.518.303.123.677.203 1.136.239.459.041 1.022.06 1.691.06h4.042c.588 0 1.091-.016 1.516-.046.424-.031.785-.088 1.084-.174.298-.083.539-.197.723-.342.185-.149.326-.333.428-.555.1-.226.172-.493.208-.803.039-.31.058-.677.058-1.093v-.753h-6.05v-1.258h7.557v2.011c0 .501-.029.956-.098 1.361-.062.405-.174.769-.331 1.084-.162.315-.375.589-.641.82-.266.231-.607.42-1.015.567-.409.149-.895.26-1.459.331-.565.07-1.223.107-1.979.107h-4.042c-.921 0-1.697-.058-2.328-.17s-1.15-.281-1.56-.51-.721-.514-.948-.858c-.22-.346-.378-.751-.483-1.217-.102-.467-.161-.99-.176-1.579-.018-.587-.025-1.235-.025-1.946 0-.711.008-1.359.025-1.948.015-.585.074-1.112.176-1.577.105-.464.264-.872.483-1.217.228-.344.539-.631.948-.858.409-.229.929-.397 1.56-.511.631-.112 1.407-.17 2.328-.17h4.036c.755 0 1.412.035 1.98.107.562.071 1.047.176 1.454.321.407.146.748.325 1.021.547.27.22.482.478.645.776.157.298.27.635.331 1.013.068.378.098.795.098 1.256h-1.51zM169.944 74.211v-12.058h9.037c.92 0 1.696.053 2.327.161.629.107 1.15.27 1.563.491.409.22.725.493.952.826.218.327.378.715.483 1.164.102.447.162.952.182 1.514.016.562.026 1.189.026 1.873 0 .685-.011 1.312-.026 1.874-.02.562-.08 1.067-.182 1.514-.105.449-.266.837-.483 1.166-.228.331-.543.604-.952.824-.413.22-.935.384-1.563.491-.631.107-1.407.161-2.327.161h-9.037zm9.037-1.258c.662 0 1.228-.015 1.687-.054.459-.036.841-.111 1.14-.226.296-.111.527-.271.689-.489.159-.214.283-.497.355-.849.077-.355.123-.79.134-1.308.016-.512.021-1.128.021-1.847s-.006-1.334-.021-1.848c-.011-.516-.057-.95-.134-1.306-.072-.352-.196-.635-.355-.849-.162-.216-.394-.378-.689-.49-.299-.114-.681-.191-1.136-.226-.459-.038-1.024-.055-1.69-.055h-7.531v9.544h7.53zM188.536 63.158v11.053h-1.509v-12.058h2.424l7.025 10.552 7.032-10.552h2.485v12.058h-1.506v-10.888l-7.163 10.888h-1.521l-7.267-11.053zM222.825 72.953c0 .879-.101 1.611-.298 2.192-.198.58-.518 1.05-.958 1.409-.439.359-1.011.609-1.712.749-.702.142-1.555.214-2.56.214-.944 0-1.732-.042-2.375-.126-.642-.084-1.158-.218-1.55-.397-.396-.182-.675-.413-.845-.698-.167-.287-.255-.635-.255-1.042h1.507c0 .204.054.371.164.504.107.128.293.233.563.304.264.074.623.126 1.076.155.451.028 1.024.042 1.715.042.753 0 1.388-.027 1.899-.084.517-.053.928-.183 1.243-.386.313-.207.537-.514.675-.927.136-.415.202-.965.202-1.657-.074.126-.191.262-.352.409-.153.147-.39.283-.696.407-.306.128-.701.231-1.179.315-.486.084-1.082.126-1.793.126-1.004 0-1.858-.075-2.562-.226-.696-.149-1.268-.405-1.707-.765-.44-.359-.76-.847-.958-1.46-.199-.614-.299-1.38-.299-2.309 0-.94.1-1.721.299-2.338.198-.618.518-1.105.958-1.47.439-.359 1.011-.612 1.707-.761.703-.145 1.558-.218 2.562-.218.711 0 1.307.036 1.793.107.478.077.873.168 1.179.275.307.111.543.229.696.359.16.126.277.245.352.348v-.841h1.508v7.79zm-5.527-6.782c-.585 0-1.092.019-1.521.057-.426.035-.787.102-1.085.195-.301.094-.541.226-.725.394-.188.168-.335.38-.433.643-.103.264-.17.577-.206.944-.034.371-.05.803-.05 1.3 0 .493.016.921.05 1.285.036.363.104.674.206.933.098.26.245.474.433.642.184.167.424.298.725.39.298.096.659.163 1.085.197.429.04.936.056 1.521.056.502 0 .947-.012 1.344-.035.392-.025.739-.076 1.037-.157.297-.08.547-.199.758-.355.204-.153.376-.359.502-.619.136-.258.229-.581.289-.963.06-.386.09-.849.09-1.396 0-.543-.03-1.009-.09-1.397s-.153-.709-.289-.969c-.126-.26-.298-.462-.502-.616-.211-.153-.461-.268-.758-.346-.298-.079-.646-.128-1.037-.149-.397-.023-.842-.034-1.344-.034zM232.626 68.111c0-.377-.028-.69-.084-.939-.054-.249-.184-.449-.39-.596-.201-.149-.505-.254-.904-.313-.399-.061-.944-.092-1.637-.092-.677 0-1.225.061-1.651.176-.424.121-.757.287-.998.501-.238.214-.403.47-.487.769-.088.298-.13.631-.13.998v5.597h-1.51v-9.045h1.51v1.438c.05-.161.147-.34.293-.535.139-.199.352-.382.64-.551.289-.172.662-.313 1.12-.428.457-.115 1.03-.172 1.713-.172.786 0 1.429.069 1.92.207.491.139.875.344 1.148.611.273.271.461.604.557 1.004.099.396.143.854.143 1.373h-1.253zM234.636 69.587c0-.919.097-1.677.298-2.281.197-.604.516-1.078.954-1.434.441-.352 1.013-.6 1.715-.742.699-.145 1.552-.214 2.556-.214 1.009 0 1.859.069 2.56.214.703.142 1.276.39 1.716.742.437.355.76.83.956 1.434.199.604.299 1.361.299 2.281 0 .935-.1 1.711-.299 2.326-.196.62-.52 1.109-.956 1.476-.439.363-1.013.619-1.716.768-.7.151-1.551.228-2.56.228-1.004 0-1.856-.076-2.556-.228-.702-.149-1.273-.405-1.715-.768-.438-.367-.757-.856-.954-1.476-.202-.615-.298-1.392-.298-2.326zm1.506 0c0 .499.016.929.056 1.298.036.367.106.683.208.946.1.266.247.48.427.644.184.168.424.298.721.398.298.097.661.164 1.089.201.425.038.936.055 1.517.055.504 0 .955-.011 1.348-.034.397-.025.737-.077 1.036-.161.294-.083.55-.201.763-.354.206-.153.376-.361.502-.625.127-.264.224-.588.281-.973.062-.386.092-.851.092-1.396 0-.533-.03-.984-.092-1.359-.058-.378-.154-.692-.281-.946-.126-.254-.296-.453-.502-.602-.213-.145-.469-.258-.763-.333-.299-.076-.639-.122-1.036-.144-.393-.021-.844-.032-1.348-.032-.499 0-.95.011-1.346.032-.393.021-.74.067-1.034.144-.299.075-.549.188-.759.333-.211.149-.379.348-.507.602-.126.254-.22.568-.283.946-.059.376-.089.827-.089 1.36zM248.955 65.166v4.978c0 .554.042 1.021.126 1.403.08.378.25.686.499.921.254.233.613.401 1.074.504.457.104 1.066.157 1.818.157.821 0 1.488-.059 2.013-.18.52-.119.931-.291 1.229-.506.301-.216.503-.48.616-.784.108-.308.166-.646.166-1.019v-5.475h1.508v9.045h-1.508v-1.583c-.07.172-.193.358-.367.562-.174.207-.432.396-.78.572-.344.174-.789.321-1.338.441-.545.119-1.224.182-2.037.182-.673 0-1.254-.042-1.74-.122-.481-.083-.893-.201-1.227-.361-.341-.161-.612-.357-.813-.593-.209-.235-.363-.508-.473-.822-.106-.31-.186-.656-.22-1.04-.038-.382-.058-.801-.058-1.254l.008-5.027h1.504zM265.542 64.917c1.003 0 1.855.073 2.558.224.701.151 1.274.409 1.713.771.439.365.759.853.955 1.46.201.61.299 1.376.299 2.294 0 .918-.098 1.681-.299 2.287-.196.609-.516 1.093-.955 1.451-.438.359-1.012.614-1.713.759-.702.149-1.555.224-2.558.224-.719 0-1.317-.042-1.801-.126-.48-.084-.876-.189-1.18-.315-.306-.126-.539-.26-.701-.405-.159-.146-.273-.283-.337-.409v4.097h-1.512v-12.06h1.512v.841c.063-.103.178-.222.337-.348.162-.13.396-.249.701-.359.304-.107.699-.199 1.18-.275.484-.075 1.082-.111 1.801-.111zm0 1.254c-.505 0-.952.013-1.345.042-.394.023-.735.077-1.033.157-.303.081-.555.197-.762.348-.206.153-.372.357-.504.615-.132.256-.228.574-.289.95s-.086.83-.086 1.361c0 .532.024.988.086 1.373.062.382.157.702.289.958.132.256.298.46.504.611.207.153.459.271.762.352.298.08.64.132 1.033.157.393.023.84.034 1.345.034.585 0 1.093-.017 1.516-.055.426-.037.789-.102 1.086-.193.302-.095.543-.224.731-.39.186-.165.325-.377.431-.631.103-.258.172-.566.206-.925.029-.359.048-.784.048-1.27 0-.485-.019-.91-.048-1.273-.034-.363-.104-.673-.206-.933-.105-.258-.245-.47-.431-.635-.188-.167-.43-.298-.731-.397-.297-.098-.66-.165-1.086-.199-.423-.038-.931-.057-1.516-.057z"
     fill="#fff"
     id="path4501"
     style="fill:#19effa;fill-opacity:1" />
  <path
     d="M276.094 69.665c0-.623.03-1.173.094-1.651.064-.476.176-.893.336-1.247.155-.352.373-.646.641-.883.27-.235.609-.426 1.021-.572.411-.143.896-.25 1.463-.31.563-.063 1.225-.094 1.975-.094 1.009 0 1.837.061 2.482.184.654.122 1.166.31 1.543.566.377.252.637.575.784.963.145.392.226.854.226 1.396h-1.513l-.017-.543c-.008-.165-.046-.317-.115-.455-.062-.138-.166-.256-.306-.367-.142-.105-.344-.195-.609-.271-.259-.069-.591-.126-.99-.161-.4-.039-.898-.058-1.485-.058-.666 0-1.229.023-1.69.071-.461.046-.837.123-1.135.229-.297.107-.532.247-.69.426-.164.18-.283.397-.355.658-.073.258-.121.562-.13.91-.016.35-.02.753-.02 1.208 0 .446.004.839.02 1.182.009.348.057.646.13.904.072.256.191.472.355.646.158.178.394.319.69.426.298.111.674.187 1.135.233.461.048 1.024.073 1.69.073.587 0 1.085-.023 1.485-.061.399-.042.731-.098.99-.174.266-.075.468-.17.609-.277.14-.113.244-.241.306-.384.069-.144.107-.3.115-.474.013-.174.017-.361.017-.564h1.513c0 .551-.081 1.028-.226 1.432-.147.403-.407.732-.784.992-.377.26-.889.451-1.543.578-.646.126-1.474.189-2.482.189-.75 0-1.411-.032-1.975-.096-.566-.063-1.052-.168-1.463-.313-.411-.145-.751-.336-1.021-.573-.268-.239-.485-.529-.641-.879-.16-.35-.271-.759-.336-1.229-.064-.475-.094-1.018-.094-1.63zM288.413 69.587c0-.919.098-1.677.295-2.281.202-.604.521-1.078.961-1.434.437-.352 1.012-.6 1.707-.742.702-.145 1.557-.214 2.56-.214 1.008 0 1.86.069 2.562.214.7.142 1.273.39 1.713.742.44.355.759.83.958 1.434.197.604.296 1.361.296 2.281 0 .935-.099 1.711-.296 2.326-.199.62-.518 1.109-.958 1.476-.439.363-1.013.619-1.713.768-.701.151-1.554.228-2.562.228-1.003 0-1.857-.076-2.56-.228-.695-.149-1.271-.405-1.707-.768-.439-.367-.759-.856-.961-1.476-.197-.615-.295-1.392-.295-2.326zm1.507 0c0 .499.018.929.056 1.298.036.367.104.683.208.946.098.266.245.48.428.644.182.168.423.298.721.398.299.097.658.164 1.086.201.429.038.935.055 1.518.055.507 0 .954-.011 1.35-.034.395-.025.74-.077 1.038-.161.291-.083.547-.201.757-.354.207-.153.379-.361.503-.625.13-.264.228-.588.285-.973.062-.386.092-.851.092-1.396 0-.533-.03-.984-.092-1.359-.058-.378-.155-.692-.285-.946-.124-.254-.296-.453-.503-.602-.21-.145-.466-.258-.757-.333-.298-.076-.644-.122-1.038-.144-.396-.021-.843-.032-1.35-.032-.5 0-.949.011-1.344.032-.394.021-.743.067-1.034.144-.298.075-.548.188-.761.333-.208.149-.376.348-.508.602-.125.254-.22.568-.281.946-.059.376-.089.827-.089 1.36zM310.773 74.211h-1.509v-5.102c0-.545-.034-1.003-.104-1.378-.073-.375-.215-.676-.435-.906-.218-.231-.521-.397-.919-.499-.395-.101-.914-.155-1.555-.155-.711 0-1.288.061-1.743.176-.461.121-.818.283-1.078.497-.262.21-.445.466-.543.765-.104.298-.152.631-.152.998v5.604h-1.513v-9.045h1.513v1.432l.068-.159c.04-.088.118-.195.224-.317.107-.122.252-.256.438-.396.189-.144.429-.273.723-.394.299-.12.652-.22 1.074-.3.415-.077.912-.115 1.489-.115.566 0 1.056.034 1.472.103.417.073.772.176 1.069.315.294.14.539.312.723.518.185.207.332.443.445.711.088-.141.226-.304.414-.493.189-.191.449-.371.792-.542.334-.174.757-.317 1.266-.436.506-.119 1.129-.176 1.861-.176.601 0 1.116.04 1.551.122.428.081.793.199 1.093.359.297.161.537.357.715.595.184.235.323.506.423.82.096.31.158.658.189 1.044.03.382.046.803.046 1.252v5.102h-1.507v-5.102c0-.545-.036-1.003-.106-1.378-.069-.375-.213-.676-.433-.906-.216-.231-.52-.397-.917-.499-.393-.101-.912-.155-1.559-.155-.705 0-1.29.061-1.741.176-.455.121-.814.283-1.078.497-.264.21-.441.466-.545.765-.103.298-.15.631-.15.998v5.604zM326.345 64.917c1.006 0 1.858.073 2.562.224.699.151 1.273.409 1.711.771.438.365.759.853.958 1.46.196.61.298 1.376.298 2.294 0 .918-.102 1.681-.298 2.287-.199.609-.521 1.093-.958 1.451-.438.359-1.012.614-1.711.759-.703.149-1.556.224-2.562.224-.719 0-1.315-.042-1.799-.126-.479-.084-.873-.189-1.182-.315-.306-.126-.539-.26-.697-.405-.161-.146-.273-.283-.341-.409v4.097h-1.51v-12.06h1.51v.841c.067-.103.18-.222.341-.348.158-.13.392-.249.697-.359.309-.107.702-.199 1.182-.275.483-.075 1.08-.111 1.799-.111zm0 1.254c-.501 0-.95.013-1.344.042-.394.023-.738.077-1.032.157-.304.081-.557.197-.761.348-.207.153-.373.357-.507.615-.13.256-.228.574-.286.95-.062.376-.089.83-.089 1.361 0 .532.027.988.089 1.373.059.382.156.702.286.958.134.256.3.46.507.611.204.153.457.271.761.352.294.08.639.132 1.032.157.394.023.843.034 1.344.034.587 0 1.094-.017 1.518-.055.425-.037.79-.102 1.088-.193.302-.095.543-.224.727-.39.188-.165.331-.377.434-.631.102-.258.172-.566.205-.925.03-.359.048-.784.048-1.27 0-.485-.018-.91-.048-1.273-.033-.363-.104-.673-.205-.933-.103-.258-.246-.47-.434-.635-.184-.167-.425-.298-.727-.397-.298-.098-.663-.165-1.088-.199-.425-.038-.931-.057-1.518-.057zM342.639 72.972c-.019.061-.136.218-.357.47-.154.188-.365.354-.623.497-.266.146-.617.256-1.048.338-.441.08-1.013.123-1.728.123-.944 0-1.755-.052-2.426-.146-.665-.098-1.216-.247-1.641-.449-.42-.201-.733-.459-.931-.772-.193-.313-.294-.688-.294-1.124 0-.455.052-.841.16-1.156.109-.315.268-.581.473-.797.208-.214.454-.382.749-.5.294-.123.629-.212 1.002-.275.376-.063.783-.103 1.229-.119.443-.015.922-.023 1.421-.023.715 0 1.314.029 1.801.09.481.06.871.136 1.177.228.311.092.539.191.696.294.158.105.27.201.34.291 0-.585-.026-1.086-.078-1.499-.05-.415-.13-.761-.239-1.038-.112-.277-.262-.499-.439-.662-.176-.166-.397-.291-.653-.375-.261-.084-.563-.136-.906-.161-.348-.025-.74-.036-1.188-.036-.689 0-1.264.017-1.718.054-.455.032-.818.099-1.086.199-.268.099-.453.237-.566.413-.108.176-.162.401-.162.685h-1.506c0-.474.082-.877.256-1.208.166-.329.451-.597.847-.807.396-.205.916-.354 1.556-.447.646-.096 1.438-.142 2.38-.142.926 0 1.701.076 2.338.226.643.153 1.155.42 1.553.803.394.38.681.895.856 1.541.176.65.262 1.464.262 2.455v4.271h-1.505v-1.242zm-3.504.173c.664 0 1.222-.031 1.667-.094.453-.063.809-.155 1.08-.281.275-.122.467-.277.583-.462.115-.186.174-.401.174-.65s-.07-.459-.204-.631c-.132-.176-.354-.315-.663-.422-.312-.109-.723-.189-1.239-.235-.512-.05-1.145-.075-1.9-.075-.749 0-1.364.014-1.823.037-.465.027-.82.086-1.074.18-.25.094-.417.229-.509.409-.082.183-.126.426-.126.738 0 .308.044.562.134.755.094.193.281.342.563.453.288.107.693.18 1.221.222.534.036 1.239.056 2.116.056zM355.198 74.211v-5.023c0-.562-.04-1.032-.125-1.418-.084-.384-.25-.694-.498-.929-.251-.237-.61-.405-1.071-.51-.46-.105-1.066-.159-1.819-.159-.82 0-1.485.061-2.009.182-.519.12-.926.291-1.229.51-.298.222-.505.484-.613.792-.115.31-.167.654-.167 1.028v5.528h-1.512v-9.045h1.512v1.508c.105-.256.268-.478.469-.664.204-.184.436-.344.688-.474.258-.134.537-.237.833-.317.296-.08.599-.145.896-.191.298-.042.589-.073.866-.088.283-.016.539-.023.769-.023.669 0 1.246.042 1.731.126.483.081.893.207 1.231.367.334.163.605.363.813.604.2.241.361.52.472.837.117.315.188.669.228 1.059.036.39.052.814.052 1.277l-.008 5.023h-1.509zM357.722 65.166l1.758.004 4.019 8.036 3.804-8.01h1.78l-4.528 9.042-.253.504c-.122.252-.243.49-.367.711-.122.222-.266.424-.432.604-.164.184-.361.348-.585.489-.226.146-.493.266-.805.367-.306.099-.683.18-1.11.231-.429.052-.94.081-1.522.081v-1.254c.499 0 .928-.021 1.27-.063.348-.036.635-.095.868-.168.235-.079.422-.168.565-.271.14-.105.257-.222.348-.355.096-.13.18-.271.251-.417l.231-.479-.521-.006-4.771-9.046z"
     id="path4503" />
</svg>
