<?xml version="1.0" encoding="UTF-8" standalone="no"?>
<!-- Generator: Adobe Illustrator 21.0.0, SVG Export Plug-In . SVG Version: 6.00 Build 0)  -->

<svg
   xmlns:dc="http://purl.org/dc/elements/1.1/"
   xmlns:cc="http://creativecommons.org/ns#"
   xmlns:rdf="http://www.w3.org/1999/02/22-rdf-syntax-ns#"
   xmlns:svg="http://www.w3.org/2000/svg"
   xmlns="http://www.w3.org/2000/svg"
   xmlns:xlink="http://www.w3.org/1999/xlink"
   xmlns:sodipodi="http://sodipodi.sourceforge.net/DTD/sodipodi-0.dtd"
   xmlns:inkscape="http://www.inkscape.org/namespaces/inkscape"
   version="1.1"
   id="Ebene_1"
   x="0px"
   y="0px"
   viewBox="0 0 300 80"
   style="enable-background:new 0 0 300 80;"
   xml:space="preserve"
   sodipodi:docname="Sgm.svg"
   inkscape:version="0.92.1 r15371"><metadata
     id="metadata4561"><rdf:RDF><cc:Work
         rdf:about=""><dc:format>image/svg+xml</dc:format><dc:type
           rdf:resource="http://purl.org/dc/dcmitype/StillImage" /></cc:Work></rdf:RDF></metadata><defs
     id="defs4559" /><sodipodi:namedview
     pagecolor="#ffffff"
     bordercolor="#666666"
     borderopacity="1"
     objecttolerance="10"
     gridtolerance="10"
     guidetolerance="10"
     inkscape:pageopacity="0"
     inkscape:pageshadow="2"
     inkscape:window-width="1920"
     inkscape:window-height="1016"
     id="namedview4557"
     showgrid="false"
     inkscape:zoom="2.4016667"
     inkscape:cx="69.976642"
     inkscape:cy="49.174134"
     inkscape:window-x="-8"
     inkscape:window-y="-8"
     inkscape:window-maximized="1"
     inkscape:current-layer="Ebene_1" /><style
     type="text/css"
     id="style4485">
	.st0{clip-path:url(#SVGID_2_);}
	.st1{clip-path:url(#SVGID_4_);fill:#30ACE3;}
	.st2{clip-path:url(#SVGID_4_);fill:#FFFFFF;}
</style><g
     id="logo"
     style="stroke:#30ace3;stroke-opacity:0"><g
       id="g4553"
       style="stroke:#30ace3;stroke-opacity:0"><defs
         id="defs4488"><rect
           id="SVGID_1_"
           x="5"
           y="6"
           width="256.4"
           height="70" /></defs><clipPath
         id="SVGID_2_"><use
           xlink:href="#SVGID_1_"
           style="overflow:visible;"
           id="use4490" /></clipPath><g
         class="st0"
         clip-path="url(#SVGID_2_)"
         id="g4551"
         style="stroke:#30ace3;stroke-opacity:0"><defs
           id="defs4494"><rect
             id="SVGID_3_"
             x="5"
             y="6"
             width="256.4"
             height="70" /></defs><clipPath
           id="SVGID_4_"><use
             xlink:href="#SVGID_3_"
             style="overflow:visible;"
             id="use4496" /></clipPath><path
           class="st1"
           d="M68.7,72.6v3.1h-1.6V67H70c0.6,0,1.1,0.1,1.5,0.2c0.4,0.1,0.8,0.3,1.1,0.6c0.3,0.2,0.5,0.5,0.6,0.9     c0.1,0.3,0.2,0.7,0.2,1.1c0,0.4-0.1,0.8-0.2,1.2c-0.1,0.3-0.3,0.6-0.6,0.9c-0.3,0.3-0.6,0.4-1,0.6c-0.4,0.1-0.9,0.2-1.5,0.2H68.7     z M68.7,71.3H70c0.3,0,0.6,0,0.8-0.1c0.2-0.1,0.4-0.2,0.5-0.3c0.1-0.1,0.3-0.3,0.3-0.5c0.1-0.2,0.1-0.4,0.1-0.7     c0-0.2,0-0.4-0.1-0.6c-0.1-0.2-0.2-0.3-0.3-0.5c-0.1-0.1-0.3-0.2-0.5-0.3c-0.2-0.1-0.5-0.1-0.8-0.1h-1.2V71.3z"
           clip-path="url(#SVGID_4_)"
           id="path4499"
           style="stroke:#30ace3;stroke-opacity:0" /><path
           class="st1"
           d="M80.5,75.7h-1.2c-0.1,0-0.3,0-0.3-0.1c-0.1-0.1-0.2-0.2-0.2-0.3L78,73.5h-3.6l-0.6,1.8     c0,0.1-0.1,0.2-0.2,0.3c-0.1,0.1-0.2,0.1-0.3,0.1H72l3.4-8.7h1.6L80.5,75.7z M74.9,72.4h2.8l-1.1-2.9c0-0.1-0.1-0.3-0.2-0.5     c-0.1-0.2-0.1-0.4-0.2-0.6c-0.1,0.2-0.1,0.4-0.2,0.6c-0.1,0.2-0.1,0.3-0.2,0.5L74.9,72.4z"
           clip-path="url(#SVGID_4_)"
           id="path4501"
           style="stroke:#30ace3;stroke-opacity:0" /><path
           class="st1"
           d="M82.2,72.3v3.4h-1.6V67h2.6c0.6,0,1.1,0.1,1.5,0.2c0.4,0.1,0.8,0.3,1,0.5c0.3,0.2,0.5,0.5,0.6,0.8     c0.1,0.3,0.2,0.6,0.2,1c0,0.3,0,0.6-0.1,0.8c-0.1,0.3-0.2,0.5-0.4,0.7c-0.2,0.2-0.4,0.4-0.6,0.6c-0.2,0.2-0.5,0.3-0.8,0.4     c0.2,0.1,0.4,0.3,0.5,0.5l2.2,3.2h-1.5c-0.1,0-0.3,0-0.4-0.1c-0.1-0.1-0.2-0.1-0.2-0.2l-1.8-2.8c-0.1-0.1-0.1-0.2-0.2-0.2     c-0.1,0-0.2-0.1-0.4-0.1H82.2z M82.2,71.1h1c0.3,0,0.6,0,0.8-0.1c0.2-0.1,0.4-0.2,0.6-0.3c0.1-0.1,0.3-0.3,0.3-0.5     C85,70,85,69.8,85,69.6c0-0.4-0.1-0.8-0.4-1c-0.3-0.2-0.7-0.4-1.3-0.4h-1V71.1z"
           clip-path="url(#SVGID_4_)"
           id="path4503"
           style="stroke:#30ace3;stroke-opacity:0" /><polygon
           class="st1"
           points="93.9,67 93.9,68.3 91.3,68.3 91.3,75.7 89.6,75.7 89.6,68.3 87,68.3 87,67    "
           clip-path="url(#SVGID_4_)"
           id="polygon4505"
           style="stroke:#30ace3;stroke-opacity:0" /><path
           class="st1"
           d="M103.9,71.3c0,0.6-0.1,1.2-0.3,1.8c-0.2,0.5-0.5,1-0.9,1.4c-0.4,0.4-0.8,0.7-1.4,0.9     c-0.5,0.2-1.1,0.3-1.8,0.3c-0.7,0-1.3-0.1-1.8-0.3c-0.5-0.2-1-0.5-1.4-0.9s-0.7-0.9-0.9-1.4c-0.2-0.5-0.3-1.1-0.3-1.8     c0-0.6,0.1-1.2,0.3-1.8c0.2-0.5,0.5-1,0.9-1.4c0.4-0.4,0.8-0.7,1.4-0.9c0.5-0.2,1.1-0.3,1.8-0.3c0.7,0,1.3,0.1,1.8,0.3     c0.5,0.2,1,0.5,1.4,0.9c0.4,0.4,0.7,0.9,0.9,1.4C103.8,70.1,103.9,70.7,103.9,71.3 M102.3,71.3c0-0.5-0.1-0.9-0.2-1.3     c-0.1-0.4-0.3-0.7-0.5-1c-0.2-0.3-0.5-0.5-0.9-0.6c-0.3-0.1-0.7-0.2-1.1-0.2c-0.4,0-0.8,0.1-1.1,0.2c-0.3,0.1-0.6,0.3-0.9,0.6     c-0.2,0.3-0.4,0.6-0.5,1c-0.1,0.4-0.2,0.8-0.2,1.3c0,0.5,0.1,0.9,0.2,1.3c0.1,0.4,0.3,0.7,0.5,1c0.2,0.3,0.5,0.5,0.9,0.6     c0.3,0.1,0.7,0.2,1.1,0.2c0.4,0,0.8-0.1,1.1-0.2c0.3-0.1,0.6-0.3,0.9-0.6c0.2-0.3,0.4-0.6,0.5-1     C102.2,72.2,102.3,71.8,102.3,71.3"
           clip-path="url(#SVGID_4_)"
           id="path4507"
           style="stroke:#30ace3;stroke-opacity:0" /><polygon
           class="st1"
           points="109.9,67 109.9,68.3 106,68.3 106,70.8 109.3,70.8 109.3,72.1 106,72.1 106,75.7 104.4,75.7      104.4,67    "
           clip-path="url(#SVGID_4_)"
           id="polygon4509"
           style="stroke:#30ace3;stroke-opacity:0" /><path
           class="st2"
           d="M87.9,27.1c-0.3,0.4-0.5,0.6-0.7,0.8c-0.3,0.2-0.6,0.3-1,0.3c-0.4,0-0.7-0.1-1.2-0.4     c-0.5-0.3-0.9-0.5-1.5-0.8c-0.5-0.4-1.2-0.5-1.8-0.8c-0.7-0.3-1.5-0.4-2.4-0.4c-1.5,0-2.6,0.4-3.4,1c-0.7,0.6-1.1,1.5-1.1,2.6     c0,0.7,0.2,1.3,0.6,1.7c0.5,0.5,1,0.8,1.7,1.2c0.7,0.4,1.5,0.6,2.5,0.9c0.9,0.3,1.9,0.5,2.8,0.9c1,0.4,1.9,0.7,2.8,1.2     c0.9,0.5,1.7,1.1,2.5,1.7c0.7,0.7,1.3,1.5,1.7,2.6c0.5,1.1,0.6,2.3,0.6,3.7c0,1.6-0.3,3.1-0.8,4.6c-0.5,1.5-1.4,2.6-2.5,3.6     c-1.1,1-2.4,1.8-3.9,2.5c-1.5,0.6-3.3,0.9-5.3,0.9c-1.1,0-2.2-0.1-3.3-0.4c-1.1-0.2-2.2-0.5-3.3-0.9c-1.1-0.4-2-0.9-3-1.5     c-0.9-0.5-1.7-1.2-2.4-1.8l2.4-3.7c0.2-0.3,0.5-0.5,0.7-0.7c0.3-0.2,0.6-0.3,1-0.3c0.5,0,1,0.2,1.5,0.5s1,0.6,1.6,1     c0.6,0.4,1.3,0.7,2.1,1c0.8,0.3,1.7,0.5,2.8,0.5c1.5,0,2.6-0.4,3.4-1c0.8-0.6,1.2-1.6,1.2-3.1c0-0.8-0.2-1.5-0.6-2     c-0.5-0.5-1-0.9-1.7-1.3s-1.5-0.6-2.5-0.9s-1.9-0.5-2.8-0.8c-1-0.3-1.9-0.7-2.8-1.2c-0.9-0.5-1.7-1.1-2.5-1.8s-1.3-1.6-1.7-2.7     c-0.5-1.1-0.6-2.5-0.6-4.1c0-1.3,0.3-2.6,0.8-3.8c0.5-1.3,1.3-2.4,2.3-3.3c1-1,2.3-1.7,3.7-2.4c1.5-0.5,3.2-0.9,5.1-0.9     c1.1,0,2.1,0.1,3.1,0.3c1,0.2,2,0.5,2.9,0.7c0.9,0.4,1.7,0.7,2.6,1.2c0.8,0.5,1.5,1,2.1,1.5L87.9,27.1z"
           clip-path="url(#SVGID_4_)"
           id="path4511"
           style="stroke:#30ace3;stroke-opacity:0;fill:#000000;fill-opacity:1" /><path
           class="st2"
           d="M110.1,49c1.1,0,2.1-0.1,3-0.3c0.8-0.2,1.6-0.5,2.5-0.7v-5.4h-3.5c-0.5,0-0.9-0.1-1.2-0.4     c-0.3-0.3-0.5-0.6-0.5-1v-4.5h12.4v14.7c-0.9,0.6-1.8,1.2-2.8,1.6c-1,0.5-2,0.8-3.1,1.2c-1.1,0.3-2.3,0.5-3.5,0.6     c-1.2,0.1-2.6,0.2-4,0.2c-2.6,0-4.9-0.5-7.1-1.4c-2.2-0.9-4-2.2-5.6-3.7c-1.5-1.5-2.8-3.5-3.7-5.6c-0.9-2.2-1.4-4.6-1.4-7.1     s0.5-5,1.3-7.2c0.8-2.2,2.1-4,3.7-5.6c1.6-1.5,3.6-2.8,5.8-3.6c2.3-0.9,4.8-1.3,7.7-1.3c1.5,0,2.8,0.1,4.1,0.4     c1.3,0.3,2.5,0.5,3.6,1c1.1,0.5,2.1,0.9,2.9,1.5c0.9,0.5,1.7,1.2,2.4,1.8l-2.4,3.6c-0.2,0.4-0.5,0.6-0.8,0.8     c-0.3,0.2-0.6,0.3-1,0.3c-0.5,0-1-0.2-1.5-0.5c-0.6-0.4-1.3-0.7-1.8-1c-0.5-0.3-1.2-0.5-1.7-0.6c-0.5-0.2-1.2-0.3-1.8-0.4     c-0.6-0.1-1.4-0.1-2.2-0.1c-1.5,0-2.9,0.3-4.1,0.8c-1.2,0.5-2.3,1.3-3.1,2.3c-0.8,1-1.5,2.1-2,3.5c-0.5,1.4-0.7,2.9-0.7,4.6     c0,1.8,0.3,3.5,0.7,4.9c0.5,1.5,1.2,2.6,2.1,3.6c0.9,1,2,1.7,3.2,2.3C107.4,48.7,108.7,49,110.1,49"
           clip-path="url(#SVGID_4_)"
           id="path4513"
           style="stroke:#30ace3;stroke-opacity:0;fill:#000000;fill-opacity:1" /><path
           class="st2"
           d="M146.2,40.8c0.3,0.6,0.5,1.4,0.8,2c0.3-0.7,0.5-1.4,0.8-2c0.3-0.6,0.6-1.3,0.9-1.9l8.9-17.6     c0.2-0.3,0.4-0.5,0.5-0.7c0.2-0.2,0.4-0.3,0.5-0.4c0.2-0.1,0.5-0.1,0.7-0.1h0.9h6.2v34.7h-7.1V34.9c0-1,0.1-2,0.2-3.2l-9.2,17.9     c-0.3,0.5-0.6,1-1.2,1.3c-0.5,0.3-1,0.5-1.6,0.5h-1.1c-0.6,0-1.2-0.2-1.6-0.5c-0.5-0.3-0.9-0.7-1.2-1.3l-9.3-17.9     c0.1,0.5,0.1,1.1,0.2,1.6c0,0.5,0.1,1.1,0.1,1.5v20h-7.1V20.1h6.2h0.9c0.3,0,0.5,0,0.7,0.1c0.2,0.1,0.4,0.2,0.5,0.4     c0.2,0.2,0.4,0.4,0.5,0.7l8.9,17.7C145.7,39.5,145.9,40.1,146.2,40.8"
           clip-path="url(#SVGID_4_)"
           id="path4515"
           style="stroke:#30ace3;stroke-opacity:0;fill:#000000;fill-opacity:1" /><path
           class="st1"
           d="M177,41.9v12.9h-4.7V20.1h10.3c2.2,0,4.1,0.3,5.7,0.7c1.6,0.5,3,1.2,4.1,2.1c1.1,0.9,1.8,2,2.4,3.5     c0.5,1.3,0.8,2.7,0.8,4.5c0,1.5-0.3,3.1-0.8,4.5c-0.5,1.4-1.4,2.5-2.5,3.5c-1.1,0.9-2.4,1.7-4.1,2.3c-1.5,0.5-3.5,0.8-5.6,0.8     H177z M177,38.2h5.6c1.4,0,2.5-0.2,3.6-0.5c1-0.4,1.8-0.8,2.6-1.5c0.7-0.6,1.2-1.4,1.5-2.3c0.4-0.9,0.5-1.8,0.5-3     c0-2.2-0.6-4-2-5.2c-1.4-1.2-3.5-1.8-6.2-1.8H177V38.2z"
           clip-path="url(#SVGID_4_)"
           id="path4517"
           style="stroke:#30ace3;stroke-opacity:0" /><path
           class="st1"
           d="M204.9,40.4v14.5h-4.7V20.1h9.8c2.2,0,4.1,0.2,5.7,0.6c1.5,0.5,3,1.1,4,1.9c1,0.8,1.8,1.8,2.3,3.1     c0.5,1.2,0.7,2.5,0.7,4c0,1.2-0.2,2.4-0.5,3.5c-0.4,1.1-0.9,2-1.6,2.8c-0.7,0.8-1.6,1.5-2.6,2.1c-1,0.5-2.2,1-3.6,1.4     c0.5,0.4,1.1,0.8,1.5,1.5L226,54.7h-4.2c-0.8,0-1.5-0.4-1.8-1l-9.2-12.3c-0.3-0.4-0.5-0.6-0.9-0.8c-0.4-0.2-0.8-0.3-1.5-0.3     L204.9,40.4L204.9,40.4z M204.9,37h4.9c1.4,0,2.6-0.2,3.6-0.5c1-0.4,1.9-0.8,2.6-1.4c0.7-0.6,1.2-1.3,1.5-2.1     c0.4-0.8,0.5-1.7,0.5-2.7c0-2-0.6-3.6-2-4.7c-1.4-1-3.5-1.5-6.1-1.5h-5.2L204.9,37z"
           clip-path="url(#SVGID_4_)"
           id="path4519"
           style="stroke:#30ace3;stroke-opacity:0" /><path
           class="st1"
           d="M261.4,37.5c0,2.6-0.4,5-1.2,7.1c-0.8,2.1-1.9,4.1-3.6,5.6c-1.5,1.5-3.4,2.7-5.5,3.6c-2.1,0.8-4.5,1.3-7,1.3     c-2.5,0-4.9-0.5-7-1.3c-2.1-0.8-3.9-2-5.4-3.6c-1.5-1.5-2.6-3.5-3.6-5.6c-0.8-2.2-1.2-4.6-1.2-7.1c0-2.6,0.4-5,1.2-7.1     c0.8-2.2,1.9-4.1,3.6-5.6c1.5-1.5,3.4-2.7,5.4-3.7c2.1-0.8,4.5-1.3,7-1.3c2.6,0,4.9,0.5,7,1.3c2.1,0.8,3.9,2.1,5.5,3.7     c1.5,1.5,2.6,3.5,3.6,5.6C261,32.5,261.4,34.9,261.4,37.5 M256.6,37.5c0-2.1-0.3-4.1-0.8-5.7c-0.5-1.6-1.4-3.2-2.5-4.4     c-1.1-1.2-2.4-2-3.9-2.6c-1.5-0.6-3.3-0.9-5.1-0.9c-1.8,0-3.6,0.3-5.1,0.9c-1.5,0.6-2.7,1.5-3.9,2.6c-1.1,1.2-1.9,2.6-2.5,4.4     c-0.5,1.6-0.8,3.6-0.8,5.7c0,2.1,0.3,4.1,0.8,5.7c0.5,1.6,1.4,3.2,2.5,4.3c1.1,1.2,2.4,2,3.9,2.6c1.5,0.6,3.3,0.9,5.1,0.9     c1.8,0,3.6-0.3,5.1-0.9c1.5-0.6,2.7-1.5,3.9-2.6c1.2-1.2,1.8-2.6,2.5-4.3C256.2,41.6,256.6,39.6,256.6,37.5"
           clip-path="url(#SVGID_4_)"
           id="path4521"
           style="stroke:#30ace3;stroke-opacity:0" /><path
           class="st2"
           d="M57.8,57.8c0.5-4.3,5.1-12.3,6.6-14.8c0.1-0.2-0.1-0.4-0.3-0.3C56,48.4,50.5,58,50.5,58     c-5.9,1.2-12.2,2.9-14.7,0.8c-3.3-3-2.1-9-0.2-12.2c0.4-0.5,0.9-1.4,1.4-1.9l0.5-0.6c4.6,1.2,8.7,7.6,9.7,9.4     c0.1,0.2,0.4,0.1,0.4-0.1c1.2-8.2-3.1-15.4-4.1-16.8c8-12.1,8.6-21.5,8.1-29c-0.1-1.1-1.5-1.7-2.7-1.5     C32,8.8,24.3,21.9,22.6,25.3C18.8,25.4,11.1,26.5,5,33c-0.1,0.1,0,0.3,0.2,0.3c1.8-0.1,8.7-0.4,12.1,3.4     c-0.1,0.5-0.6,3.1-0.8,4.2c-2.9,14.5,0.4,24.4,13.7,26.2c5.3,0.7,14.9-1.8,21.3-5.9c4.5,3.9,9.2,5.4,11,5.6     c0.2,0,0.3-0.2,0.1-0.3C58.1,64.3,57.7,58.8,57.8,57.8 M32.2,23.9c0.1-0.9,0-1.6,0-2c0-0.2-0.1-0.4-0.3-0.1     c-0.5,0.5-1.1,1.6-2.4,2.7c-0.9,0.2-1.7,0.5-2.6,1c-0.5,0.2,1.6-2.5,2.5-3.2c0.1,0.4,0.2,0.8,0.3,1c0.1,0.1,0.1,0.2,0.3,0     c0.4-0.5,0.5-1.5,1.8-2.9c0.3-0.2,0.5-0.4,0.8-0.5c0.1,0.5,0.3,1.1,0.4,1.4c0.1,0.1,0.1,0.2,0.3,0c0.4-0.6,0.5-1.8,2.2-3.3     c0,0,0.5,2,0.6,2.5c0.1,0.2,0.2,0.3,0.4,0c0.5-0.9,0.9-2.4,2.8-4.3c-0.4,1.3-0.3,3.1-0.2,3.7c0,0.2,0.1,0.4,0.3,0.1     c0.5-0.9,3.2-3.6,3.7-3.5c-0.4,2.6-1.2,3.7-1.6,4.7c-0.1,0.2,0,0.3,0.2,0.2c0.5-0.2,1.8-0.6,2.8-1.4v0.1c-0.9,2-1.8,3.1-2.5,3.9     c-0.1,0.2-0.1,0.3,0.1,0.3c0.4,0,1.3-0.1,2-0.4c-0.6,1.8-1.5,2.6-2,3.2c-0.1,0.1-0.1,0.2,0.1,0.2c0.3,0,0.9-0.1,1.4-0.2     c0,0.1-1.4,2-1.6,2.6c-0.1,0.1-0.1,0.2,0.1,0.2c0.2,0,0.5-0.1,0.9-0.1c-0.4,1.4-1.9,4.4-1.9,3.8c0-1.5-0.4-2.2-0.6-3.4     c0.4-0.6,0.6-1.2,1-1.6c0.1-0.2,0-0.3-0.2-0.2c-0.3,0.1-0.6,0.3-1.2,0.5c0.4-1.4,1.1-2.1,1.4-2.8c0.1-0.2,0-0.3-0.2-0.2     c-0.5,0.1-1.5,0.5-2.4,1.1c0.4-1.5,1.1-2.2,1.5-2.9c0.1-0.2,0-0.3-0.2-0.2c-0.8,0.2-2.4,0.9-3.3,1.4c0.2-1.2,0.2-2.7,0.1-3.3     c0-0.2-0.1-0.4-0.3-0.1c-0.5,0.5-1,1.5-2.1,2.6c0.1-1.1,0.1-2.2,0-2.7c0-0.2-0.1-0.4-0.3-0.1C33.7,22.1,33.4,22.9,32.2,23.9"
           clip-path="url(#SVGID_4_)"
           id="path4523"
           style="stroke:#30ace3;stroke-opacity:0;fill:#000000;fill-opacity:1" /><polygon
           class="st2"
           points="113.8,67 116.8,67 116.8,75.7 120.9,75.7 120.9,67 123.8,67 123.8,63.5 113.8,63.5    "
           clip-path="url(#SVGID_4_)"
           id="polygon4525"
           style="stroke:#30ace3;stroke-opacity:0;fill:#000000;fill-opacity:1" /><path
           class="st2"
           d="M140.4,63.5l-4.6,11.7l-2.8-4.5c0.7-0.3,1.2-0.7,1.6-1.3c0.4-0.6,0.5-1.2,0.5-2c0-0.8-0.1-1.4-0.4-1.9     c-0.3-0.5-0.7-0.9-1.1-1.2c-0.5-0.3-1-0.5-1.6-0.6c-0.6-0.1-1.2-0.2-1.8-0.2h-5.2v12.1h4v-4.3h0.1l2.3,4.3h4.3h0.4h3.9l0.6-1.8     h3.8l0.6,1.8h4.4l-4.7-12.1H140.4z M130.9,68.2c-0.1,0.1-0.2,0.2-0.4,0.3c-0.1,0.1-0.3,0.1-0.5,0.1c-0.2,0-0.3,0-0.4,0h-0.8v-1.9     h1c0.1,0,0.3,0,0.4,0c0.1,0,0.3,0.1,0.4,0.1c0.1,0.1,0.2,0.2,0.3,0.3c0.1,0.1,0.1,0.3,0.1,0.5C131.1,67.9,131,68,130.9,68.2      M141.5,70.8l1-3l1,3H141.5z"
           clip-path="url(#SVGID_4_)"
           id="path4527"
           style="stroke:#30ace3;stroke-opacity:0;fill:#000000;fill-opacity:1" /><polygon
           class="st2"
           points="150.1,75.7 154.1,75.7 154.1,71.6 157.7,71.6 157.7,68.2 154,68.2 154,67 158.2,67 158.2,63.5      150.1,63.5    "
           clip-path="url(#SVGID_4_)"
           id="polygon4529"
           style="stroke:#30ace3;stroke-opacity:0;fill:#000000;fill-opacity:1" /><polygon
           class="st2"
           points="159.8,75.7 163.8,75.7 163.8,71.6 167.5,71.6 167.5,68.2 163.8,68.2 163.8,67 168,67 168,63.5      159.8,63.5    "
           clip-path="url(#SVGID_4_)"
           id="polygon4531"
           style="stroke:#30ace3;stroke-opacity:0;fill:#000000;fill-opacity:1" /><rect
           x="169.6"
           y="63.5"
           class="st2"
           width="4.1"
           height="12.1"
           clip-path="url(#SVGID_4_)"
           id="rect4533"
           style="stroke:#30ace3;stroke-opacity:0;fill:#000000;fill-opacity:0.98994976" /><path
           class="st2"
           d="M180.3,67.7c0.2-0.2,0.5-0.4,0.8-0.5c0.3-0.1,0.6-0.2,1-0.2c0.4,0,0.8,0.1,1.1,0.2s0.6,0.4,0.9,0.7l2.5-3     c-0.6-0.5-1.3-0.9-2.1-1.2c-0.8-0.3-1.7-0.5-2.7-0.5c-0.9,0-1.8,0.2-2.6,0.5c-0.8,0.3-1.5,0.7-2.1,1.3c-0.6,0.6-1.1,1.2-1.4,2     c-0.3,0.8-0.5,1.7-0.5,2.6c0,1,0.2,1.8,0.5,2.6c0.3,0.8,0.8,1.5,1.4,2c0.6,0.6,1.3,1,2.1,1.3c0.8,0.3,1.7,0.5,2.6,0.5     c1,0,1.9-0.2,2.7-0.5c0.8-0.3,1.5-0.8,2-1.3l-2.5-3c-0.2,0.3-0.5,0.5-0.8,0.7c-0.3,0.2-0.7,0.3-1.2,0.3c-0.3,0-0.6-0.1-0.9-0.2     c-0.3-0.1-0.6-0.3-0.8-0.5c-0.2-0.2-0.4-0.5-0.5-0.8c-0.1-0.3-0.2-0.7-0.2-1.1c0-0.4,0.1-0.8,0.2-1.1     C179.9,68.2,180.1,67.9,180.3,67.7"
           clip-path="url(#SVGID_4_)"
           id="path4535"
           style="stroke:#30ace3;stroke-opacity:0;fill:#000000;fill-opacity:1" /><path
           class="st2"
           d="M196.2,67.1c0-0.6-0.1-1.2-0.3-1.6c-0.2-0.4-0.5-0.8-0.9-1.1c-0.4-0.3-0.9-0.5-1.4-0.6     c-0.6-0.1-1.2-0.2-1.9-0.2h-4v12.1h2.2v-5h1.7c0.6,0,1.2-0.1,1.8-0.2c0.6-0.1,1.1-0.3,1.5-0.6c0.4-0.3,0.8-0.6,1-1.1     C196.1,68.3,196.2,67.7,196.2,67.1 M193.9,67.9c-0.1,0.2-0.3,0.4-0.6,0.5c-0.3,0.1-0.5,0.2-0.9,0.3c-0.3,0.1-0.7,0.1-1,0.1h-1.5     v-3.5h1.6c0.3,0,0.7,0,1,0.1c0.3,0,0.6,0.1,0.8,0.2c0.2,0.1,0.4,0.3,0.6,0.5c0.1,0.2,0.2,0.5,0.2,0.9     C194.1,67.4,194,67.7,193.9,67.9"
           clip-path="url(#SVGID_4_)"
           id="path4537"
           style="stroke:#30ace3;stroke-opacity:0;fill:#000000;fill-opacity:0.99497485" /><path
           class="st2"
           d="M200.8,63.5l-5.3,12.1h2.4l1.1-2.8h5.3l1.1,2.8h2.5l-5.2-12.1H200.8z M199.8,71l1.9-4.9l1.9,4.9H199.8z"
           clip-path="url(#SVGID_4_)"
           id="path4539"
           style="stroke:#30ace3;stroke-opacity:0;fill:#000000;fill-opacity:1" /><path
           class="st2"
           d="M216.8,69.2c0.5-0.6,0.7-1.3,0.7-2.1c0-0.6-0.1-1.2-0.4-1.6c-0.3-0.4-0.6-0.8-1-1.1     c-0.4-0.3-0.9-0.5-1.4-0.6c-0.5-0.1-1.1-0.2-1.7-0.2h-4.2v12.1h2.2v-5.1h1.6l2.8,5.1h2.6l-3.2-5.4     C215.7,70.1,216.3,69.7,216.8,69.2 M213.7,68.7c-0.3,0-0.6,0.1-0.9,0.1h-1.8v-3.4h2c0.3,0,0.6,0,0.8,0.1c0.3,0,0.6,0.1,0.8,0.3     c0.2,0.1,0.4,0.3,0.6,0.5c0.1,0.2,0.2,0.5,0.2,0.8c0,0.4-0.1,0.7-0.2,0.9c-0.2,0.2-0.4,0.4-0.6,0.5     C214.3,68.6,214.1,68.7,213.7,68.7"
           clip-path="url(#SVGID_4_)"
           id="path4541"
           style="stroke:#30ace3;stroke-opacity:0;fill:#000000;fill-opacity:0.98994976" /><polygon
           class="st2"
           points="218,65.4 221.7,65.4 221.7,75.7 223.9,75.7 223.9,65.4 227.6,65.4 227.6,63.5 218,63.5    "
           clip-path="url(#SVGID_4_)"
           id="polygon4543"
           style="stroke:#30ace3;stroke-opacity:0;fill:#000000;fill-opacity:1" /><polygon
           class="st2"
           points="237.4,72.6 237.3,72.6 231.7,63.5 228.8,63.5 228.8,75.7 231,75.7 231,66.3 231,66.3 236.8,75.7      239.5,75.7 239.5,63.5 237.4,63.5    "
           clip-path="url(#SVGID_4_)"
           id="polygon4545"
           style="stroke:#30ace3;stroke-opacity:0;fill:#000000;fill-opacity:1" /><polygon
           class="st2"
           points="244.2,70.3 249.7,70.3 249.7,68.5 244.2,68.5 244.2,65.4 250,65.4 250,63.5 242,63.5 242,75.7      250.4,75.7 250.4,73.7 244.2,73.7    "
           clip-path="url(#SVGID_4_)"
           id="polygon4547"
           style="stroke:#30ace3;stroke-opacity:0;fill:#000000;fill-opacity:0.96482414" /><path
           class="st2"
           d="M258.2,70.3c0.9-0.2,1.5-0.6,2-1.1c0.5-0.6,0.7-1.3,0.7-2.1c0-0.6-0.1-1.2-0.4-1.6c-0.3-0.4-0.6-0.8-1-1.1     c-0.4-0.3-0.9-0.5-1.4-0.6c-0.5-0.1-1.1-0.2-1.7-0.2h-4.2v12.1h2.2v-5.1h1.6l2.8,5.1h2.6L258.2,70.3z M257.1,68.7     c-0.3,0-0.6,0.1-0.9,0.1h-1.8v-3.4h2c0.3,0,0.6,0,0.8,0.1c0.3,0,0.6,0.1,0.8,0.3c0.2,0.1,0.4,0.3,0.6,0.5     c0.1,0.2,0.2,0.5,0.2,0.8c0,0.4-0.1,0.7-0.2,0.9c-0.2,0.2-0.4,0.4-0.6,0.5C257.7,68.6,257.5,68.7,257.1,68.7"
           clip-path="url(#SVGID_4_)"
           id="path4549"
           style="stroke:#30ace3;stroke-opacity:0;fill:#000000;fill-opacity:0.97487438" /></g></g></g></svg>